# Blender 4.4.1
# www.blender.org
mtllib chain.mtl
o Torus
v 0.989683 0.000000 -0.402687
v 0.807285 0.000000 -0.585085
v 0.782833 0.125000 -0.561402
v 0.965999 0.125000 -0.378235
v 0.716193 0.216506 -0.496697
v 0.901295 0.216506 -0.311595
v 0.626476 0.250000 -0.408309
v 0.812906 0.250000 -0.221878
v 0.539416 0.216506 -0.319920
v 0.724518 0.216506 -0.134819
v 0.476647 0.125000 -0.255216
v 0.659813 0.125000 -0.072049
v 0.453731 0.000000 -0.231532
v 0.636130 0.000000 -0.049134
v 0.476647 -0.125000 -0.255216
v 0.659813 -0.125000 -0.072049
v 0.539416 -0.216506 -0.319920
v 0.724518 -0.216506 -0.134819
v 0.626476 -0.250000 -0.408309
v 0.812906 -0.250000 -0.221878
v 0.716193 -0.216506 -0.496697
v 0.901295 -0.216506 -0.311595
v 0.782833 -0.125000 -0.561402
v 0.965999 -0.125000 -0.378235
v -0.798362 0.000000 -0.585086
v -0.980760 0.000000 -0.402687
v -0.957076 0.125000 -0.378235
v -0.773910 0.125000 -0.561402
v -0.892372 0.216506 -0.311596
v -0.707270 0.216506 -0.496697
v -0.803983 0.250000 -0.221878
v -0.617553 0.250000 -0.408309
v -0.715595 0.216506 -0.134819
v -0.530493 0.216506 -0.319920
v -0.650890 0.125000 -0.072049
v -0.467724 0.125000 -0.255216
v -0.627207 0.000000 -0.049134
v -0.444808 0.000000 -0.231532
v -0.650890 -0.125000 -0.072049
v -0.467724 -0.125000 -0.255216
v -0.715595 -0.216506 -0.134819
v -0.530493 -0.216506 -0.319920
v -0.803983 -0.250000 -0.221878
v -0.617553 -0.250000 -0.408309
v -0.892372 -0.216506 -0.311596
v -0.707270 -0.216506 -0.496697
v -0.957076 -0.125000 -0.378235
v -0.773910 -0.125000 -0.561402
v -0.980760 0.000000 0.409797
v -0.798362 0.000000 0.592195
v -0.773910 0.125000 0.568512
v -0.957077 0.125000 0.385345
v -0.707270 0.216506 0.503807
v -0.892372 0.216506 0.318706
v -0.617553 0.250000 0.415419
v -0.803983 0.250000 0.228988
v -0.530493 0.216506 0.327030
v -0.715595 0.216506 0.141929
v -0.467724 0.125000 0.262326
v -0.650890 0.125000 0.079159
v -0.444808 0.000000 0.238642
v -0.627207 0.000000 0.056244
v -0.467724 -0.125000 0.262326
v -0.650890 -0.125000 0.079159
v -0.530493 -0.216506 0.327030
v -0.715595 -0.216506 0.141929
v -0.617553 -0.250000 0.415419
v -0.803983 -0.250000 0.228988
v -0.707270 -0.216506 0.503807
v -0.892372 -0.216506 0.318706
v -0.773910 -0.125000 0.568512
v -0.957077 -0.125000 0.385345
v 0.807285 0.000000 0.592195
v 0.989683 0.000000 0.409797
v 0.966000 0.125000 0.385345
v 0.782833 0.125000 0.568512
v 0.901295 0.216506 0.318705
v 0.716193 0.216506 0.503807
v 0.812906 0.250000 0.228988
v 0.626476 0.250000 0.415419
v 0.724518 0.216506 0.141929
v 0.539416 0.216506 0.327030
v 0.659813 0.125000 0.079159
v 0.476647 0.125000 0.262326
v 0.636130 0.000000 0.056244
v 0.453731 0.000000 0.238642
v 0.659813 -0.125000 0.079159
v 0.476647 -0.125000 0.262326
v 0.724518 -0.216506 0.141929
v 0.539416 -0.216506 0.327030
v 0.812906 -0.250000 0.228988
v 0.626476 -0.250000 0.415419
v 0.901295 -0.216506 0.318705
v 0.716193 -0.216506 0.503807
v 0.966000 -0.125000 0.385345
v 0.782833 -0.125000 0.568512
vn 0.9147 -0.0000 -0.4042
vn 0.4042 -0.0000 -0.9147
vn 0.3436 0.4565 -0.8207
vn 0.8207 0.4565 -0.3436
vn 0.1881 0.8176 -0.5441
vn 0.5441 0.8176 -0.1881
vn -0.0007 0.9961 -0.0882
vn 0.0882 0.9961 0.0007
vn -0.1749 0.8764 0.4488
vn -0.4488 0.8764 0.1749
vn -0.3084 0.4905 0.8150
vn -0.8150 0.4905 0.3084
vn -0.3595 -0.0000 0.9331
vn -0.9331 -0.0000 0.3595
vn -0.3084 -0.4905 0.8150
vn -0.8150 -0.4905 0.3084
vn -0.1749 -0.8764 0.4488
vn -0.4488 -0.8764 0.1749
vn -0.0007 -0.9961 -0.0882
vn 0.0882 -0.9961 0.0007
vn 0.1881 -0.8176 -0.5441
vn 0.5441 -0.8176 -0.1881
vn 0.3436 -0.4565 -0.8207
vn 0.8207 -0.4565 -0.3436
vn -0.4042 -0.0000 -0.9147
vn -0.9147 -0.0000 -0.4042
vn -0.8207 0.4565 -0.3436
vn -0.3436 0.4565 -0.8207
vn -0.5441 0.8176 -0.1881
vn -0.1881 0.8176 -0.5441
vn -0.0882 0.9961 0.0007
vn 0.0007 0.9961 -0.0882
vn 0.4488 0.8764 0.1749
vn 0.1749 0.8764 0.4488
vn 0.8150 0.4905 0.3084
vn 0.3084 0.4905 0.8150
vn 0.9331 -0.0000 0.3595
vn 0.3595 -0.0000 0.9331
vn 0.8150 -0.4905 0.3084
vn 0.3084 -0.4905 0.8150
vn 0.4488 -0.8764 0.1749
vn 0.1749 -0.8764 0.4488
vn -0.0882 -0.9961 0.0007
vn 0.0007 -0.9961 -0.0882
vn -0.5441 -0.8176 -0.1881
vn -0.1881 -0.8176 -0.5441
vn -0.8207 -0.4565 -0.3436
vn -0.3436 -0.4565 -0.8207
vn -0.9147 -0.0000 0.4042
vn -0.4042 -0.0000 0.9147
vn -0.3436 0.4565 0.8207
vn -0.8207 0.4565 0.3436
vn -0.1881 0.8176 0.5441
vn -0.5441 0.8176 0.1881
vn 0.0007 0.9961 0.0882
vn -0.0882 0.9961 -0.0007
vn 0.1749 0.8764 -0.4488
vn 0.4488 0.8764 -0.1749
vn 0.3084 0.4905 -0.8150
vn 0.8150 0.4905 -0.3084
vn 0.3595 -0.0000 -0.9331
vn 0.9331 -0.0000 -0.3595
vn 0.3084 -0.4905 -0.8150
vn 0.8150 -0.4905 -0.3084
vn 0.1749 -0.8764 -0.4488
vn 0.4488 -0.8764 -0.1749
vn 0.0007 -0.9961 0.0882
vn -0.0882 -0.9961 -0.0007
vn -0.1881 -0.8176 0.5441
vn -0.5441 -0.8176 0.1881
vn -0.3436 -0.4565 0.8207
vn -0.8207 -0.4565 0.3436
vn 0.4042 -0.0000 0.9147
vn 0.9147 -0.0000 0.4042
vn 0.8207 0.4565 0.3436
vn 0.3436 0.4565 0.8207
vn 0.5441 0.8176 0.1881
vn 0.1881 0.8176 0.5441
vn 0.0882 0.9961 -0.0007
vn -0.0007 0.9961 0.0882
vn -0.4488 0.8764 -0.1749
vn -0.1749 0.8764 -0.4488
vn -0.8150 0.4905 -0.3084
vn -0.3084 0.4905 -0.8150
vn -0.9331 -0.0000 -0.3595
vn -0.3595 -0.0000 -0.9331
vn -0.8150 -0.4905 -0.3084
vn -0.3084 -0.4905 -0.8150
vn -0.4488 -0.8764 -0.1749
vn -0.1749 -0.8764 -0.4488
vn 0.0882 -0.9961 -0.0007
vn -0.0007 -0.9961 0.0882
vn 0.5441 -0.8176 0.1881
vn 0.1881 -0.8176 0.5441
vn 0.8207 -0.4565 0.3436
vn 0.3436 -0.4565 0.8207
vt 0.523812 0.416667
vt 0.726188 0.416667
vt 0.726858 0.500000
vt 0.523142 0.500000
vt 0.290527 0.583333
vt 0.459473 0.583333
vt 0.453748 0.666667
vt 0.296252 0.666667
vt 0.296252 0.666667
vt 0.443419 0.750000
vt 0.306581 0.750000
vt 0.443419 0.750000
vt 0.428472 0.833333
vt 0.321528 0.833333
vt 0.321528 0.833333
vt 0.428472 0.833333
vt 0.411521 0.916667
vt 0.338479 0.916667
vt 0.338479 0.916667
vt 0.411521 0.916667
vt 0.403015 1.000000
vt 0.346985 1.000000
vt 0.346985 0.000000
vt 0.403015 0.000000
vt 0.411521 0.083333
vt 0.338479 0.083333
vt 0.428472 0.166667
vt 0.321528 0.166667
vt 0.428472 0.166667
vt 0.443419 0.250000
vt 0.306581 0.250000
vt 0.306581 0.250000
vt 0.453748 0.333333
vt 0.296252 0.333333
vt 0.453748 0.333333
vt 0.459473 0.416667
vt 0.290527 0.416667
vt 0.290527 0.416667
vt 0.461267 0.500000
vt 0.288733 0.500000
vt 0.790527 0.416667
vt 0.959473 0.416667
vt 0.961267 0.500000
vt 0.788733 0.500000
vt 0.796252 0.666667
vt 0.953748 0.666667
vt 0.943419 0.750000
vt 0.806581 0.750000
vt 0.943419 0.750000
vt 0.928472 0.833333
vt 0.821528 0.833333
vt 0.821528 0.833333
vt 0.911521 0.916667
vt 0.838479 0.916667
vt 0.838479 0.916667
vt 0.911521 0.916667
vt 0.903015 1.000000
vt 0.846984 1.000000
vt 0.846984 0.000000
vt 0.903015 0.000000
vt 0.911521 0.083333
vt 0.838479 0.083333
vt 0.838479 0.083333
vt 0.928472 0.166667
vt 0.821528 0.166667
vt 0.943419 0.250000
vt 0.806581 0.250000
vt 0.953748 0.333333
vt 0.796252 0.333333
vt 0.796252 0.333333
vt 0.023142 0.500000
vt 0.226858 0.500000
vt 0.226188 0.583333
vt 0.023812 0.583333
vt 0.790527 0.583333
vt 0.959473 0.583333
vt 0.953748 0.666667
vt 0.796252 0.666667
vt 0.023812 0.416667
vt 0.226188 0.416667
vt 0.023142 0.500000
vt 0.025799 0.666667
vt 0.224201 0.666667
vt 0.221174 0.750000
vt 0.028826 0.750000
vt 0.028826 0.750000
vt 0.221174 0.750000
vt 0.217867 0.833333
vt 0.032133 0.833333
vt 0.032133 0.833333
vt 0.217867 0.833333
vt 0.215063 0.916667
vt 0.034937 0.916667
vt 0.215063 0.916667
vt 0.213905 1.000000
vt 0.036095 1.000000
vt 0.036095 0.000000
vt 0.213905 0.000000
vt 0.215063 0.083333
vt 0.034937 0.083333
vt 0.034937 0.083333
vt 0.215063 0.083333
vt 0.217867 0.166667
vt 0.032133 0.166667
vt 0.032133 0.166667
vt 0.217867 0.166667
vt 0.221174 0.250000
vt 0.028826 0.250000
vt 0.028826 0.250000
vt 0.221174 0.250000
vt 0.224201 0.333333
vt 0.025799 0.333333
vt 0.025799 0.333333
vt 0.224201 0.333333
vt 0.023812 0.416667
vt 0.023812 0.583333
vt 0.224201 0.666667
vt 0.025799 0.666667
vt 0.726188 0.583333
vt 0.523812 0.583333
vt 0.525799 0.666667
vt 0.724201 0.666667
vt 0.721174 0.750000
vt 0.528826 0.750000
vt 0.717867 0.833333
vt 0.532133 0.833333
vt 0.532133 0.833333
vt 0.717867 0.833333
vt 0.715063 0.916667
vt 0.534937 0.916667
vt 0.713905 1.000000
vt 0.536095 1.000000
vt 0.536095 0.000000
vt 0.713905 0.000000
vt 0.715063 0.083333
vt 0.534937 0.083333
vt 0.534937 0.083333
vt 0.715063 0.083333
vt 0.717867 0.166667
vt 0.532133 0.166667
vt 0.532133 0.166667
vt 0.717867 0.166667
vt 0.721174 0.250000
vt 0.528826 0.250000
vt 0.724201 0.333333
vt 0.525799 0.333333
vt 0.525799 0.333333
vt 0.724201 0.333333
vt 0.726188 0.416667
vt 0.961267 0.500000
vt 0.726188 0.583333
vt 0.724201 0.666667
vt 0.461267 0.500000
vt 1.000000 0.521496
vt 1.000000 0.583333
vt 1.000000 0.642308
vt 1.000000 0.666667
vt 1.000000 0.748079
vt 1.000000 0.750000
vt 1.000000 0.831997
vt 1.000000 0.833333
vt 1.000000 0.892931
vt 1.000000 0.916667
vt 1.000000 0.938253
vt 1.000000 1.000000
vt 1.000000 0.000000
vt 1.000000 0.061747
vt 1.000000 0.083333
vt 1.000000 0.107069
vt 1.000000 0.166667
vt 1.000000 0.168003
vt 1.000000 0.250000
vt 1.000000 0.251921
vt 1.000000 0.333333
vt 1.000000 0.357692
vt 1.000000 0.416667
vt 1.000000 0.478504
s 1
f 23/1/23 48/2/48 25/3/25 2/4/2
f 75/5/75 4/6/4 6/7/6 77/8/77
f 77/9/77 6/7/6 8/10/8 79/11/79
f 79/11/79 8/12/8 10/13/10 81/14/81
f 81/15/81 10/16/10 12/17/12 83/18/83
f 83/19/83 12/20/12 14/21/14 85/22/85
f 85/23/85 14/24/14 16/25/16 87/26/87
f 87/26/87 16/25/16 18/27/18 89/28/89
f 89/28/89 18/29/18 20/30/20 91/31/91
f 91/32/91 20/30/20 22/33/22 93/34/93
f 93/34/93 22/35/22 24/36/24 95/37/95
f 95/38/95 24/36/24 1/39/1 74/40/74
f 47/41/47 72/42/72 49/43/49 26/44/26
f 29/45/29 54/46/54 56/47/56 31/48/31
f 31/48/31 56/49/56 58/50/58 33/51/33
f 33/52/33 58/50/58 60/53/60 35/54/35
f 35/55/35 60/56/60 62/57/62 37/58/37
f 37/59/37 62/60/62 64/61/64 39/62/39
f 39/63/39 64/61/64 66/64/66 41/65/41
f 41/65/41 66/64/66 68/66/68 43/67/43
f 43/67/43 68/66/68 70/68/70 45/69/45
f 45/70/45 70/68/70 72/42/72 47/41/47
f 50/71/50 73/72/73 76/73/76 51/74/51
f 27/75/27 52/76/52 54/77/54 29/78/29
f 71/79/71 96/80/96 73/72/73 50/81/50
f 53/82/53 78/83/78 80/84/80 55/85/55
f 55/86/55 80/87/80 82/88/82 57/89/57
f 57/90/57 82/91/82 84/92/84 59/93/59
f 59/93/59 84/94/84 86/95/86 61/96/61
f 61/97/61 86/98/86 88/99/88 63/100/63
f 63/101/63 88/102/88 90/103/90 65/104/65
f 65/105/65 90/106/90 92/107/92 67/108/67
f 67/109/67 92/110/92 94/111/94 69/112/69
f 69/113/69 94/114/94 96/80/96 71/115/71
f 51/116/51 76/73/76 78/117/78 53/118/53
f 2/4/2 25/3/25 28/119/28 3/120/3
f 5/121/5 30/122/30 32/123/32 7/124/7
f 7/124/7 32/123/32 34/125/34 9/126/9
f 9/127/9 34/128/34 36/129/36 11/130/11
f 11/130/11 36/129/36 38/131/38 13/132/13
f 13/133/13 38/134/38 40/135/40 15/136/15
f 15/137/15 40/138/40 42/139/42 17/140/17
f 17/141/17 42/142/42 44/143/44 19/144/19
f 19/144/19 44/143/44 46/145/46 21/146/21
f 21/147/21 46/148/46 48/149/48 23/1/23
f 26/44/26 49/150/49 52/76/52 27/75/27
f 3/120/3 28/151/28 30/152/30 5/121/5
f 2/4/2 3/120/3 4/6/4 1/153/1
f 26/44/26 27/75/27 28/119/28 25/3/25
f 3/120/3 5/121/5 6/7/6 4/6/4
f 27/75/27 29/78/29 30/152/30 28/151/28
f 5/121/5 7/124/7 8/10/8 6/7/6
f 29/45/29 31/48/31 32/123/32 30/122/30
f 7/124/7 9/126/9 10/13/10 8/12/8
f 31/48/31 33/51/33 34/125/34 32/123/32
f 9/127/9 11/130/11 12/17/12 10/16/10
f 33/52/33 35/54/35 36/129/36 34/128/34
f 11/130/11 13/132/13 14/21/14 12/20/12
f 35/55/35 37/58/37 38/131/38 36/129/36
f 13/133/13 15/136/15 16/25/16 14/24/14
f 37/59/37 39/62/39 40/135/40 38/134/38
f 15/137/15 17/140/17 18/27/18 16/25/16
f 39/63/39 41/65/41 42/139/42 40/138/40
f 17/141/17 19/144/19 20/30/20 18/29/18
f 41/65/41 43/67/43 44/143/44 42/142/42
f 19/144/19 21/146/21 22/33/22 20/30/20
f 43/67/43 45/69/45 46/145/46 44/143/44
f 21/147/21 23/1/23 24/36/24 22/35/22
f 45/70/45 47/41/47 48/149/48 46/148/46
f 1/39/1 24/36/24 23/1/23 2/4/2
f 25/3/25 48/2/48 47/41/47 26/44/26
f 50/154/50 51/155/51 52/76/52 49/150/49
f 51/156/51 53/157/53 54/77/54 52/76/52
f 53/158/53 55/159/55 56/47/56 54/46/54
f 55/160/55 57/161/57 58/50/58 56/49/56
f 57/162/57 59/163/59 60/53/60 58/50/58
f 59/164/59 61/165/61 62/57/62 60/56/60
f 61/166/61 63/167/63 64/61/64 62/60/62
f 63/168/63 65/169/65 66/64/66 64/61/64
f 65/170/65 67/171/67 68/66/68 66/64/66
f 67/172/67 69/173/69 70/68/70 68/66/68
f 69/174/69 71/175/71 72/42/72 70/68/70
f 49/43/49 72/42/72 71/176/71 50/177/50
f 74/40/74 75/5/75 76/73/76 73/72/73
f 75/5/75 77/8/77 78/117/78 76/73/76
f 77/9/77 79/11/79 80/84/80 78/83/78
f 79/11/79 81/14/81 82/88/82 80/87/80
f 81/15/81 83/18/83 84/92/84 82/91/82
f 83/19/83 85/22/85 86/95/86 84/94/84
f 85/23/85 87/26/87 88/99/88 86/98/86
f 87/26/87 89/28/89 90/103/90 88/102/88
f 89/28/89 91/31/91 92/107/92 90/106/90
f 91/32/91 93/34/93 94/111/94 92/110/92
f 93/34/93 95/37/95 96/80/96 94/114/94
f 73/72/73 96/80/96 95/38/95 74/40/74
f 74/40/74 1/153/1 4/6/4 75/5/75
