# Blender 4.5.3 LTS
# www.blender.org
o gibs.003
v -0.511538 0.712217 0.608104
v -0.437817 0.673953 0.623835
v -0.474229 0.707023 0.622047
v -0.450486 0.677880 0.597923
v -0.365299 0.682719 0.559557
v -0.389289 0.633379 0.574860
v -0.385202 0.644496 0.539453
v -0.371243 0.685931 0.583693
v -0.363511 0.731823 0.609639
v -0.351546 0.662367 0.597218
v -0.263724 0.608766 0.563975
v -0.312833 0.662229 0.574283
v -0.337427 0.721036 0.616104
v -0.343639 0.616572 0.584387
v -0.287985 0.585384 0.539929
v -0.298833 0.587208 0.494272
v -0.189772 0.596588 0.566077
v -0.223110 0.538781 0.436652
v -0.171114 0.598085 0.451457
v -0.134177 0.472685 0.339874
v -0.170392 0.577318 0.508068
v -0.220508 0.515451 0.380451
v -0.241143 0.554969 0.353190
v -0.222236 0.539334 0.215591
v -0.223294 0.448456 0.225940
v -0.204626 0.587266 0.306832
v -0.293555 0.603327 0.467462
v -0.232356 0.628170 0.408332
v -0.204481 0.633456 0.361162
v -0.275609 0.643453 0.472658
v -0.241771 0.644660 0.516196
v -0.356612 0.661009 0.522095
v -0.240533 0.643755 0.440660
v -0.137334 0.654096 0.530295
v -0.174411 0.609020 0.428661
v -0.137794 0.530296 0.356755
v -0.128655 0.542149 0.284452
v -0.168395 0.585822 0.251027
v -0.078343 0.483619 0.242430
v -0.109948 0.535381 0.223477
v -0.116439 0.405191 0.250640
v -0.183260 0.446026 0.327828
v -0.107229 0.447984 0.272758
v -0.075964 0.715453 0.556505
v -0.119803 0.670156 0.580485
v -0.038956 0.732858 0.545623
v -0.102393 0.639583 0.546815
v -0.186617 0.646317 0.550794
v -0.212409 0.615446 0.563148
v -0.149561 0.674323 0.642604
v -0.121004 0.698697 0.625718
v -0.132828 0.704847 0.662058
v -0.092185 0.743228 0.668002
v -0.094188 0.677617 0.644036
v -0.069622 0.666136 0.680279
v -0.110428 0.657221 0.666528
v -0.121490 0.621094 0.585698
v -0.042029 0.761573 0.672989
v -0.009827 0.770232 0.683144
v -0.075619 0.689202 0.699789
v -0.007880 0.791221 0.692743
v -0.075862 0.745856 0.700257
v -0.105252 0.666344 0.702022
v -0.070103 0.641988 0.723390
v -0.071976 0.627221 0.691807
v -0.017000 0.623811 0.719192
v -0.142789 0.628394 0.617864
v -0.136655 0.586336 0.537498
v -0.038472 0.709977 0.557702
v -0.078091 0.694077 0.568517
v -0.012383 0.760175 0.567536
v 0.002792 0.750290 0.552001
v -0.335019 0.709074 0.576027
v -0.325895 0.742122 0.598180
v -0.349937 0.789701 0.618431
v -0.355320 0.833614 0.596999
v -0.351767 0.761909 0.591931
vn -0.0891 -0.3892 0.9169
vn -0.9199 0.3683 -0.1347
vn -0.6958 -0.3000 -0.6526
vn -0.1015 0.7868 0.6088
vn -0.2543 0.7383 -0.6247
vn -0.7403 -0.1459 -0.6562
vn -0.6023 0.7322 0.3181
vn -0.4634 -0.8516 0.2450
vn -0.8501 0.0207 0.5263
vn 0.1012 -0.2167 0.9710
vn -0.1518 -0.6712 0.7256
vn 0.1834 -0.1217 0.9755
vn 0.6577 0.5753 0.4864
vn 0.4486 -0.1634 0.8787
vn -0.2026 -0.9032 0.3784
vn -0.1096 -0.7633 0.6367
vn -0.6239 -0.7641 -0.1637
vn -0.1388 -0.9341 0.3291
vn 0.5790 -0.5264 0.6226
vn 0.9872 0.0859 -0.1341
vn 0.3663 -0.9293 0.0479
vn -0.6731 -0.6644 0.3249
vn -0.9805 -0.0710 -0.1834
vn -0.8331 -0.5468 0.0835
vn -0.9143 0.3441 -0.2137
vn -0.3494 0.8384 -0.4184
vn -0.8159 0.0176 -0.5780
vn 0.0008 0.9483 -0.3174
vn -0.1996 0.9521 -0.2316
vn -0.3074 0.8196 -0.4835
vn 0.0645 0.9742 0.2164
vn -0.0369 0.9354 -0.3517
vn -0.4487 0.5047 -0.7375
vn 0.6953 0.7097 0.1138
vn 0.1011 0.8308 -0.5472
vn 0.9449 0.1363 0.2977
vn 0.7553 0.6437 0.1236
vn 0.2085 0.9776 0.0281
vn 0.7634 0.6246 0.1649
vn 0.9258 0.1156 0.3600
vn 0.2268 -0.2097 -0.9511
vn 0.0778 0.5458 -0.8343
vn 0.1392 -0.2089 -0.9680
vn 0.0656 -0.1137 -0.9914
vn -0.2367 -0.8146 0.5296
vn 0.3170 -0.7898 0.5251
vn 0.7383 -0.4412 0.5102
vn -0.4113 0.9016 0.1339
vn 0.9098 -0.3506 -0.2221
vn -0.4563 0.8434 0.2836
vn 0.5015 0.8619 -0.0755
vn -0.0816 0.3224 -0.9431
vn -0.8499 0.2058 0.4851
vn -0.3707 0.3677 0.8529
vn -0.0112 0.8499 -0.5268
vn -0.8761 0.4145 0.2461
vn -0.4157 0.8177 -0.3981
vn 0.8035 -0.2089 -0.5574
vn -0.1486 0.6359 -0.7573
vn -0.2760 -0.9377 0.2112
vn 0.8636 -0.2684 -0.4268
vn 0.9448 -0.0815 -0.3173
vn 0.6940 -0.6571 0.2944
vn 0.5693 0.7951 0.2090
vn 0.4242 -0.0341 0.9049
vn -0.3469 0.5547 0.7563
vn -0.6896 -0.1873 0.6996
vn -0.1522 -0.9099 -0.3859
vn -0.1284 -0.1293 0.9833
vn 0.8929 -0.3285 0.3078
vn 0.5326 -0.8430 0.0759
vn 0.1629 -0.8951 0.4149
vn 0.7073 -0.6407 0.2987
vn 0.1107 0.3019 0.9469
vn 0.2355 0.8096 0.5376
vn 0.9295 0.2376 -0.2822
vn 0.0311 0.3431 0.9388
vn 0.6645 0.3250 -0.6729
vn 0.9793 0.1566 -0.1278
vn -0.1097 0.9832 -0.1458
vn -0.3469 0.1684 -0.9227
vt 0.997233 0.908122
vt 0.994194 0.921847
vt 0.991888 0.912720
vt 0.317535 0.939805
vt 0.316696 0.932599
vt 0.323917 0.949813
vt 0.163868 0.901427
vt 0.167617 0.890387
vt 0.169055 0.908064
vt 0.932724 0.743014
vt 0.924520 0.744406
vt 0.925821 0.722131
vt 0.164486 0.875057
vt 0.169055 0.872825
vt 0.919632 0.742513
vt 0.590407 0.982661
vt 0.584545 0.983929
vt 0.581843 0.969742
vt 0.268172 0.967037
vt 0.272766 0.983275
vt 0.269628 0.980134
vt 0.262321 0.983275
vt 0.315339 0.967305
vt 0.320865 0.971845
vt 0.156148 0.911382
vt 0.162402 0.909937
vt 0.163253 0.920354
vt 0.590407 0.962967
vt 0.153978 0.938196
vt 0.150066 0.921058
vt 0.144581 0.904300
vt 0.145117 0.898583
vt 0.753454 0.235843
vt 0.769519 0.223752
vt 0.762166 0.239299
vt 0.779890 0.224191
vt 0.736926 0.242198
vt 0.768646 0.248861
vt 0.757104 0.267025
vt 0.562359 0.119926
vt 0.586803 0.099457
vt 0.593590 0.109339
vt 0.745127 0.272891
vt 0.738540 0.257495
vt 0.761630 0.284374
vt 0.749612 0.300223
vt 0.623896 0.564743
vt 0.614280 0.573711
vt 0.601947 0.561854
vt 0.769006 0.278121
vt 0.642380 0.597523
vt 0.650818 0.575422
vt 0.630153 0.560637
vt 0.928187 0.808829
vt 0.919233 0.794105
vt 0.922920 0.774227
vt 0.916821 0.771341
vt 0.584307 0.285656
vt 0.550877 0.295302
vt 0.570524 0.286790
vt 0.933992 0.792481
vt 0.929543 0.773324
vt 0.361192 0.890366
vt 0.361192 0.916329
vt 0.351341 0.898345
vt 0.521702 0.297012
vt 0.545297 0.276492
vt 0.549770 0.288426
vt 0.560755 0.283807
vt 0.531164 0.300064
vt 0.930647 0.751357
vt 0.572548 0.273017
vt 0.565501 0.267537
vt 0.531825 0.941110
vt 0.542271 0.914463
vt 0.544902 0.935263
vt 0.553172 0.251801
vt 0.567560 0.106999
vt 0.586803 0.092438
vt 0.568972 0.971984
vt 0.556341 0.974774
vt 0.569891 0.948961
vt 0.556341 0.949693
vt 0.577756 0.091485
vt 0.558052 0.100100
vt 0.561676 0.089217
vt 0.546927 0.098137
vt 0.539812 0.111757
vt 0.652800 0.967135
vt 0.663223 0.953533
vt 0.663223 0.980170
vt 0.000000 0.000000
vt 0.763076 0.301190
vt 0.779795 0.319255
vt 0.760752 0.321984
vt 0.545850 0.131258
vt 0.548157 0.121902
vt 0.750852 0.318383
vt 0.624422 0.592518
vt 0.936975 0.652787
vt 0.953731 0.633134
vt 0.954365 0.651771
vt 0.543660 0.260677
vt 0.547212 0.908510
vt 0.553282 0.237830
vt 0.544537 0.246228
vt 0.163289 0.925226
vt 0.165133 0.911029
vt 0.167228 0.937896
vt 0.531987 0.887333
vt 0.529666 0.247967
vt 0.538311 0.266684
vt 0.993044 0.604733
vt 0.993044 0.620280
vt 0.986844 0.616826
vt 0.533565 0.235428
vt 0.412013 0.933929
vt 0.412264 0.941766
vt 0.406081 0.942865
vt 0.523527 0.229658
vt 0.527160 0.222311
vt 0.947810 0.131205
vt 0.956697 0.145073
vt 0.950407 0.147780
vt 0.951261 0.161793
vt 0.540415 0.971702
vt 0.540415 0.988850
vt 0.532384 0.979279
vt 0.996361 0.492306
vt 0.990720 0.498633
vt 0.990720 0.487170
vt 0.952494 0.116518
vt 0.963665 0.140707
vt 0.958938 0.163569
vt 0.962736 0.146643
vt 0.950093 0.122141
vt 0.309178 0.990813
vt 0.314485 0.990687
vt 0.314485 0.997901
vt 0.388653 0.978670
vt 0.380901 0.985299
vt 0.381431 0.964383
vt 0.386169 0.961777
vt 0.956549 0.605663
vt 0.967713 0.618364
vt 0.965042 0.630611
vt 0.522180 0.214874
vt 0.530494 0.199408
vt 0.531437 0.209823
vt 0.399948 0.925860
vt 0.413973 0.919693
vt 0.968799 0.638100
vt 0.389683 0.927854
vt 0.391202 0.919693
vt 0.404927 0.923214
vt 0.401978 0.933603
vt 0.666834 0.994969
vt 0.666834 0.980853
vt 0.673333 0.989972
vt 0.924968 0.104430
vt 0.928636 0.096506
vt 0.934083 0.114376
vt 0.921601 0.091332
vt 0.992041 0.997670
vt 0.992041 0.984433
vt 0.997575 0.992885
vt 0.956549 0.639520
vt 0.961560 0.643446
vt 0.273116 0.987223
vt 0.278497 0.994462
vt 0.273116 0.998326
vt 0.554240 0.909553
vt 0.556085 0.919913
vt 0.718792 0.244148
vt 0.707089 0.226288
vt 0.720179 0.234364
vt 0.727813 0.253733
vt 0.740146 0.267803
vt 0.054031 0.892622
vt 0.062981 0.906838
vt 0.054031 0.928254
vt 0.059921 0.928588
vt 0.772538 0.534594
vt 0.772538 0.546636
vt 0.761152 0.540587
vt 0.601758 0.655433
vt 0.598025 0.649610
vt 0.601758 0.638869
vt 0.538139 0.891195
vt 0.989782 0.857878
vt 0.989782 0.879819
vt 0.982335 0.872757
vt 0.987912 0.831554
vt 0.986359 0.820534
vt 0.991337 0.821883
vt 0.862173 0.841239
vt 0.859431 0.854341
vt 0.861299 0.830367
vt 0.990788 0.810805
vt 0.997654 0.673703
vt 0.993970 0.686680
vt 0.992867 0.678577
vt 0.986208 0.808077
vt 0.992867 0.671748
vt 0.988103 0.062284
vt 0.990818 0.071858
vt 0.986534 0.080214
vt 0.551303 0.232479
vt 0.520019 0.305350
vt 0.139747 0.940959
vt 0.526945 0.286185
vt 0.232730 0.909179
vt 0.230386 0.891531
vt 0.235500 0.898147
vt 0.163101 0.720624
vt 0.170461 0.716661
vt 0.168225 0.735070
vt 0.168495 0.712041
vt 0.877653 0.977306
vt 0.883061 0.964386
vt 0.883225 0.981963
vt 0.164265 0.694821
vt 0.167979 0.701138
vt 0.232862 0.879378
vt 0.694590 0.289579
vt 0.693892 0.306927
vt 0.689723 0.306757
vt 0.163101 0.706932
vt 0.697429 0.320504
vt 0.690647 0.325659
vt 0.820266 0.700685
vt 0.829329 0.694251
vt 0.829329 0.705170
s 1
f 2/1/1 1/2/2 4/3/3
f 3/4/4 1/5/2 2/6/1
f 3/7/4 4/8/3 1/9/2
f 5/10/5 7/11/6 4/12/3
f 4/8/3 8/13/7 5/14/5
f 3/7/4 8/13/7 4/8/3
f 4/12/3 7/11/6 6/15/8
f 2/16/1 4/17/3 6/18/8
f 9/19/9 5/20/5 8/21/7
f 8/21/7 10/22/10 9/19/9
f 2/6/1 8/23/7 3/4/4
f 8/23/7 2/6/1 10/24/10
f 10/25/10 6/26/8 14/27/11
f 2/16/1 6/18/8 10/28/10
f 11/29/12 12/30/13 10/25/10
f 11/29/12 10/25/10 14/27/11
f 10/25/10 12/30/13 13/31/14
f 13/31/14 9/32/9 10/25/10
f 11/33/12 14/34/11 15/35/15
f 15/35/15 14/34/11 6/36/8
f 17/37/16 11/33/12 15/35/15
f 6/36/8 16/38/17 15/35/15
f 18/39/18 15/35/15 16/38/17
f 17/37/16 15/35/15 18/39/18
f 20/40/19 19/41/20 18/42/18
f 19/43/20 21/44/21 18/39/18
f 18/39/18 22/45/22 20/46/19
f 21/44/21 17/37/16 18/39/18
f 23/47/23 22/48/22 18/49/18
f 23/50/23 18/39/18 16/38/17
f 25/51/24 23/47/23 24/52/25
f 23/47/23 26/53/26 24/52/25
f 22/48/22 23/47/23 25/51/24
f 26/54/26 23/55/23 27/56/27
f 23/55/23 16/57/17 27/56/27
f 29/58/28 27/59/27 28/60/29
f 28/61/29 27/56/27 30/62/30
f 26/63/26 27/64/27 29/65/28
f 7/11/6 27/56/27 16/57/17
f 7/11/6 30/62/30 27/56/27
f 5/66/5 31/67/31 30/68/30
f 33/69/32 30/68/30 31/67/31
f 30/68/30 32/70/33 5/66/5
f 32/71/33 30/62/30 7/11/6
f 33/69/32 28/60/29 30/68/30
f 28/60/29 33/69/32 35/72/34
f 19/73/20 35/72/34 33/69/32
f 33/74/32 34/75/35 19/76/20
f 33/69/32 31/67/31 34/77/35
f 36/78/36 35/79/34 19/41/20
f 36/80/36 37/81/37 35/82/34
f 29/83/28 35/82/34 37/81/37
f 35/72/34 29/58/28 28/60/29
f 26/84/26 37/85/37 38/86/38
f 38/86/38 37/85/37 40/87/39
f 39/88/40 40/87/39 37/85/37
f 39/88/40 37/85/37 36/78/36
f 26/89/26 29/90/28 37/91/37
s 0
f 40/92/41 39/92/41 41/92/41
f 24/92/42 38/92/42 40/92/42
f 25/92/43 40/92/43 41/92/43
f 24/92/44 40/92/44 25/92/44
s 1
f 42/93/45 25/94/24 41/95/46
f 41/96/46 39/88/40 43/97/47
f 41/95/46 43/98/47 42/93/45
f 20/46/19 42/93/45 43/98/47
f 39/88/40 20/40/19 43/97/47
f 22/48/22 25/51/24 42/99/45
f 22/45/22 42/93/45 20/46/19
f 36/78/36 20/40/19 39/88/40
f 24/100/25 26/101/26 38/102/38
f 19/41/20 20/40/19 36/78/36
f 48/103/48 34/77/35 31/67/31
f 47/104/49 19/76/20 34/75/35
f 44/105/50 34/77/35 45/106/51
f 44/107/50 46/108/52 34/109/35
f 34/77/35 48/103/48 45/106/51
f 46/110/52 47/104/49 34/75/35
f 50/111/53 48/103/48 49/112/54
f 31/113/31 49/114/54 48/115/48
f 48/103/48 50/111/53 51/116/55
f 45/106/51 48/103/48 51/116/55
f 52/117/56 51/118/55 50/119/53
f 51/116/55 52/120/56 53/121/57
f 53/122/57 54/123/58 51/124/55
f 51/124/55 54/123/58 45/125/51
f 58/126/59 54/127/58 53/128/57
f 56/129/60 54/130/58 55/131/61
f 59/132/62 55/133/61 54/123/58
f 45/125/51 54/123/58 57/134/63
f 56/135/60 57/134/63 54/123/58
f 54/123/58 58/136/59 59/132/62
f 61/137/64 59/138/62 58/139/59
f 60/140/65 55/141/61 59/142/62
f 61/143/64 60/140/65 59/142/62
f 61/144/64 62/145/66 60/146/65
f 62/147/66 61/148/64 58/149/59
f 52/117/56 63/150/67 62/151/66
f 60/146/65 62/145/66 63/152/67
f 53/121/57 62/147/66 58/149/59
f 53/121/57 52/120/56 62/147/66
f 65/153/68 64/154/69 63/150/67
f 64/154/69 60/155/65 63/150/67
f 63/150/67 52/117/56 56/156/60
f 56/156/60 65/153/68 63/150/67
f 65/157/68 66/158/70 64/159/69
f 65/160/68 55/161/61 66/162/70
f 56/163/60 55/161/61 65/160/68
f 64/164/69 66/165/70 55/166/61
f 55/167/61 60/146/65 64/168/69
f 47/169/49 45/170/51 57/171/63
f 57/172/63 68/173/71 47/104/49
f 57/174/63 56/175/60 67/176/72
f 17/37/16 57/174/63 67/176/72
f 68/177/71 57/174/63 17/37/16
f 17/37/16 21/44/21 68/177/71
f 21/44/21 19/178/20 68/177/71
f 68/173/71 19/76/20 47/104/49
f 17/37/16 67/176/72 56/175/60
f 52/117/56 50/119/53 56/156/60
f 56/179/60 50/180/53 17/181/16
f 17/181/16 50/180/53 49/182/54
f 49/183/54 31/184/31 11/185/12
f 17/186/16 49/187/54 11/188/12
f 69/189/73 47/104/49 46/110/52
f 69/190/73 45/191/51 47/192/49
f 70/193/74 69/194/73 44/195/50
f 70/196/74 45/197/51 69/198/73
f 44/195/50 69/194/73 71/199/75
f 72/200/76 69/201/73 46/202/52
f 71/199/75 69/194/73 72/203/76
f 46/202/52 71/204/75 72/200/76
f 71/205/75 46/206/52 44/207/50
f 44/105/50 45/106/51 70/208/74
f 5/66/5 32/70/33 7/209/6
f 31/210/31 12/30/13 11/29/12
f 5/66/5 12/211/13 31/67/31
f 16/57/17 6/15/8 7/11/6
f 13/212/14 75/213/77 9/214/9
f 73/215/78 13/216/14 12/217/13
f 73/215/78 74/218/79 13/216/14
f 74/219/79 75/220/77 13/221/14
f 74/218/79 76/222/80 75/223/77
f 76/224/80 9/214/9 75/213/77
f 76/225/80 77/226/81 9/227/9
f 74/218/79 77/228/81 76/222/80
f 77/226/81 73/229/78 5/230/5
f 77/228/81 74/218/79 73/215/78
f 9/227/9 77/226/81 5/230/5
f 5/231/5 73/232/78 12/233/13
