# Blender 4.5.3 LTS
# www.blender.org
o gibs.009
v -0.248081 0.739086 0.045536
v -0.292833 0.670009 0.070192
v -0.244337 0.808848 0.109564
v -0.333039 0.721519 0.104404
v -0.220068 0.773052 0.177383
v -0.200540 0.684841 0.173185
v -0.231761 0.658577 0.198081
v -0.266093 0.673578 0.218335
v -0.347437 0.782628 0.274111
v -0.330211 0.658180 0.251833
v -0.316259 0.603088 0.201355
v -0.276264 0.590146 0.198578
v -0.390564 0.728988 0.324863
v -0.310845 0.787487 0.213645
v -0.334985 0.805862 0.242012
v -0.295878 0.803499 0.176164
v -0.344096 0.794234 0.187198
v -0.442091 0.779878 0.183711
v -0.365934 0.861579 0.232956
v -0.514276 0.888173 0.310476
v -0.440368 0.879969 0.289984
v -0.323862 0.897573 0.252308
v -0.325053 0.945775 0.288840
v -0.207980 1.038666 0.330070
v -0.284431 0.899002 0.297955
v -0.214762 1.081571 0.365672
v -0.342625 0.964080 0.324420
v -0.238235 0.977734 0.321161
v -0.149954 1.026268 0.368865
v -0.265968 0.904492 0.350688
v -0.238241 0.954698 0.372287
v -0.296368 0.973766 0.401627
v -0.312865 0.910131 0.381236
v -0.160401 1.046771 0.437636
v -0.131688 1.050203 0.414164
v -0.185941 1.072179 0.444394
v -0.141463 1.099301 0.456028
v -0.181040 1.112508 0.483226
v -0.172942 1.168210 0.496688
v -0.172071 1.166417 0.523523
v -0.172376 1.119462 0.450691
v -0.139106 1.145637 0.510118
v -0.140815 1.199707 0.549132
v -0.142396 1.181053 0.494695
v -0.128531 1.199419 0.538975
v -0.161442 1.194991 0.526105
v -0.200321 1.195472 0.544305
v -0.199606 1.200048 0.561853
v -0.148066 1.111153 0.427118
v -0.118051 1.177115 0.362955
v -0.141209 1.133438 0.362892
v -0.152106 1.187646 0.408417
v -0.178316 1.109573 0.420188
v -0.181973 1.132640 0.386454
v -0.223380 1.060159 0.429026
v -0.328300 0.984187 0.364444
v -0.419636 0.871631 0.342032
v -0.487102 0.908280 0.361329
v -0.454640 0.876983 0.392999
v -0.396193 0.814309 0.344459
v -0.454476 0.843710 0.428744
v -0.479065 0.798027 0.442266
v -0.489901 0.975407 0.498910
v -0.508991 0.923322 0.492356
v -0.623611 0.998052 0.572107
v -0.628040 1.041572 0.626394
v -0.548251 0.919119 0.505944
v -0.538582 1.025393 0.542270
v -0.548922 1.039307 0.508540
v -0.643708 1.114387 0.669469
v -0.656530 1.093568 0.706223
v -0.477274 1.075232 0.549834
v -0.519376 1.071376 0.538476
v -0.495741 1.115269 0.522018
v -0.503878 1.143780 0.557120
v -0.482153 1.140115 0.582105
v -0.460121 1.150834 0.584065
v -0.470154 1.170936 0.570047
v -0.430968 1.205665 0.586829
v -0.423515 1.202557 0.575141
v -0.472131 1.148410 0.554535
v -0.467757 1.088760 0.530734
v -0.508905 1.191198 0.540080
v -0.526385 1.178756 0.535000
v -0.477946 1.029124 0.502818
v -0.517516 1.005639 0.460546
v -0.588271 0.984661 0.451764
v -0.485099 0.973566 0.447310
v -0.534796 0.973562 0.405617
v -0.598287 1.044064 0.508350
v -0.729335 1.143763 0.708935
v -0.646837 1.026941 0.550796
v -0.712157 1.066095 0.690726
v -0.590688 0.934982 0.481580
v -0.748481 1.121648 0.713788
v -0.745730 1.126243 0.823992
v -0.719647 1.116324 0.738749
v -0.739636 1.145437 0.802858
v -0.701352 1.139963 0.724703
v -0.555330 0.857733 0.318778
v -0.552246 0.838908 0.458029
v -0.555176 0.799174 0.346384
v -0.420658 0.665810 0.254775
v -0.467311 0.709672 0.194336
v -0.497597 0.755470 0.369796
v -0.421337 0.650929 0.160944
v -0.422014 0.638865 0.212650
v -0.440916 0.720542 0.159201
v -0.295589 0.620897 0.085750
v -0.279626 0.552009 0.121828
v -0.372429 0.620044 0.181456
v -0.163974 1.139121 0.362326
v -0.134270 1.312189 0.382967
v -0.146336 1.305267 0.407117
v -0.114595 1.312775 0.411997
vn -0.6914 -0.0615 -0.7199
vn -0.5072 0.3313 -0.7956
vn -0.5743 0.4174 -0.7043
vn 0.6415 -0.5904 -0.4898
vn -0.3455 0.8934 -0.2872
vn 0.9526 0.1763 -0.2478
vn 0.9410 0.2205 -0.2567
vn 0.5087 -0.0987 0.8553
vn 0.5014 -0.0204 0.8650
vn 0.5535 0.0952 0.8274
vn 0.4651 -0.8341 -0.2966
vn 0.4495 0.5154 0.7296
vn 0.5128 0.7244 0.4607
vn 0.4646 -0.4650 0.7536
vn 0.8278 -0.1421 0.5427
vn 0.2281 -0.6331 0.7397
vn -0.1895 -0.7141 0.6739
vn -0.0727 -0.6050 0.7929
vn -0.0729 0.9970 0.0245
vn 0.9739 0.2092 -0.0879
vn 0.0602 0.8350 -0.5470
vn -0.4594 0.4702 -0.7536
vn 0.0577 0.5428 -0.8379
vn 0.3910 0.3695 -0.8430
vn -0.2774 0.7156 -0.6410
vn -0.1260 0.9585 -0.2559
vn -0.0606 0.5839 -0.8096
vn -0.6808 0.6699 -0.2963
vn 0.1743 0.2351 -0.9562
vn 0.6126 -0.3068 -0.7285
vn -0.5378 0.7536 -0.3780
vn 0.8168 -0.1505 -0.5570
vn 0.7889 -0.5065 -0.3480
vn 0.6150 -0.7006 0.3618
vn 0.7499 -0.5969 0.2852
vn 0.3109 -0.6176 0.7225
vn -0.3032 -0.0658 0.9507
vn 0.1019 -0.4218 0.9009
vn 0.8802 -0.4288 0.2033
vn 0.8918 -0.2381 0.3846
vn -0.4305 -0.2720 0.8606
vn -0.7469 -0.3993 0.5317
vn -0.7695 0.4476 -0.4556
vn -0.7169 0.6117 -0.3343
vn -0.4624 -0.6115 0.6420
vn 0.7101 -0.4856 0.5098
vn 0.4726 0.6335 -0.6127
vn 0.0378 0.4662 0.8839
vn 0.8041 0.5310 0.2673
vn -0.2702 0.9594 0.0807
vn -0.9514 0.2373 -0.1961
vn -0.4198 0.3354 0.8434
vn 0.8434 0.5160 0.1500
vn 0.8403 -0.0431 -0.5404
vn 0.6701 -0.1076 -0.7344
vn -0.0870 0.1841 0.9791
vn -0.6870 0.6793 0.2581
vn -0.8993 0.4374 0.0016
vn -0.6390 0.4248 0.6413
vn -0.7155 0.6377 0.2852
vn 0.0774 0.6718 0.7366
vn 0.5199 0.7822 -0.3433
vn 0.8522 0.4878 0.1892
vn 0.6316 -0.1755 0.7551
vn 0.8210 0.0187 0.5706
vn 0.2420 -0.5847 0.7743
vn 0.4506 -0.3001 0.8408
vn 0.7876 -0.2339 0.5700
vn -0.0617 -0.5177 0.8533
vn -0.4511 -0.8099 0.3750
vn 0.3346 -0.7001 0.6309
vn 0.4599 0.1060 0.8816
vn 0.6068 -0.2005 0.7692
vn -0.2158 0.9009 -0.3765
vn 0.6068 0.7872 0.1098
vn -0.7157 0.2881 0.6363
vn 0.5219 -0.4077 0.7492
vn -0.3859 -0.0299 0.9221
vn -0.8140 0.1561 0.5595
vn -0.1935 0.4089 -0.8918
vn -0.6517 0.7460 -0.1369
vn 0.6080 -0.3650 0.7051
vn 0.2469 0.7789 0.5765
vn 0.8014 0.4972 -0.3326
vn 0.6500 0.4163 -0.6357
vn 0.0429 0.9991 -0.0056
vn 0.9411 0.0236 -0.3372
vn -0.8703 0.4263 -0.2467
vn 0.1360 0.7116 -0.6893
vn 0.9585 0.0287 -0.2836
vn -0.0186 0.7688 -0.6392
vn -0.6961 0.3954 -0.5993
vn -0.2924 0.7440 -0.6008
vn 0.8105 0.4911 -0.3192
vn -0.8919 -0.1303 -0.4331
vn -0.3575 0.8696 -0.3405
vn -0.9891 -0.0613 -0.1339
vn -0.4771 -0.8198 0.3168
vn -0.8911 -0.4400 0.1106
vn 0.0335 0.8292 0.5579
vn 0.2398 -0.7387 0.6299
vn -0.1733 -0.1931 0.9658
vn 0.5574 0.7494 0.3573
vn -0.8253 0.2000 -0.5281
vn -0.8850 -0.4629 -0.0497
vn -0.5720 -0.5839 0.5760
vn -0.3769 -0.7950 0.4753
vn -0.3727 -0.8384 0.3978
vn -0.8691 -0.3500 -0.3496
vn -0.6285 0.0603 -0.7755
vn -0.5309 -0.8164 0.2273
vn -0.6793 -0.5344 -0.5030
vn -0.5754 -0.3075 -0.7578
vn -0.5393 -0.8245 -0.1712
vn 0.9790 0.1622 -0.1235
vn 0.8797 -0.1878 -0.4369
vn 0.8037 -0.5247 -0.2807
vn -0.4071 -0.8742 0.2646
vn -0.3985 0.2990 -0.8670
vn -0.1129 0.7060 -0.6992
vn 0.6248 0.6224 0.4715
vn -0.7909 0.4460 0.4189
vt 0.325233 0.509979
vt 0.313681 0.495331
vt 0.340640 0.495262
vt 0.000000 0.000000
vt 0.336820 0.481151
vt 0.751898 0.202718
vt 0.749745 0.214941
vt 0.739359 0.220700
vt 0.722179 0.206722
vt 0.729075 0.183243
vt 0.757658 0.163284
vt 0.738665 0.170275
vt 0.762293 0.189992
vt 0.769109 0.203451
vt 0.766255 0.212438
vt 0.721225 0.187943
vt 0.729342 0.173727
vt 0.171759 0.907282
vt 0.174307 0.898412
vt 0.184060 0.900356
vt 0.178156 0.889312
vt 0.197479 0.884995
vt 0.198867 0.917743
vt 0.176093 0.908487
vt 0.923060 0.180836
vt 0.915937 0.191336
vt 0.912532 0.177961
vt 0.911518 0.161002
vt 0.856646 0.778059
vt 0.829839 0.794334
vt 0.841836 0.780738
vt 0.862209 0.795837
vt 0.852203 0.750768
vt 0.860759 0.756857
vt 0.844316 0.712822
vt 0.848662 0.720511
vt 0.909540 0.147092
vt 0.914432 0.115878
vt 0.919828 0.129268
vt 0.841501 0.751341
vt 0.922912 0.151248
vt 0.325972 0.931454
vt 0.328795 0.907819
vt 0.343604 0.913536
vt 0.965194 0.744554
vt 0.976793 0.765161
vt 0.965194 0.769092
vt 0.929895 0.140584
vt 0.930701 0.126636
vt 0.371543 0.925453
vt 0.388684 0.923332
vt 0.377206 0.948687
vt 0.388334 0.959147
vt 0.414818 0.919693
vt 0.432647 0.921888
vt 0.427361 0.935317
vt 0.418478 0.938305
vt 0.379396 0.916628
vt 0.645082 0.977985
vt 0.652511 0.981962
vt 0.647629 0.989272
vt 0.957749 0.033553
vt 0.953455 0.032653
vt 0.958709 0.020003
vt 0.968555 0.047940
vt 0.953455 0.061376
vt 0.962200 0.044484
vt 0.652511 0.968218
vt 0.966365 0.007891
vt 0.963985 0.023926
vt 0.962328 0.003437
vt 0.983249 0.189630
vt 0.987198 0.200844
vt 0.978411 0.195589
vt 0.978411 0.208511
vt 0.975585 0.401410
vt 0.973904 0.423631
vt 0.968491 0.403771
vt 0.980385 0.907468
vt 0.973488 0.909776
vt 0.973488 0.902867
vt 0.965816 0.436909
vt 0.971237 0.437539
vt 0.965816 0.443352
vt 0.974511 0.393710
vt 0.877653 0.958227
vt 0.871431 0.959412
vt 0.869039 0.952277
vt 0.862209 0.952263
vt 0.868309 0.969603
vt 0.514019 0.979485
vt 0.516251 0.992177
vt 0.511645 0.991097
vt 0.993322 0.219675
vt 0.996994 0.226099
vt 0.993299 0.229067
vt 0.864716 0.968591
vt 0.672955 0.898363
vt 0.674233 0.903716
vt 0.671868 0.911077
vt 0.993966 0.593730
vt 0.991505 0.588770
vt 0.995779 0.581430
vt 0.967930 -0.000000
vt 0.138610 0.966851
vt 0.128103 0.950495
vt 0.136427 0.950799
vt 0.966466 0.424482
vt 0.335700 0.878382
vt 0.346735 0.889142
vt 0.335434 0.888726
vt 0.579954 0.943104
vt 0.591112 0.943116
vt 0.588311 0.962408
vt 0.351341 0.903283
vt 0.975585 0.436909
vt 0.594089 0.962967
vt 0.130984 0.963209
vt 0.132501 0.971301
vt 0.953095 0.605663
vt 0.938192 0.594920
vt 0.947253 0.591177
vt 0.834535 0.705380
vt 0.827554 0.710315
vt 0.944142 0.574482
vt 0.967930 0.038718
vt 0.961287 0.038698
vt 0.847786 0.879666
vt 0.855189 0.901536
vt 0.845727 0.897300
vt 0.832323 0.738932
vt 0.967672 0.053602
vt 0.831841 0.750518
vt 0.851919 0.932051
vt 0.861131 0.935343
vt 0.820563 0.783998
vt 0.831631 0.772288
vt 0.816587 0.775566
vt 0.840720 0.913638
vt 0.730029 0.140160
vt 0.735920 0.127802
vt 0.740948 0.151011
vt 0.840720 0.941927
vt 0.432647 0.959791
vt 0.746197 0.128244
vt 0.231832 0.811710
vt 0.231832 0.839597
vt 0.213758 0.827162
vt 0.759379 0.126997
vt 0.740031 0.102000
vt 0.895058 0.919973
vt 0.885586 0.915613
vt 0.889792 0.894245
vt 0.727093 0.099613
vt 0.743612 0.093822
vt 0.366554 0.793039
vt 0.356363 0.812494
vt 0.359627 0.780430
vt 0.737838 0.063778
vt 0.733112 0.053189
vt 0.722973 0.081272
vt 0.730885 0.034640
vt 0.925232 0.415503
vt 0.930314 0.368828
vt 0.929179 0.411299
vt 0.369749 0.960840
vt 0.361143 0.962642
vt 0.362765 0.950604
vt 0.722582 0.038593
vt 0.707556 0.086685
vt 0.710426 0.080098
vt 0.490367 0.981916
vt 0.490367 0.996954
vt 0.485890 0.984661
vt 0.362184 0.931736
vt 0.368212 0.946504
vt 0.354542 0.930782
vt 0.357543 0.924074
vt 0.336897 0.989957
vt 0.338095 0.978356
vt 0.342132 0.980955
vt 0.336897 0.966736
vt 0.354281 0.916540
vt 0.235464 0.960228
vt 0.232277 0.973305
vt 0.232277 0.960113
vt 0.632356 0.985920
vt 0.632356 0.998247
vt 0.628250 0.986742
vt 0.997814 0.195840
vt 0.993106 0.194788
vt 0.994704 0.183227
vt 0.985993 0.267876
vt 0.985303 0.253117
vt 0.991541 0.261946
vt 0.992945 0.808077
vt 0.992945 0.794671
vt 0.998078 0.805028
vt 0.124534 0.990736
vt 0.129671 0.994718
vt 0.124534 0.997921
vt 0.873822 0.833138
vt 0.883923 0.840406
vt 0.887236 0.855335
vt 0.892165 0.835963
vt 0.880484 0.851210
vt 0.089184 0.975928
vt 0.088850 0.994256
vt 0.084557 0.975928
vt 0.368020 0.921378
vt 0.371543 0.925293
vt 0.365957 0.941284
vt 0.878017 0.871699
vt 0.890431 0.850731
vt 0.716163 0.097441
vt 0.701668 0.089319
vt 0.886885 0.874663
vt 0.922024 0.426937
vt 0.911276 0.439560
vt 0.906664 0.422762
vt 0.915035 0.409280
vt 0.881373 0.889842
vt 0.926853 0.437211
vt 0.964980 0.241756
vt 0.968391 0.257403
vt 0.956439 0.260102
vt 0.944816 0.891300
vt 0.938647 0.906120
vt 0.932646 0.881755
vt 0.918116 0.349306
vt 0.932804 0.835833
vt 0.139747 0.895569
vt 0.139747 0.926774
vt 0.128103 0.902334
vt 0.129941 0.926488
vt 0.925574 0.909990
vt 0.131300 0.950495
vt 0.926321 0.835804
vt 0.927867 0.328285
vt 0.916834 0.341439
vt 0.985843 0.163569
vt 0.986273 0.152977
vt 0.991488 0.155902
vt 0.207728 0.987245
vt 0.207728 0.966754
vt 0.212302 0.970635
vt 0.055145 0.945277
vt 0.060561 0.967197
vt 0.049136 0.948706
vt 0.740063 0.001632
vt 0.731541 0.017259
vt 0.733786 0.002642
vt 0.725551 0.018521
vt 0.926401 0.349673
vt 0.062330 0.932306
vt 0.047739 0.938950
vt 0.973499 0.393118
vt 0.962400 0.371264
vt 0.973499 0.369193
vt 0.931171 0.477868
vt 0.916624 0.450057
vt 0.928547 0.443362
vt 0.919367 0.491333
vt 0.905819 0.448528
vt 0.904478 0.471637
vt 0.878839 0.046551
vt 0.881296 0.080769
vt 0.873741 0.086897
vt 0.911286 0.520711
vt 0.929378 0.527925
vt 0.240706 0.460914
vt 0.247951 0.451769
vt 0.275277 0.490625
vt 0.904478 0.498187
vt 0.895657 0.056731
vt 0.896894 0.092954
vt 0.886015 0.106195
vt 0.287311 0.488939
vt 0.910862 0.539654
vt 0.922035 0.543717
vt 0.286014 0.508651
vt 0.269131 0.451415
vt 0.285418 0.475213
vt 0.320727 0.521897
vt 0.317178 0.539372
vt 0.863435 0.027534
vt 0.882648 0.000050
vt 0.874821 0.025112
vt 0.888206 0.021487
vt 0.895558 0.014449
vt 0.977302 0.824224
vt 0.986208 0.809214
vt 0.986208 0.831554
vt 0.869884 0.038360
vt 0.894740 0.033591
vt 0.757632 0.106132
vt 0.835839 0.971458
vt 0.835839 0.941927
vt 0.848498 0.953757
vt 0.848201 0.974899
vt 0.368413 0.759232
vt 0.356363 0.758251
vt 0.866671 0.895596
vt 0.872218 0.912622
vt 0.862209 0.919973
vt 0.202230 0.985243
vt 0.198798 0.996809
vt 0.196136 0.985243
vt 0.924027 0.197394
vt 0.932148 0.238296
vt 0.927435 0.242397
vt 0.953095 0.564099
vt 0.939651 0.228295
vt 0.325972 0.844199
vt 0.332994 0.841861
vt 0.949105 0.547972
vt 0.054429 0.992850
vt 0.060324 0.989188
vt 0.060324 0.996765
vt 0.589259 0.912771
vt 0.594089 0.914736
vt 0.933451 0.261352
vt 0.928834 0.255381
vt 0.938358 0.238151
vt 0.932066 0.147332
vt 0.930760 0.180777
vt 0.170461 0.871928
vt 0.182207 0.869030
s 1
f 2/1/1 4/2/2 1/3/3
s 0
f 1/4/4 6/4/4 2/4/4
s 1
f 4/2/2 3/5/5 1/3/3
s 0
f 5/4/6 1/4/6 3/4/6
f 5/4/7 6/4/7 1/4/7
s 1
f 8/6/8 7/7/9 6/8/10
s 0
f 6/4/11 7/4/11 2/4/11
s 1
f 6/8/10 5/9/12 8/6/8
f 5/9/12 14/10/13 8/6/8
f 13/11/14 8/6/8 9/12/15
f 8/6/8 14/10/13 9/12/15
f 10/13/16 11/14/17 8/6/8
f 13/11/14 10/13/16 8/6/8
f 12/15/18 7/7/9 8/6/8
f 12/15/18 8/6/8 11/14/17
f 5/9/12 16/16/19 14/10/13
f 9/12/15 14/10/13 15/17/20
f 15/18/20 14/19/13 17/20/21
f 14/19/13 16/21/19 17/20/21
f 16/21/19 4/22/2 17/20/21
f 4/22/2 18/23/22 17/20/21
f 18/23/22 19/24/23 17/20/21
f 15/25/20 17/26/21 19/27/23
f 19/27/23 22/28/24 15/25/20
f 19/29/23 20/30/25 21/31/26
f 20/30/25 19/29/23 18/32/22
f 21/31/26 23/33/27 19/29/23
f 22/34/24 19/29/23 23/33/27
f 23/33/27 26/35/28 24/36/29
f 23/37/27 24/38/29 28/39/30
f 21/31/26 27/40/31 23/33/27
f 23/37/27 25/41/32 22/28/24
f 28/39/30 25/41/32 23/37/27
f 23/33/27 27/40/31 26/35/28
f 28/42/30 24/43/29 29/44/33
f 29/45/33 31/46/34 28/47/30
f 30/48/35 28/39/30 31/49/34
f 28/39/30 30/48/35 25/41/32
f 29/50/33 34/51/36 31/52/34
f 31/52/34 34/51/36 32/53/37
f 31/54/34 32/55/37 33/56/38
f 30/57/35 31/54/34 33/56/38
f 29/50/33 35/58/39 34/51/36
f 37/59/40 34/60/36 35/61/39
f 36/62/41 34/63/36 38/64/42
f 36/65/41 32/66/37 34/67/36
f 37/59/40 38/68/42 34/60/36
f 39/69/43 41/70/44 38/64/42
f 39/69/43 38/64/42 40/71/45
f 40/72/45 38/73/42 42/74/46
f 38/64/42 41/70/44 36/62/41
f 38/73/42 37/75/40 42/74/46
f 42/76/46 37/77/40 44/78/47
f 43/79/48 40/80/45 42/81/46
f 45/82/49 43/83/48 42/84/46
f 42/76/46 44/78/47 45/85/49
f 44/86/47 46/87/50 45/88/49
f 45/88/49 46/87/50 43/89/48
f 46/87/50 44/86/47 47/90/51
f 48/91/52 40/92/45 46/93/50
f 43/94/48 46/95/50 40/96/45
f 47/90/51 48/97/52 46/87/50
f 48/98/52 47/99/51 40/100/45
f 44/101/47 39/102/43 47/103/51
f 40/71/45 47/104/51 39/69/43
f 49/105/53 39/106/43 44/107/47
f 44/78/47 37/77/40 49/108/53
f 50/109/54 49/110/53 51/111/55
f 50/112/54 52/113/56 49/114/53
f 35/115/39 51/111/55 49/110/53
f 35/116/39 49/108/53 37/77/40
f 52/113/56 53/117/57 49/114/53
f 41/118/44 49/105/53 53/119/57
f 41/118/44 39/106/43 49/105/53
f 26/120/28 53/121/57 54/122/58
f 53/123/57 26/35/28 55/124/59
f 52/125/56 54/122/58 53/121/57
f 41/70/44 53/126/57 55/127/59
f 55/128/59 56/129/60 32/130/37
f 26/35/28 56/131/60 55/124/59
f 55/127/59 36/62/41 41/70/44
f 55/132/59 32/66/37 36/65/41
f 26/35/28 27/40/31 56/131/60
f 21/31/26 56/133/60 27/40/31
f 57/134/61 32/130/37 56/129/60
f 21/135/26 57/134/61 56/129/60
f 58/136/62 57/137/61 21/31/26
f 59/138/63 57/137/61 58/136/62
f 32/130/37 57/134/61 33/139/38
f 57/140/61 59/141/63 60/142/64
f 57/134/61 60/143/64 33/139/38
f 60/144/64 30/57/35 33/56/38
f 61/145/65 60/142/64 59/141/63
f 60/142/64 61/145/65 13/11/14
f 60/142/64 13/11/14 9/12/15
f 30/146/35 60/147/64 9/148/15
f 62/149/66 13/11/14 61/145/65
f 61/145/65 64/150/67 62/149/66
f 61/151/65 59/152/63 63/153/68
f 61/145/65 63/154/68 64/150/67
f 67/155/69 62/149/66 64/150/67
f 65/156/70 64/157/67 66/158/71
f 65/159/70 67/155/69 64/150/67
f 66/160/71 64/150/67 68/161/72
f 68/161/72 64/150/67 63/154/68
f 66/160/71 68/161/72 71/162/73
f 69/163/74 70/164/75 68/165/72
f 69/166/74 68/167/72 73/168/76
f 71/162/73 68/161/72 70/169/75
f 72/170/77 68/161/72 63/154/68
f 68/161/72 72/170/77 73/171/76
f 76/172/78 73/173/76 72/174/77
f 75/175/79 74/176/80 73/168/76
f 69/166/74 73/168/76 74/176/80
f 75/175/79 73/168/76 76/177/78
f 78/178/81 75/175/79 76/177/78
f 72/179/77 77/180/82 76/181/78
f 77/180/82 79/182/83 76/181/78
f 79/183/83 78/178/81 76/177/78
f 79/184/83 77/185/82 80/186/84
f 80/187/84 78/188/81 79/189/83
f 81/190/85 78/191/81 80/192/84
f 81/193/85 80/194/84 77/195/82
f 81/196/85 83/197/86 75/198/79
f 78/199/81 81/200/85 75/201/79
f 83/202/86 81/203/85 82/204/87
f 81/203/85 77/205/82 82/204/87
f 83/202/86 82/204/87 74/206/80
f 83/207/86 74/208/80 84/209/88
f 75/175/79 83/210/86 84/211/88
f 75/175/79 84/211/88 74/212/80
f 82/204/87 86/213/89 74/206/80
f 82/204/87 77/205/82 72/214/77
f 72/170/77 85/215/90 82/216/87
f 86/213/89 82/204/87 85/217/90
f 86/218/89 89/219/91 87/220/92
f 90/221/93 86/218/89 87/220/92
f 86/213/89 85/217/90 88/222/94
f 89/219/91 86/218/89 88/223/94
f 86/218/89 90/221/93 69/163/74
f 74/224/80 86/225/89 69/226/74
f 90/227/93 87/228/92 92/229/95
f 90/221/93 91/230/96 69/163/74
f 91/231/96 90/227/93 92/229/95
f 95/232/97 92/233/95 93/234/98
f 65/235/70 93/234/98 92/233/95
f 94/236/99 92/229/95 87/228/92
f 94/237/99 65/235/70 92/233/95
f 92/229/95 95/238/97 91/231/96
f 98/239/100 91/230/96 95/240/97
f 93/241/98 97/242/101 95/243/97
f 95/244/97 96/245/102 98/246/100
f 97/247/101 96/248/102 95/249/97
f 96/250/102 97/251/101 98/252/100
f 97/251/101 99/253/103 98/252/100
f 98/239/100 99/254/103 91/230/96
f 91/230/96 99/254/103 70/164/75
f 70/169/75 99/253/103 71/162/73
f 97/251/101 71/162/73 99/253/103
f 71/255/73 97/247/101 93/256/98
f 65/257/70 94/258/99 67/259/69
f 100/260/104 94/261/99 87/262/92
f 102/263/105 94/261/99 100/260/104
f 67/264/69 94/261/99 101/265/106
f 101/265/106 94/261/99 102/263/105
f 103/266/107 105/267/108 102/268/105
f 103/269/107 102/263/105 104/270/109
f 102/271/105 100/272/104 104/273/109
f 102/263/105 105/274/108 101/265/106
f 103/266/107 13/275/14 105/267/108
f 62/276/66 105/267/108 13/275/14
f 101/277/106 105/267/108 62/276/66
f 108/278/110 104/273/109 100/272/104
f 107/279/111 104/270/109 106/280/112
f 106/281/112 104/273/109 108/278/110
f 103/269/107 104/270/109 107/279/111
f 108/278/110 100/272/104 20/282/25
f 18/283/22 108/278/110 20/282/25
f 4/2/2 108/278/110 18/283/22
f 108/278/110 4/2/2 109/284/113
f 108/278/110 109/284/113 106/281/112
f 109/284/113 110/285/114 106/281/112
s 0
f 12/4/115 110/4/115 109/4/115
s 1
f 2/1/1 109/284/113 4/2/2
s 0
f 7/4/116 109/4/116 2/4/116
f 7/4/117 12/4/117 109/4/117
s 1
f 106/286/112 110/287/114 111/288/118
f 110/287/114 11/289/17 111/288/118
f 11/289/17 110/287/114 12/290/18
f 11/291/17 10/292/16 111/293/118
f 111/288/118 107/294/111 106/286/112
f 10/295/16 107/294/111 111/288/118
f 10/295/16 103/266/107 107/294/111
f 103/266/107 10/295/16 13/275/14
f 62/149/66 67/155/69 101/296/106
f 100/297/104 87/298/92 89/299/91
f 100/297/104 89/299/91 20/300/25
f 66/158/71 93/301/98 65/156/70
f 71/302/73 93/301/98 66/158/71
f 69/163/74 91/230/96 70/164/75
f 89/303/91 58/304/62 20/305/25
f 89/303/91 88/222/94 58/304/62
f 58/304/62 88/222/94 59/152/63
f 59/152/63 88/222/94 63/153/68
f 85/217/90 63/153/68 88/222/94
f 63/154/68 85/215/90 72/170/77
f 58/136/62 21/31/26 20/30/25
f 112/306/119 26/307/28 54/308/58
f 113/309/120 112/310/119 54/311/58
f 54/122/58 52/125/56 113/312/120
f 50/313/54 112/310/119 113/309/120
f 50/109/54 113/314/120 115/315/121
f 52/125/56 114/316/122 113/312/120
f 114/317/122 115/318/121 113/319/120
f 50/112/54 115/320/121 52/113/56
f 115/320/121 114/321/122 52/113/56
f 24/322/29 26/323/28 112/310/119
f 51/324/55 24/322/29 112/310/119
f 50/313/54 51/324/55 112/310/119
f 29/44/33 24/43/29 51/111/55
f 29/44/33 51/111/55 35/115/39
f 25/41/32 30/325/35 9/326/15
f 25/41/32 15/25/20 22/28/24
f 15/25/20 25/41/32 9/326/15
f 5/327/12 3/328/5 16/21/19
f 4/22/2 16/21/19 3/328/5
