# Blender 4.5.3 LTS
# www.blender.org
o gibs.006
v 0.345261 1.720480 0.340639
v 0.313428 1.674796 0.282293
v 0.342677 1.708686 0.346090
v 0.324255 1.694647 0.277466
v 0.342425 1.681521 0.284903
v 0.341371 1.619112 0.269395
v 0.364199 1.690328 0.263352
v 0.324543 1.663708 0.295333
v 0.292965 1.643996 0.279784
v 0.291705 1.609158 0.295081
v 0.262780 1.528577 0.274888
v 0.242724 1.651116 0.260818
v 0.257444 1.705677 0.301965
v 0.285560 1.687170 0.290934
v 0.269482 1.683244 0.269218
v 0.260447 1.748576 0.292613
v 0.261968 1.756848 0.307677
v 0.247587 1.725278 0.280403
v 0.284145 1.639284 0.253750
v 0.276263 1.591039 0.219794
v 0.317843 1.643124 0.241260
v 0.309663 1.512436 0.225987
v 0.310741 1.501157 0.202257
v 0.336836 1.706128 0.247279
v 0.385173 1.747482 0.244399
v 0.302990 1.509155 0.258882
v 0.350354 1.533254 0.169533
v 0.300652 1.441876 0.195196
v 0.249258 1.560995 0.226332
v 0.295099 1.503272 0.169280
v 0.369885 1.511627 0.186737
v 0.354936 1.504092 0.157425
v 0.284182 1.437099 0.168789
v 0.268452 1.360135 0.199122
v 0.248236 1.317290 0.135119
v 0.264974 1.449924 0.155474
v 0.222708 1.459918 0.168872
v 0.215124 1.304163 0.124504
v 0.192481 1.413404 0.225148
v 0.187992 1.328399 0.131679
v 0.164856 1.349492 0.171966
v 0.120056 1.252770 0.163493
v 0.143608 1.247333 0.101233
v 0.086465 1.170154 0.098996
v 0.156952 1.213086 0.079428
v 0.207883 1.302495 0.078786
v 0.222666 1.285993 0.054918
v 0.228697 1.307235 0.113745
v 0.245114 1.390071 0.081757
v 0.287193 1.414749 0.060997
v 0.277329 1.421862 0.093210
v 0.265651 1.392337 0.048691
v 0.270703 1.436922 0.068543
v 0.286716 1.471300 0.081252
v 0.279475 1.340551 0.052959
v 0.258831 1.420782 0.001936
v 0.278834 1.414813 0.006338
v 0.292769 1.407277 0.030801
v 0.301000 1.391330 0.073529
v 0.265596 1.450366 -0.010250
v 0.298687 1.348737 0.081458
v 0.248741 1.244274 0.099304
v 0.260399 1.281483 0.054040
v 0.209443 1.212358 0.079721
v 0.203632 1.120685 0.114001
v 0.081915 1.056960 0.004164
v 0.151725 1.043875 0.031483
v 0.236912 1.197081 0.169234
v 0.162070 1.111623 0.172130
v 0.212015 1.289704 0.233760
v 0.091579 1.153472 0.169629
v 0.123498 1.232858 0.188361
v 0.210298 1.337776 0.241729
v 0.247292 1.322088 0.234133
v 0.228338 1.373588 0.314575
v 0.301390 1.397584 0.377194
v 0.282533 1.442564 0.377656
v 0.217660 1.407894 0.265107
v 0.266185 1.424848 0.253941
v 0.246264 1.442003 0.259039
v 0.263023 1.414545 0.293111
v 0.289348 1.368406 0.287993
v 0.312519 1.446051 0.368413
v 0.351874 1.497763 0.422776
v 0.306058 1.448143 0.409943
v 0.257351 1.277094 0.175967
vn -0.8739 0.3985 0.2783
vn 0.2649 0.8311 0.4890
vn -0.4911 0.8711 0.0036
vn 0.0619 -0.1306 0.9895
vn 0.7266 0.1202 0.6764
vn 0.0622 0.1782 0.9820
vn 0.9398 -0.2943 0.1736
vn 0.9588 0.1096 0.2621
vn -0.0109 -0.1809 0.9834
vn 0.3780 0.8936 0.2418
vn -0.9246 0.2687 -0.2701
vn -0.3713 -0.0677 0.9260
vn -0.4792 -0.0512 0.8762
vn 0.9231 0.2994 0.2413
vn 0.1415 0.4761 -0.8680
vn 0.2683 0.8248 -0.4977
vn -0.7932 0.2034 -0.5739
vn 0.1787 0.7967 0.5774
vn 0.0337 0.7158 -0.6975
vn -0.1799 0.3007 -0.9366
vn 0.0848 0.3476 -0.9338
vn 0.8150 0.4275 0.3911
vn 0.9743 -0.2040 0.0955
vn -0.5137 0.7758 -0.3664
vn 0.5602 0.8210 -0.1097
vn 0.6924 -0.2961 0.6579
vn 0.8649 -0.4933 0.0926
vn 0.9059 0.1134 0.4081
vn 0.1997 0.9526 -0.2296
vn -0.1074 0.5985 -0.7939
vn -0.8429 0.2802 -0.4594
vn 0.5241 -0.1494 -0.8384
vn 0.6847 -0.2527 -0.6836
vn 0.1315 0.1532 -0.9794
vn 0.9680 -0.2468 -0.0446
vn 0.7021 0.0087 -0.7120
vn -0.6180 0.4126 -0.6692
vn -0.1972 0.7449 -0.6373
vn -0.3127 0.4136 -0.8551
vn -0.9050 0.3067 0.2947
vn -0.8409 0.4438 -0.3097
vn -0.6386 0.4745 -0.6058
vn -0.9042 0.4196 0.0794
vn -0.7394 0.5091 -0.4406
vn -0.7764 0.5467 -0.3136
vn -0.3052 0.3297 -0.8934
vn -0.3654 0.0423 -0.9299
vn -0.8705 0.4847 0.0853
vn 0.1103 0.8855 0.4513
vn -0.7673 0.2165 -0.6037
vn 0.5021 0.8195 -0.2764
vn -0.7199 0.4505 -0.5280
vn 0.1413 0.4434 0.8851
vn 0.2015 0.9685 0.1464
vn 0.4886 -0.2315 -0.8412
vn -0.9127 -0.1184 -0.3911
vn 0.8081 0.1431 -0.5714
vn 0.4864 -0.5090 -0.7102
vn 0.9252 -0.2092 0.3167
vn 0.9565 0.1731 0.2346
vn -0.1822 0.8514 -0.4919
vn 0.9312 -0.3357 -0.1416
vn 0.5226 -0.3799 -0.7633
vn 0.4159 -0.2443 -0.8760
vn 0.5299 0.0606 -0.8459
vn 0.9085 -0.3988 -0.1248
vn 0.1002 0.3216 -0.9416
vn -0.3928 -0.5368 0.7467
vn -0.3442 -0.5948 0.7265
vn 0.8236 -0.4060 0.3961
vn 0.2932 -0.4765 0.8288
vn 0.3218 0.8731 0.3662
vn 0.1266 -0.3289 0.9359
vn -0.7129 0.0226 0.7009
vn -0.4992 -0.8507 -0.1648
vn -0.7164 0.1788 0.6744
vn -0.5583 -0.3120 0.7687
vn 0.5642 -0.6404 0.5212
vn -0.7055 -0.3762 0.6006
vn -0.6023 0.6283 0.4923
vn 0.3472 -0.6866 0.6388
vn -0.7837 0.5458 0.2965
vn 0.3973 0.8891 -0.2271
vn -0.1460 -0.0043 0.9893
vn 0.7637 0.1547 0.6268
vn 0.9523 -0.2928 -0.0864
vn 0.5913 0.5069 -0.6272
vn 0.5738 0.7000 0.4253
vn -0.3897 -0.0911 0.9164
vn 0.9664 -0.1986 0.1633
vt 0.215658 0.978865
vt 0.221960 0.966435
vt 0.220248 0.977692
vt 0.219358 0.960113
vt 0.240309 0.991766
vt 0.244113 0.991184
vt 0.244113 0.998311
vt 0.507757 0.925673
vt 0.511490 0.909259
vt 0.512038 0.916965
vt 0.083006 0.798458
vt 0.089478 0.797165
vt 0.087757 0.802816
vt 0.996977 0.253117
vt 0.996977 0.266818
vt 0.991591 0.264876
vt 0.081304 0.812348
vt 0.077403 0.796118
vt 0.086378 0.794238
vt 0.987871 0.808077
vt 0.986208 0.798129
vt 0.992945 0.799917
vt 0.992945 0.794051
vt 0.093638 0.814117
vt 0.426565 0.587378
vt 0.412316 0.608961
vt 0.415656 0.583893
vt 0.098290 0.832556
vt 0.423911 0.567390
vt 0.096389 0.796173
vt 0.103890 0.790997
vt 0.093095 0.806444
vt 0.720888 0.982513
vt 0.720888 0.993584
vt 0.715270 0.984786
vt 0.100083 0.787114
vt 0.054994 0.989188
vt 0.057717 0.973576
vt 0.062330 0.988817
vt 0.053927 0.980172
vt 0.104350 0.779585
vt 0.431492 0.559508
vt 0.431093 0.565564
vt 0.427906 0.554837
vt 0.942121 0.069009
vt 0.946446 0.061376
vt 0.947585 0.071821
vt 0.948199 0.083508
vt 0.941240 0.078160
vt 0.714584 0.995600
vt 0.116967 0.987978
vt 0.123318 0.987978
vt 0.122315 0.997223
vt 0.748936 0.534594
vt 0.761152 0.534594
vt 0.754028 0.539314
vt 0.756042 0.546864
vt 0.943355 0.767918
vt 0.935192 0.748112
vt 0.941466 0.731397
vt 0.946754 0.763824
vt 0.952050 0.729537
vt 0.977666 0.686409
vt 0.969681 0.692849
vt 0.969681 0.685475
vt 0.972318 0.674842
vt 0.949992 0.720744
vt 0.975617 0.658724
vt 0.946430 0.705375
vt 0.080530 0.791055
vt 0.069153 0.781255
vt 0.221960 0.984425
vt 0.078296 0.839215
vt 0.087310 0.838908
vt 0.080221 0.851538
vt 0.952050 0.762500
vt 0.064650 0.836397
vt 0.066614 0.830002
vt 0.977830 0.944232
vt 0.979172 0.932128
vt 0.987024 0.944498
vt 0.933992 0.755196
vt 0.934641 0.770194
vt 0.944846 0.114219
vt 0.938487 0.100382
vt 0.946013 0.094480
vt 0.996658 0.749314
vt 0.990920 0.739364
vt 0.996658 0.735766
vt 0.981792 0.499060
vt 0.975513 0.496510
vt 0.980867 0.491298
vt 0.991795 0.749871
vt 0.925743 0.660599
vt 0.939015 0.654719
vt 0.934204 0.666144
vt 0.932495 0.653211
vt 0.926528 0.673949
vt 0.812064 0.896577
vt 0.810979 0.917928
vt 0.803677 0.901449
vt 0.798628 0.932726
vt 0.796712 0.899310
vt 0.939015 0.703480
vt 0.918667 0.672623
vt 0.588641 0.700849
vt 0.578810 0.681600
vt 0.598025 0.681600
vt 0.475974 0.829536
vt 0.469899 0.834178
vt 0.469899 0.791758
vt 0.488516 0.825123
vt 0.479811 0.793686
vt 0.497105 0.828381
vt 0.424198 0.608605
vt 0.426628 0.634551
vt 0.415044 0.642689
vt 0.422484 0.663368
vt 0.477718 0.824548
vt 0.490710 0.844984
vt 0.478121 0.848987
vt 0.419063 0.687310
vt 0.890448 0.831976
vt 0.890448 0.816086
vt 0.902642 0.825399
vt 0.629177 0.985420
vt 0.629177 0.969343
vt 0.639058 0.975131
vt 0.498153 0.850137
vt 0.484959 0.866170
vt 0.500340 0.826174
vt 0.508199 0.827249
vt 0.499242 0.807694
vt 0.883966 0.963754
vt 0.885138 0.963427
vt 0.895058 0.964323
vt 0.890042 0.943539
vt 0.507557 0.799909
vt 0.449728 0.989900
vt 0.447524 0.977963
vt 0.454206 0.981119
vt 0.426966 0.983570
vt 0.432647 0.984595
vt 0.426850 0.994067
vt 0.884380 0.938610
vt 0.890513 0.932251
vt 0.426850 0.977238
vt 0.886168 0.922578
vt 0.839716 0.989266
vt 0.833118 0.992077
vt 0.835042 0.978649
vt 0.514253 0.810974
vt 0.474617 0.984628
vt 0.479753 0.992481
vt 0.474617 0.998040
vt 0.515224 0.796533
vt 0.540415 0.996816
vt 0.535607 0.995751
vt 0.540415 0.989791
vt 0.533980 0.988850
vt 0.512452 0.974393
vt 0.517129 0.959276
vt 0.520223 0.975442
vt 0.523249 0.959204
vt 0.524755 0.966501
vt 0.986165 0.092353
vt 0.987320 0.086059
vt 0.990850 0.092353
vt 0.994622 0.845318
vt 0.994622 0.832137
vt 0.999249 0.841087
vt 0.512520 0.947117
vt 0.512305 0.954534
vt 0.955839 0.544261
vt 0.952533 0.516293
vt 0.966027 0.532589
vt 0.986427 0.569579
vt 0.977840 0.562852
vt 0.986427 0.547153
vt 0.978166 0.549945
vt 0.961216 0.504359
vt 0.955164 0.505370
vt 0.772538 0.534594
vt 0.780245 0.542942
vt 0.772538 0.546827
vt 0.515706 0.825793
vt 0.509410 0.846519
vt 0.312256 0.089371
vt 0.329481 0.047999
vt 0.335979 0.069995
vt 0.339908 0.040383
vt 0.504899 0.885413
vt 0.297795 0.087755
vt 0.000000 0.000000
vt 0.023159 0.910383
vt 0.014184 0.933349
vt 0.008337 0.913047
vt 0.964772 0.443362
vt 0.958468 0.463085
vt 0.949876 0.455871
vt 0.351970 0.050593
vt 0.463373 0.397905
vt 0.487905 0.394399
vt 0.459353 0.424102
vt 0.476647 0.427431
vt 0.398946 0.669122
vt 0.411173 0.689064
vt 0.408465 0.710560
vt 0.426361 0.713416
vt 0.402429 0.658041
vt 0.488271 0.381410
vt 0.496713 0.387544
vt 0.511602 0.968980
vt 0.501875 0.968941
vt 0.511602 0.949178
vt 0.389821 0.641468
vt 0.404470 0.639152
vt 0.371783 0.628648
vt 0.379356 0.617854
vt 0.497990 0.929230
vt 0.949078 0.379720
vt 0.952447 0.346810
vt 0.957798 0.367893
vt 0.406344 0.631307
vt 0.105930 0.863127
vt 0.094118 0.859503
vt 0.099225 0.854817
vt 0.961421 0.377052
vt 0.946532 0.491415
vt 0.931171 0.493942
vt 0.936929 0.487395
vt 0.938029 0.463951
vt 0.960263 0.345481
vt 0.949040 0.468637
vt 0.933997 0.444146
vt 0.962400 0.326809
vt 0.621025 0.994866
vt 0.626611 0.981654
vt 0.627959 0.994866
vt 0.370505 0.612693
vt 0.369341 0.597963
vt 0.497157 0.956011
vt 0.949876 0.510045
vt 0.941692 0.509945
vt 0.086660 0.872909
vt 0.478153 0.383662
vt 0.490719 0.370562
vt 0.796578 0.952540
vt 0.793299 0.937431
vt 0.809581 0.939322
vt 0.358739 0.028876
vt 0.983378 0.996770
vt 0.987745 0.990661
vt 0.987745 0.998906
vt 0.958905 0.499908
vt 0.999641 0.755688
vt 0.995963 0.759025
vt 0.995963 0.749871
vt 0.951204 0.750188
s 1
f 2/1/1 1/2/2 4/3/3
f 1/2/2 2/1/1 3/4/4
f 1/5/2 3/6/4 5/7/5
f 4/8/3 1/9/2 5/10/5
f 5/11/5 2/12/1 8/13/6
f 3/14/4 2/15/1 5/16/5
f 5/11/5 8/13/6 6/17/7
f 5/11/5 6/17/7 7/18/8
f 7/18/8 4/19/3 5/11/5
f 10/20/9 8/21/6 9/22/10
f 2/23/1 9/22/10 8/21/6
f 6/17/7 8/13/6 10/24/9
f 12/25/11 11/26/12 10/27/9
f 11/28/12 6/17/7 10/24/9
f 12/25/11 10/27/9 13/29/13
f 14/30/14 13/31/13 10/24/9
f 14/30/14 10/24/9 9/32/10
f 14/33/14 9/34/10 15/35/15
f 16/36/16 13/31/13 14/30/14
f 15/37/15 16/38/16 14/39/14
f 18/40/17 16/38/16 15/37/15
f 17/41/18 13/31/13 16/36/16
f 16/42/16 18/43/17 17/44/18
f 13/45/13 18/46/17 15/47/15
f 13/29/13 17/44/18 18/43/17
f 19/48/19 12/49/11 15/47/15
f 9/34/10 19/50/19 15/35/15
f 12/49/11 13/45/13 15/47/15
f 12/51/11 19/52/19 20/53/20
f 9/54/10 21/55/21 19/56/19
f 21/55/21 20/57/20 19/56/19
f 23/58/22 20/59/20 21/60/21
f 23/58/22 21/60/21 22/61/23
f 22/61/23 21/60/21 6/62/7
f 21/63/21 9/64/10 2/65/1
f 24/66/24 21/63/21 2/65/1
f 21/60/21 7/67/8 6/62/7
f 25/68/25 21/63/21 24/66/24
f 21/60/21 25/69/25 7/67/8
f 24/70/24 7/18/8 25/71/25
f 4/19/3 7/18/8 24/70/24
f 2/1/1 4/3/3 24/72/24
f 23/73/22 26/74/26 28/75/27
f 26/76/26 23/58/22 22/61/23
f 23/73/22 31/77/28 27/78/29
f 23/79/22 27/80/29 30/81/30
f 31/77/28 23/73/22 28/75/27
f 29/82/31 23/58/22 30/83/30
f 23/84/22 29/85/31 20/86/20
f 28/87/27 32/88/32 31/89/28
f 31/90/28 32/91/32 27/92/29
f 28/87/27 33/93/33 32/88/32
f 30/94/30 32/95/32 33/96/33
f 30/94/30 27/97/29 32/95/32
f 36/98/34 30/94/30 33/96/33
f 28/99/27 34/100/35 33/101/33
f 34/100/35 35/102/36 33/101/33
f 35/102/36 36/103/34 33/101/33
f 36/98/34 35/104/36 37/105/37
f 30/94/30 36/98/34 37/105/37
f 37/106/37 29/107/31 30/108/30
f 35/109/36 38/110/38 37/111/37
f 40/112/39 37/113/37 38/114/38
f 29/115/31 37/116/37 39/117/40
f 39/117/40 37/116/37 41/118/41
f 40/112/39 41/119/41 37/113/37
f 43/120/42 42/121/43 41/119/41
f 41/118/41 42/122/43 39/117/40
f 43/120/42 41/119/41 40/112/39
f 44/123/44 42/124/43 43/125/42
f 43/120/42 40/112/39 38/114/38
f 43/126/42 38/127/38 46/128/45
f 43/120/42 45/129/46 44/130/44
f 45/129/46 43/120/42 46/131/45
f 46/131/45 47/132/47 45/129/46
f 47/132/47 46/131/45 49/133/48
f 38/134/38 48/135/49 46/136/45
f 48/135/49 49/137/48 46/136/45
f 49/133/48 52/138/50 47/132/47
f 49/139/48 50/140/51 52/141/50
f 53/142/52 50/143/51 49/144/48
f 51/145/53 49/137/48 48/135/49
f 49/137/48 51/145/53 53/146/52
f 54/147/54 50/143/51 53/142/52
f 53/146/52 51/145/53 54/148/54
f 51/149/53 50/150/51 54/151/54
f 55/152/55 47/132/47 52/138/50
f 56/153/56 52/154/50 50/155/51
f 58/156/57 55/152/55 52/138/50
f 56/157/56 57/158/58 52/159/50
f 52/159/50 57/158/58 58/160/57
f 55/161/55 58/162/57 61/163/59
f 58/162/57 50/164/51 59/165/60
f 58/162/57 59/165/60 61/163/59
f 58/166/57 60/167/61 56/168/56
f 56/169/56 50/170/51 58/171/57
f 60/172/61 58/162/57 57/173/58
f 62/174/62 61/175/59 48/176/49
f 62/177/62 63/178/63 61/179/59
f 55/180/55 61/179/59 63/178/63
f 61/175/59 51/181/53 48/176/49
f 61/175/59 59/182/60 51/181/53
f 63/183/63 62/184/62 64/185/64
f 47/132/47 63/186/63 64/187/64
f 47/132/47 55/152/55 63/186/63
f 67/188/65 64/189/64 65/190/66
f 65/190/66 64/189/64 62/191/62
f 64/187/64 66/192/67 45/129/46
f 45/129/46 47/132/47 64/187/64
f 67/188/65 66/193/67 64/189/64
s 0
f 65/194/68 66/194/68 67/194/68
s 1
f 45/195/46 66/196/67 44/197/44
s 0
f 65/194/69 44/194/69 66/194/69
s 1
f 68/198/70 69/199/71 65/200/66
f 62/191/62 68/201/70 65/190/66
s 0
f 65/194/72 44/194/72 69/194/72
s 1
f 68/202/70 70/203/73 69/204/71
f 71/205/74 69/204/71 70/203/73
s 0
f 44/194/75 69/194/75 71/194/75
s 1
f 70/206/73 72/207/76 71/208/74
f 72/207/76 42/122/43 71/208/74
f 71/208/74 42/122/43 44/209/44
f 73/210/77 42/122/43 72/207/76
f 73/210/77 72/207/76 70/206/73
f 70/203/73 74/211/78 73/212/77
f 73/213/77 74/214/78 75/215/79
f 73/210/77 39/117/40 42/122/43
f 75/216/79 39/117/40 73/210/77
f 39/117/40 75/216/79 78/217/80
f 75/216/79 76/218/81 77/219/82
f 74/214/78 76/220/81 75/215/79
f 78/217/80 75/216/79 77/219/82
f 78/221/80 77/222/82 81/223/83
f 78/217/80 80/224/84 39/117/40
f 78/225/80 79/226/85 80/227/84
f 81/223/83 79/228/85 78/221/80
f 82/229/86 79/230/85 81/231/83
f 81/231/83 83/232/87 82/229/86
f 81/223/83 77/222/82 83/233/87
f 82/229/86 83/232/87 76/234/81
f 76/234/81 83/232/87 84/235/88
f 77/222/82 84/236/88 83/233/87
f 76/237/81 84/238/88 85/239/89
f 85/240/89 84/241/88 77/219/82
f 85/240/89 77/219/82 76/218/81
f 76/220/81 74/214/78 82/242/86
f 74/243/78 34/244/35 82/229/86
f 82/229/86 34/244/35 79/230/85
f 80/227/84 26/74/26 11/28/12
f 80/224/84 11/26/12 39/117/40
f 79/226/85 26/74/26 80/227/84
f 34/245/35 28/75/27 79/226/85
f 79/226/85 28/75/27 26/74/26
f 74/211/78 70/203/73 86/246/90
f 34/247/35 74/211/78 86/246/90
f 62/248/62 48/249/49 86/250/90
f 68/201/70 62/191/62 86/251/90
f 86/246/90 70/203/73 68/202/70
f 86/250/90 48/249/49 35/102/36
f 86/250/90 35/102/36 34/100/35
f 56/252/56 60/253/61 57/254/58
f 59/182/60 50/255/51 51/181/53
f 48/256/49 38/257/38 35/258/36
f 11/26/12 29/115/31 39/117/40
f 12/49/11 20/86/20 29/85/31
f 11/26/12 12/25/11 29/115/31
f 11/28/12 26/74/26 6/17/7
f 22/61/23 6/259/7 26/76/26
