# Blender 4.5.3 LTS
# www.blender.org
o Sphere.002
v 0.142394 -0.337745 0.149256
v 0.046759 -0.354892 0.209990
v 0.066214 0.104664 -0.246615
v 0.184019 0.139562 0.188251
v -0.162002 -0.363652 0.056324
v -0.299337 -0.266131 0.053155
v 0.087865 -0.257675 -0.204360
v 0.226976 0.031544 -0.135669
v 0.052587 0.073842 -0.267102
v 0.169798 0.092806 0.205128
v 0.194233 -0.337947 -0.053104
v -0.088511 0.027137 -0.260796
v -0.047265 0.116230 -0.262329
v -0.110749 0.086584 -0.243171
v -0.154276 0.009956 -0.226339
v -0.031978 0.048792 -0.283721
v 0.043823 0.046458 -0.282994
v -0.233104 0.074594 -0.118277
v 0.220797 0.046461 0.153194
v 0.216526 -0.102432 -0.178187
v 0.003084 -0.059780 0.273924
v 0.270311 -0.121432 0.074813
v 0.215513 -0.022796 -0.161350
v -0.273409 0.046813 0.107975
v 0.230435 0.135263 0.126389
v 0.252697 -0.022106 -0.099860
v 0.088269 0.039464 0.251837
v -0.266705 -0.074488 0.154956
v 0.251388 0.096688 0.080100
v -0.224309 -0.160621 0.208925
v 0.198633 0.085622 -0.177718
v 0.101042 0.057545 -0.252049
v 0.238222 -0.161951 -0.136236
v -0.118082 -0.373797 -0.118090
v 0.150817 -0.022416 -0.229770
v 0.004266 -0.151763 -0.272260
v 0.260033 -0.090918 -0.033186
v -0.275898 -0.156020 -0.046242
v 0.237526 -0.242933 0.040989
v -0.112696 -0.163722 -0.260440
v 0.100535 -0.233164 0.243704
v 0.200491 -0.144337 0.167673
v -0.271802 0.034455 0.021782
v -0.156843 -0.090689 0.255259
v -0.259713 -0.235780 -0.173160
v -0.150319 0.068860 -0.211724
v -0.138500 0.117925 0.235409
v -0.094521 -0.308795 0.252268
v 0.022835 0.106608 -0.258331
v 0.226339 0.176697 -0.167956
v -0.259651 0.017594 -0.052534
v -0.194574 0.173656 0.223439
v 0.144925 0.102469 -0.218735
v 0.262599 0.120822 -0.036066
v 0.074882 0.113615 0.249152
v 0.089130 -0.043551 0.249438
v 0.154977 -0.026333 0.207826
v -0.209641 0.057318 0.216961
v -0.046021 0.142375 0.272918
v -0.044837 0.080636 0.278254
v -0.268393 0.125554 0.094877
v -0.250816 0.111233 0.156953
vn 0.5472 -0.7493 0.3730
vn 0.2031 -0.8235 0.5298
vn 0.1224 0.8297 -0.5446
vn 0.3375 0.8581 0.3871
vn -0.3410 -0.9296 0.1396
vn -0.9012 -0.4098 0.1412
vn 0.3075 -0.5376 -0.7851
vn 0.8757 0.0967 -0.4731
vn 0.3086 0.4113 -0.8577
vn 0.6004 0.0612 0.7973
vn 0.6014 -0.7648 -0.2312
vn -0.4553 0.0805 -0.8867
vn -0.1782 0.9686 -0.1735
vn -0.5176 0.7588 -0.3954
vn -0.5963 0.1387 -0.7907
vn -0.1489 0.1384 -0.9791
vn 0.2258 0.1522 -0.9622
vn -0.6496 0.6708 -0.3579
vn 0.8011 0.0042 0.5986
vn 0.7362 -0.0898 -0.6708
vn 0.0913 -0.0382 0.9951
vn 0.9566 -0.1321 0.2598
vn 0.7934 0.0984 -0.6007
vn -0.9787 0.0318 0.2029
vn 0.5880 0.7467 0.3109
vn 0.9456 0.0017 -0.3252
vn 0.3714 0.0279 0.9280
vn -0.9086 0.0263 0.4168
vn 0.9579 0.1557 0.2411
vn -0.6881 -0.1424 0.7115
vn 0.7497 -0.0501 -0.6599
vn 0.4443 0.1924 -0.8750
vn 0.8601 -0.2171 -0.4617
vn -0.1909 -0.8923 -0.4091
vn 0.5565 -0.0244 -0.8305
vn 0.1262 -0.2876 -0.9494
vn 0.9851 -0.0889 -0.1470
vn -0.9894 0.0875 -0.1163
vn 0.9175 -0.3701 0.1454
vn -0.2744 -0.2480 -0.9291
vn 0.4405 -0.2173 0.8711
vn 0.7519 -0.1046 0.6509
vn -0.9898 0.0946 -0.1067
vn -0.3913 -0.0171 0.9201
vn -0.7447 -0.3290 -0.5807
vn -0.5271 0.6397 -0.5594
vn -0.1205 0.7747 0.6207
vn -0.2648 -0.5502 0.7919
vn 0.0546 0.9299 -0.3637
vn 0.4606 0.8521 -0.2487
vn -0.9660 0.1427 -0.2156
vn -0.0044 0.9118 0.4106
vn 0.4758 0.1521 -0.8663
vn 0.7443 0.6586 -0.1110
vn 0.2031 0.7159 0.6680
vn 0.4083 -0.0122 0.9128
vn 0.6233 -0.0340 0.7812
vn -0.6303 0.0503 0.7747
vn -0.0519 0.8918 0.4495
vn -0.0739 0.0644 0.9952
vn -0.6268 0.7762 -0.0685
vn -0.8828 0.1611 0.4412
vt 0.560188 0.504394
vt 0.534164 0.500675
vt 0.559146 0.472941
vt 0.584288 0.355894
vt 0.577318 0.322274
vt 0.620421 0.352394
vt 0.406122 0.246082
vt 0.448929 0.261056
vt 0.426109 0.287935
vt 0.377790 0.467472
vt 0.409135 0.392547
vt 0.421790 0.418311
vt 0.498857 0.446460
vt 0.497094 0.477826
vt 0.410051 0.374476
vt 0.349101 0.324910
vt 0.396609 0.336651
vt 0.476458 0.440105
vt 0.457696 0.459515
vt 0.450854 0.444957
vt 0.592879 0.458118
vt 0.560188 0.438924
vt 0.603526 0.403868
vt 0.334598 0.452122
vt 0.359297 0.374476
vt 0.483366 0.503248
vt 0.662465 0.323817
vt 0.679380 0.355894
vt 0.637094 0.431950
vt 0.390612 0.250466
vt 0.375829 0.501868
vt 0.320322 0.486208
vt 0.528497 0.451192
vt 0.462251 0.423481
vt 0.448929 0.341947
vt 0.610664 0.284821
vt 0.591265 0.275979
vt 0.532250 0.378789
vt 0.538274 0.390478
vt 0.512716 0.380608
vt 0.520718 0.402850
vt 0.430078 0.454983
vt 0.579475 0.493388
vt 0.397134 0.306979
vt 0.368647 0.265502
vt 0.356885 0.243188
vt 0.370384 0.248097
vt 0.342551 0.249411
vt 0.542038 0.420749
vt 0.560188 0.384763
vt 0.559755 0.403557
vt 0.500286 0.390977
vt 0.559967 0.424688
vt 0.320322 0.397469
vt 0.630680 0.252864
vt 0.648653 0.302079
vt 0.371059 0.237713
vt 0.473333 0.386317
vt 0.636727 0.451133
vt 0.654592 0.464432
vt 0.634308 0.381269
vt 0.663238 0.373861
vt 0.649980 0.394239
vt 0.336863 0.263118
vt 0.645093 0.493388
vt 0.671632 0.268956
vt 0.657219 0.249586
vt 0.333337 0.328480
vt 0.345417 0.310374
vt 0.604157 0.237940
vt 0.634822 0.237713
vt 0.348270 0.291308
vt 0.341543 0.288033
vt 0.347046 0.276050
vt 0.332336 0.294430
vt 0.334074 0.283356
vt 0.351329 0.341459
vt 0.336499 0.338485
vt 0.457335 0.410341
vt 0.674681 0.239222
vt 0.659125 0.486860
vt 0.656284 0.409292
vt 0.635937 0.409870
vt 0.320322 0.239571
vt 0.327826 0.311894
vt 0.679678 0.305545
vt 0.580140 0.393933
vt 0.596359 0.255469
vt 0.448929 0.373861
vt 0.451407 0.397177
vt 0.435272 0.374476
vt 0.448929 0.394779
vt 0.435272 0.409656
vt 0.448929 0.326698
vt 0.451363 0.271656
vt 0.490199 0.242719
vt 0.515554 0.237713
vt 0.543903 0.249455
vt 0.464997 0.354013
vt 0.518077 0.373001
vt 0.506761 0.373861
vt 0.568781 0.269843
vt 0.577318 0.287526
vt 0.430178 0.374476
vt 0.435272 0.391736
vt 0.430178 0.408088
vt 0.577318 0.329694
vt 0.473760 0.363735
vt 0.563288 0.360863
s 1
f 2/1/2 1/2/1 41/3/41
f 2/4/2 41/5/41 48/6/48
f 33/7/33 11/8/11 7/9/7
f 5/10/5 1/11/1 2/12/2
f 22/13/22 1/2/1 39/14/39
f 45/15/45 12/16/12 40/17/40
f 37/18/37 33/19/33 20/20/20
f 38/21/38 6/22/6 28/23/28
f 34/24/34 11/25/11 1/11/1
f 33/19/33 37/18/37 39/14/39
f 33/19/33 39/14/39 11/26/11
f 48/6/48 30/27/30 6/28/6
f 38/21/38 28/23/28 43/29/43
f 33/7/33 7/9/7 20/30/20
f 6/31/6 45/32/45 34/24/34
f 22/13/22 42/33/42 1/2/1
f 37/18/37 20/20/20 26/34/26
f 45/15/45 40/17/40 34/35/34
f 6/31/6 34/24/34 5/10/5
f 21/36/21 41/5/41 56/37/56
f 4/38/4 10/39/10 25/40/25
f 25/40/25 10/39/10 19/41/19
f 6/31/6 5/10/5 48/42/48
f 34/24/34 1/11/1 5/10/5
f 6/22/6 38/21/38 45/43/45
f 48/42/48 5/10/5 2/12/2
f 36/44/36 34/35/34 40/17/40
f 20/30/20 36/44/36 35/45/35
f 8/46/8 23/47/23 31/48/31
f 57/49/57 19/41/19 10/39/10
f 55/50/55 27/51/27 10/39/10
f 27/51/27 57/49/57 10/39/10
f 25/40/25 19/41/19 29/52/29
f 27/51/27 56/53/56 57/49/57
f 34/24/34 7/54/7 11/25/11
f 36/44/36 7/9/7 34/35/34
f 60/55/60 44/56/44 21/36/21
f 20/30/20 23/47/23 26/57/26
f 26/34/26 54/58/54 37/18/37
f 51/59/51 18/60/18 45/43/45
f 36/44/36 20/30/20 7/9/7
f 58/61/58 52/62/52 62/63/62
f 23/47/23 35/45/35 53/64/53
f 15/65/15 45/43/45 18/60/18
f 58/66/58 60/55/60 47/67/47
f 57/49/57 41/3/41 42/33/42
f 11/26/11 39/14/39 1/2/1
f 14/68/14 16/69/16 12/16/12
f 29/52/29 22/13/22 54/58/54
f 60/55/60 55/70/55 59/71/59
f 17/72/17 9/73/9 32/74/32
f 17/72/17 49/75/49 9/73/9
f 40/17/40 16/69/16 36/44/36
f 40/17/40 12/16/12 16/69/16
f 9/73/9 3/76/3 32/74/32
f 15/77/15 46/78/46 12/16/12
f 26/34/26 8/79/8 54/58/54
f 58/66/58 47/67/47 52/80/52
f 18/60/18 46/81/46 15/65/15
f 62/63/62 61/82/61 24/83/24
f 22/13/22 19/41/19 57/49/57
f 46/78/46 14/68/14 12/16/12
f 31/48/31 53/64/53 50/84/50
f 16/69/16 13/85/13 49/75/49
f 23/47/23 53/64/53 31/48/31
f 36/44/36 17/72/17 35/45/35
f 28/86/28 44/56/44 58/66/58
f 49/75/49 17/72/17 16/69/16
f 14/68/14 13/85/13 16/69/16
f 43/29/43 61/82/61 18/60/18
f 53/64/53 32/74/32 3/76/3
f 24/83/24 61/82/61 43/29/43
f 8/46/8 26/57/26 23/47/23
f 57/49/57 42/33/42 22/13/22
f 36/44/36 16/69/16 17/72/17
f 42/33/42 41/3/41 1/2/1
f 57/49/57 56/53/56 41/3/41
f 28/23/28 6/22/6 30/87/30
f 22/13/22 39/14/39 37/18/37
f 51/59/51 38/21/38 43/29/43
f 41/5/41 21/36/21 48/6/48
f 12/16/12 45/15/45 15/77/15
f 28/23/28 24/83/24 43/29/43
f 44/56/44 28/86/28 30/27/30
f 35/45/35 23/47/23 20/30/20
f 24/83/24 28/23/28 58/61/58
f 44/56/44 48/6/48 21/36/21
f 60/55/60 27/88/27 55/70/55
f 51/59/51 43/29/43 18/60/18
f 50/89/50 54/58/54 31/90/31
f 32/74/32 35/45/35 17/72/17
f 32/74/32 53/64/53 35/45/35
f 22/13/22 37/18/37 54/58/54
f 19/41/19 22/13/22 29/52/29
f 51/59/51 45/43/45 38/21/38
f 49/75/49 3/76/3 9/73/9
f 44/56/44 30/27/30 48/6/48
f 54/58/54 8/79/8 31/90/31
f 58/61/58 62/63/62 24/83/24
f 44/56/44 60/55/60 58/66/58
f 60/55/60 21/36/21 27/88/27
f 47/67/47 60/55/60 59/71/59
f 21/36/21 56/37/56 27/88/27
f 55/50/55 10/39/10 4/38/4
f 61/82/61 62/63/62 52/62/52
f 61/91/61 52/92/52 47/93/47
f 18/94/18 61/95/61 47/96/47
f 59/97/59 55/98/55 47/96/47
f 46/99/46 3/100/3 49/101/49
f 55/98/55 3/100/3 18/94/18
f 3/100/3 46/99/46 18/94/18
f 55/98/55 4/102/4 25/103/25
f 3/100/3 55/98/55 25/103/25
f 25/40/25 29/52/29 54/58/54
f 49/104/49 13/105/13 14/106/14
f 3/100/3 25/103/25 54/107/54
f 14/108/14 46/99/46 49/101/49
f 53/64/53 3/76/3 50/84/50
f 55/98/55 18/94/18 47/96/47
f 50/109/50 3/100/3 54/107/54
