# Blender 4.5.3 LTS
# www.blender.org
o Cylinder
v 0.000000 0.078847 -1.000000
v 0.500000 0.111842 -0.866025
v 0.866025 0.078847 -0.500000
v 1.000000 0.111842 -0.000000
v 0.866025 0.078847 0.500000
v 0.500000 0.111842 0.866025
v 0.000000 0.078847 1.000000
v -0.500000 0.111842 0.866025
v -0.866025 0.078847 0.500000
v -1.000000 0.111842 -0.000000
v -0.866025 0.078847 -0.500000
v -0.500000 0.111842 -0.866025
v 0.000000 0.098000 -0.000000
v 0.000000 0.004029 -1.000000
v 1.000000 0.013605 -0.000000
v -1.000000 0.013605 -0.000000
v 0.000000 -0.078847 -1.000000
v 0.500000 -0.111842 -0.866025
v 0.866025 -0.078847 -0.500000
v 1.000000 -0.111842 0.000000
v 0.866025 -0.078847 0.500000
v 0.500000 -0.111842 0.866025
v 0.000000 -0.078847 1.000000
v -0.500000 -0.111842 0.866025
v -0.866025 -0.078847 0.500000
v -1.000000 -0.111842 0.000000
v -0.866025 -0.078847 -0.500000
v -0.500000 -0.111842 -0.866025
v 0.000000 -0.402934 0.000000
v 0.500000 -0.013605 -0.866025
v 0.866025 -0.004029 -0.500000
v 0.866025 -0.004029 0.500000
v 0.500000 -0.013605 0.866025
v 0.000000 -0.004029 1.000000
v -0.500000 -0.013605 0.866025
v -0.866025 -0.004029 0.500000
v -0.866025 -0.004029 -0.500000
v -0.500000 -0.013605 -0.866025
vn -0.0000 -0.0000 -1.0000
vn -0.0000 0.9799 -0.1994
vn 0.0304 0.9982 -0.0526
vn 0.5000 -0.0000 -0.8660
vn 0.1727 0.9799 -0.0996
vn 0.8660 -0.0000 -0.5000
vn 0.0607 0.9982 0.0001
vn 1.0000 -0.0000 -0.0000
vn 0.1726 0.9799 0.0997
vn 0.8660 -0.0000 0.5000
vn 0.0303 0.9982 0.0526
vn 0.5000 -0.0000 0.8660
vn -0.0001 0.9799 0.1994
vn -0.0000 -0.0000 1.0000
vn -0.0304 0.9982 0.0526
vn -0.5000 -0.0000 0.8660
vn -0.1727 0.9799 0.0996
vn -0.8660 -0.0000 0.5000
vn -0.0607 0.9982 -0.0001
vn -1.0000 -0.0000 -0.0000
vn -0.1726 0.9799 -0.0997
vn -0.8660 -0.0000 -0.5000
vn -0.0000 1.0000 -0.0000
vn -0.0303 0.9982 -0.0526
vn -0.5000 -0.0000 -0.8660
vn 0.0877 -0.9769 -0.1951
vn -0.0001 -0.9409 -0.3387
vn 0.2868 -0.9408 -0.1808
vn 0.2127 -0.9769 -0.0216
vn 0.3000 -0.9408 0.1580
vn 0.1251 -0.9769 0.1735
vn 0.0132 -0.9408 0.3388
vn -0.0877 -0.9769 0.1951
vn -0.2868 -0.9408 0.1808
vn -0.2127 -0.9769 0.0216
vn -0.3000 -0.9408 -0.1580
vn -0.0000 -1.0000 -0.0000
vn -0.1251 -0.9769 -0.1735
vt 0.411101 0.076727
vt 0.412608 0.100106
vt 0.356637 0.147186
vt 0.353026 0.108765
vt 0.299588 0.182304
vt 0.297064 0.156978
vt 0.243041 0.234392
vt 0.240587 0.204030
vt 0.182095 0.251688
vt 0.181124 0.225497
vt 0.881513 0.225497
vt 0.882485 0.251688
vt 0.820325 0.266612
vt 0.821040 0.226882
vt 0.759493 0.236336
vt 0.761222 0.210449
vt 0.700226 0.208421
vt 0.703906 0.170026
vt 0.644887 0.153038
vt 0.647394 0.127704
vt 0.587682 0.121990
vt 0.590029 0.091594
vt 0.530438 0.085336
vt 0.531370 0.059139
vt 0.728848 0.311354
vt 0.764251 0.500000
vt 0.500000 0.500000
vt 0.471389 0.091391
vt 0.470715 0.051659
vt 0.500000 0.877292
vt 0.367875 0.826744
vt 0.632125 0.826744
vt 0.728848 0.688646
vt 0.271152 0.688646
vt 0.235749 0.500000
vt 0.271152 0.311354
vt 0.367875 0.173256
vt 0.500000 0.122708
vt 0.632125 0.173256
vt 0.350138 0.078719
vt 0.409375 0.050832
vt 0.294801 0.134106
vt 0.237572 0.165164
vt 0.180283 0.201845
vt 0.821565 0.195787
vt 0.880672 0.201845
vt 0.762731 0.187063
vt 0.706729 0.139955
vt 0.649673 0.104839
vt 0.593144 0.052760
vt 0.532247 0.035493
vt 0.470152 0.020567
s 1
f 14/1/1 1/2/2 2/3/3 30/4/4
f 30/4/4 2/3/3 3/5/5 31/6/6
f 31/6/6 3/5/5 4/7/7 15/8/8
f 15/8/8 4/7/7 5/9/9 32/10/10
f 32/11/10 5/12/9 6/13/11 33/14/12
f 33/14/12 6/13/11 7/15/13 34/16/14
f 34/16/14 7/15/13 8/17/15 35/18/16
f 35/18/16 8/17/15 9/19/17 36/20/18
f 36/20/18 9/19/17 10/21/19 16/22/20
f 16/22/20 10/21/19 11/23/21 37/24/22
f 5/25/9 4/26/7 13/27/23
f 37/24/22 11/23/21 12/28/24 38/29/25
f 38/29/25 12/28/24 1/2/2 14/1/1
f 1/30/2 12/31/24 13/27/23
f 2/32/3 1/30/2 13/27/23
f 4/26/7 3/33/5 13/27/23
f 12/31/24 11/34/21 13/27/23
f 3/33/5 2/32/3 13/27/23
f 11/34/21 10/35/19 13/27/23
f 10/35/19 9/36/17 13/27/23
f 9/36/17 8/37/15 13/27/23
f 8/37/15 7/38/13 13/27/23
f 7/38/13 6/39/11 13/27/23
f 6/39/11 5/25/9 13/27/23
f 14/1/1 30/4/4 18/40/26 17/41/27
f 30/4/4 31/6/6 19/42/28 18/40/26
f 31/6/6 15/8/8 20/43/29 19/42/28
f 15/8/8 32/10/10 21/44/30 20/43/29
f 32/11/10 33/14/12 22/45/31 21/46/30
f 33/14/12 34/16/14 23/47/32 22/45/31
f 34/16/14 35/18/16 24/48/33 23/47/32
f 35/18/16 36/20/18 25/49/34 24/48/33
f 36/20/18 16/22/20 26/50/35 25/49/34
f 16/22/20 37/24/22 27/51/36 26/50/35
f 21/25/30 29/27/37 20/26/29
f 37/24/22 38/29/25 28/52/38 27/51/36
f 38/29/25 14/1/1 17/41/27 28/52/38
f 17/30/27 29/27/37 28/31/38
f 18/32/26 29/27/37 17/30/27
f 20/26/29 29/27/37 19/33/28
f 28/31/38 29/27/37 27/34/36
f 19/33/28 29/27/37 18/32/26
f 27/34/36 29/27/37 26/35/35
f 26/35/35 29/27/37 25/36/34
f 25/36/34 29/27/37 24/37/33
f 24/37/33 29/27/37 23/38/32
f 23/38/32 29/27/37 22/39/31
f 22/39/31 29/27/37 21/25/30
