# Blender 4.4.1
# www.blender.org
o Cube
v 5.072888 5.921551 -0.179075
v 5.072888 0.049789 -0.179075
v 5.072888 5.921551 0.179075
v 5.072888 0.049789 0.179075
v -5.072888 5.921551 -0.179075
v -5.072888 0.049789 -0.179075
v -5.072888 5.921551 0.179075
v -5.072888 0.049789 0.179075
vn -0.0000 1.0000 -0.0000
vn -0.0000 -0.0000 1.0000
vn -1.0000 -0.0000 -0.0000
vn -0.0000 -1.0000 -0.0000
vn 1.0000 -0.0000 -0.0000
vn -0.0000 -0.0000 -1.0000
vt 0.374719 0.403860
vt 0.372981 0.403860
vt 0.372981 0.402122
vt 0.374719 0.402122
vt 0.000000 1.000000
vt -0.000000 0.000000
vt 1.000000 0.000000
vt 1.000000 1.000000
vt 0.376457 0.405598
vt 0.374719 0.405598
vt 0.376457 0.403860
vt 0.374719 0.400384
vt 0.372981 0.400384
vt 0.376457 0.402122
vt 1.000000 0.000000
vt 1.000000 1.000000
vt 0.000000 1.000000
vt 0.000000 0.000000
s 0
f 1/1/1 5/2/1 7/3/1 3/4/1
f 4/5/2 3/6/2 7/7/2 8/8/2
f 8/9/3 7/10/3 5/1/3 6/11/3
f 6/12/4 2/4/4 4/3/4 8/13/4
f 2/14/5 1/11/5 3/1/5 4/4/5
f 6/15/6 5/16/6 1/17/6 2/18/6
