# Blender 4.5.3 LTS
# www.blender.org
o Cube
v 0.000000 -4.650002 -0.750000
v 0.000000 -4.650002 5.250000
v 1.779479 -4.296041 -1.031250
v 1.779479 -4.296042 4.968750
v 3.288048 -3.288048 -1.312500
v 3.288048 -3.288048 4.687500
v 4.296041 -1.779479 -1.593750
v 4.296041 -1.779479 4.406250
v 4.650002 0.000000 -1.875000
v 4.650002 0.000000 4.125000
v 4.296041 1.779479 -2.156250
v 4.296041 1.779479 3.843750
v 3.288048 3.288048 -2.437500
v 3.288048 3.288048 3.562500
v 1.779478 4.296042 -2.718750
v 1.779478 4.296042 3.281250
v -0.000000 4.650002 -3.000000
v -0.000000 4.650002 3.000000
v -1.779479 4.296041 -3.281250
v -1.779479 4.296041 2.718750
v -3.288049 3.288047 -3.562500
v -3.288049 3.288047 2.437500
v -4.296042 1.779477 -3.843750
v -4.296042 1.779477 2.156250
v -4.650002 0.000000 -4.125000
v -4.650002 -0.000000 1.875000
v -4.296041 -1.779479 -4.406250
v -4.296041 -1.779480 1.593750
v -3.288047 -3.288049 -4.687500
v -3.288047 -3.288049 1.312500
v -1.779479 -4.296041 -4.968750
v -1.779479 -4.296042 1.031250
v 0.000001 -4.650002 -5.250000
v 0.000001 -4.650002 0.750000
v -0.000001 -5.789451 -0.750000
v -0.000001 -5.789451 5.250000
v 2.242778 -5.782699 -1.031250
v 2.242778 -5.782699 4.968750
v 4.144115 -5.781473 -1.312500
v 4.144115 -5.781473 4.687500
v 5.862739 -5.837830 -1.622193
v 5.862739 -5.837831 4.377807
v 5.860664 0.014330 -1.903443
v 5.860664 0.014330 4.096558
v 5.414548 2.313996 -2.156250
v 5.414548 2.313995 3.843750
v 4.144115 4.215332 -2.437500
v 4.144115 4.215332 3.562500
v 2.242777 5.485765 -2.718750
v 2.242777 5.485765 3.281250
v -0.000002 5.931881 -3.000000
v -0.000002 5.931881 3.000000
v -2.242781 5.485765 -3.281250
v -2.242781 5.485765 2.718750
v -4.144119 4.215331 -3.562500
v -4.144119 4.215331 2.437500
v -5.414552 2.313993 -3.843750
v -5.414552 2.313993 2.156250
v -5.860667 0.071215 -4.125000
v -5.860667 0.071215 1.875000
v -5.836136 -5.780946 -4.406250
v -5.836136 -5.780947 1.593750
v -4.144116 -5.781474 -4.687500
v -4.144116 -5.781474 1.312500
v -2.242781 -5.782699 -4.968750
v -2.242781 -5.782699 1.031250
v -0.000000 -5.789451 -5.250000
v -0.000000 -5.789451 0.750000
vn -0.6664 0.5116 -0.5423
vn -0.5795 0.5166 0.6304
vn -0.3668 0.5682 -0.7366
vn -0.1335 0.6461 0.7515
vn -0.5779 0.3972 -0.7130
vn -0.3425 0.5378 0.7704
vn -0.6815 0.1814 -0.7090
vn -0.5276 0.3299 0.7828
vn -0.6795 -0.0836 -0.7289
vn -0.6358 0.0880 0.7668
vn -0.5655 -0.3520 -0.7458
vn -0.6484 -0.1507 0.7462
vn -0.3828 -0.5433 -0.7472
vn -0.5458 -0.3860 0.7437
vn -0.1462 -0.6493 -0.7464
vn -0.3563 -0.5646 0.7445
vn 0.1133 -0.6569 -0.7455
vn -0.1133 -0.6569 0.7455
vn 0.3563 -0.5646 -0.7445
vn 0.1462 -0.6493 0.7464
vn 0.5458 -0.3860 -0.7437
vn 0.3828 -0.5433 0.7472
vn 0.6525 -0.1481 -0.7431
vn 0.5609 -0.3552 0.7478
vn 0.6433 0.0889 -0.7604
vn 0.6723 -0.0860 0.7353
vn 0.5369 0.3275 -0.7775
vn 0.6737 0.1823 0.7161
vn 0.3465 0.5367 -0.7694
vn 0.5746 0.3978 0.7153
vn 0.1335 0.6461 -0.7515
vn 0.3668 0.5682 0.7366
vn 0.5795 0.5166 -0.6304
vn 0.6664 0.5116 0.5423
vn -0.6074 -0.5917 -0.5300
vn -0.5422 -0.5645 0.6224
vn -0.0980 -0.7231 -0.6838
vn 0.1053 -0.6903 0.7158
vn -0.1272 -0.7259 -0.6759
vn 0.1129 -0.6797 0.7247
vn 0.5262 -0.5947 -0.6077
vn 0.6085 -0.5832 0.5382
vn 0.7169 0.0092 -0.6971
vn 0.7334 0.1279 0.6676
vn 0.7211 0.2167 -0.6581
vn 0.6606 0.3524 0.6629
vn 0.5838 0.4746 -0.6587
vn 0.4718 0.5816 0.6627
vn 0.3576 0.6611 -0.6596
vn 0.2137 0.7186 0.6617
vn 0.0775 0.7467 -0.6607
vn -0.0775 0.7467 0.6607
vn -0.2137 0.7186 -0.6617
vn -0.3576 0.6611 0.6596
vn -0.4718 0.5816 -0.6627
vn -0.5838 0.4746 0.6587
vn -0.6579 0.3566 -0.6633
vn -0.7215 0.2155 0.6580
vn -0.7259 0.1314 -0.6751
vn -0.7265 0.0075 0.6871
vn -0.6148 -0.5714 -0.5436
vn -0.5351 -0.5883 0.6063
vn -0.1182 -0.6844 -0.7194
vn 0.1103 -0.7290 0.6755
vn -0.1053 -0.6903 -0.7158
vn 0.0980 -0.7231 0.6838
vn 0.5422 -0.5645 -0.6224
vn 0.6074 -0.5917 0.5300
vt 0.000000 0.030338
vt 0.195713 0.000000
vt 0.195713 0.060604
vt 0.000000 0.090942
vt 0.195713 0.121208
vt 0.000000 0.151546
vt 0.195713 0.181812
vt 0.000000 0.212150
vt 0.195713 0.242415
vt 0.000000 0.272754
vt 0.195713 0.303019
vt 0.000000 0.333358
vt 0.195713 0.363623
vt 0.000000 0.393962
vt 0.195713 0.424227
vt 0.000000 0.454565
vt 0.195713 0.484831
vt 0.000000 0.515169
vt 0.195713 0.545435
vt 0.000000 0.575773
vt 0.195713 0.606039
vt 0.000000 0.636377
vt 0.195713 0.666642
vt 0.000000 0.696981
vt 0.195713 0.727246
vt 0.000000 0.757585
vt 0.195713 0.787850
vt 0.000000 0.818188
vt 0.195713 0.848454
vt 0.000000 0.878792
vt 0.195713 0.909058
vt 0.000000 0.939396
vt 0.195713 0.969662
vt 0.000000 1.000000
vt 0.846229 0.952378
vt 0.769626 0.961984
vt 0.769626 0.757052
vt 0.846229 0.747446
vt 0.704686 0.971590
vt 0.704686 0.766658
vt 0.645985 0.981196
vt 0.645985 0.776264
vt 0.000000 0.966838
vt 0.023213 0.783156
vt 0.213687 0.810941
vt 0.188177 1.000000
vt 0.024423 0.710163
vt 0.215873 0.732365
vt 0.021709 0.638516
vt 0.213957 0.655707
vt 0.017052 0.566176
vt 0.209776 0.579969
vt 0.011468 0.492834
vt 0.204341 0.505441
vt 0.006044 0.418296
vt 0.198761 0.432107
vt 0.001888 0.342559
vt 0.194123 0.359768
vt -0.000000 0.265917
vt 0.191429 0.288111
vt 0.001004 0.189063
vt 0.191509 0.216724
vt 0.026333 -0.000000
vt 0.214552 0.032996
vt 0.634499 0.965581
vt 0.576707 0.975188
vt 0.576707 0.770256
vt 0.634499 0.760650
vt 0.511767 0.984794
vt 0.511767 0.779862
vt 0.435164 0.994400
vt 0.435164 0.789468
vt 0.912661 0.703171
vt 0.950875 0.684960
vt 0.965791 0.761581
vt 0.924449 0.763964
vt 0.608708 0.763588
vt 0.567372 0.761107
vt 0.582469 0.684522
vt 0.620639 0.702824
vt 0.622684 0.212094
vt 0.581342 0.209711
vt 0.596258 0.133090
vt 0.634471 0.151302
vt 0.926493 0.150954
vt 0.964664 0.132652
vt 0.979761 0.209237
vt 0.938425 0.211718
vt 0.878531 0.651605
vt 0.907799 0.619968
vt 0.620949 0.824381
vt 0.568199 0.960990
vt 0.639334 0.068098
vt 0.668602 0.099735
vt 0.978933 0.409120
vt 0.926184 0.272511
vt 0.827287 0.617116
vt 0.843155 0.576499
vt 0.637008 0.687067
vt 0.643705 0.725207
vt 0.441861 0.760650
vt 0.435164 0.722509
vt 0.655534 0.875947
vt 0.626202 0.961076
vt 0.703978 0.024629
vt 0.719846 0.065246
vt 0.825578 0.910581
vt 0.841338 0.961377
vt 0.764529 0.961516
vt 0.764575 0.922598
vt 0.920931 0.409207
vt 0.891599 0.324078
vt 0.766767 0.604954
vt 0.766818 0.561171
vt 0.782557 0.370729
vt 0.782604 0.409647
vt 0.705795 0.409507
vt 0.721555 0.358711
vt 0.707231 0.910437
vt 0.691351 0.961195
vt 0.780314 0.009301
vt 0.780366 0.053084
vt 0.877357 0.876213
vt 0.906487 0.961412
vt 0.855782 0.409325
vt 0.839902 0.358567
vt 0.706217 0.616972
vt 0.690446 0.576317
vt 0.640646 0.409542
vt 0.669776 0.324344
vt 0.768205 0.922598
vt 0.768159 0.961516
vt 0.856687 0.024448
vt 0.840915 0.065102
vt 0.912064 0.824729
vt 0.965398 0.961463
vt 0.778974 0.409647
vt 0.778928 0.370729
vt 0.654892 0.651339
vt 0.625699 0.619633
vt 0.581735 0.409593
vt 0.635069 0.272859
vt 0.921434 0.067763
vt 0.892241 0.099469
vt 0.847132 0.670113
vt 0.854563 0.708238
vt 0.653417 0.747446
vt 0.645985 0.709320
s 1
f 1/1/1 2/2/2 4/3/4 3/4/3
f 3/4/3 4/3/4 6/5/6 5/6/5
f 5/6/5 6/5/6 8/7/8 7/8/7
f 7/8/7 8/7/8 10/9/10 9/10/9
f 9/10/9 10/9/10 12/11/12 11/12/11
f 11/12/11 12/11/12 14/13/14 13/14/13
f 13/14/13 14/13/14 16/15/16 15/16/15
f 15/16/15 16/15/16 18/17/18 17/18/17
f 17/18/17 18/17/18 20/19/20 19/20/19
f 19/20/19 20/19/20 22/21/22 21/22/21
f 21/22/21 22/21/22 24/23/24 23/24/23
f 23/24/23 24/23/24 26/25/26 25/26/25
f 25/26/25 26/25/26 28/27/28 27/28/27
f 27/28/27 28/27/28 30/29/30 29/30/29
f 29/30/29 30/29/30 32/31/32 31/32/31
f 31/32/31 32/31/32 34/33/34 33/34/33
f 35/35/35 37/36/37 38/37/38 36/38/36
f 37/36/37 39/39/39 40/40/40 38/37/38
f 39/39/39 41/41/41 42/42/42 40/40/40
f 41/43/41 43/44/43 44/45/44 42/46/42
f 43/44/43 45/47/45 46/48/46 44/45/44
f 45/47/45 47/49/47 48/50/48 46/48/46
f 47/49/47 49/51/49 50/52/50 48/50/48
f 49/51/49 51/53/51 52/54/52 50/52/50
f 51/53/51 53/55/53 54/56/54 52/54/52
f 53/55/53 55/57/55 56/58/56 54/56/54
f 55/57/55 57/59/57 58/60/58 56/58/56
f 57/59/57 59/61/59 60/62/60 58/60/58
f 59/61/59 61/63/61 62/64/62 60/62/60
f 61/65/61 63/66/63 64/67/64 62/68/62
f 63/66/63 65/69/65 66/70/66 64/67/64
f 65/69/65 67/71/67 68/72/68 66/70/66
f 11/73/11 45/74/45 43/75/43 9/76/9
f 25/77/25 59/78/59 57/79/57 23/80/23
f 10/81/10 44/82/44 46/83/46 12/84/12
f 24/85/24 58/86/58 60/87/60 26/88/26
f 13/89/13 47/90/47 45/74/45 11/73/11
f 27/91/27 61/92/61 59/78/59 25/77/25
f 12/84/12 46/83/46 48/93/48 14/94/14
f 26/88/26 60/87/60 62/95/62 28/96/28
f 15/97/15 49/98/49 47/90/47 13/89/13
f 1/99/1 35/100/35 36/101/36 2/102/2
f 29/103/29 63/104/63 61/92/61 27/91/27
f 14/94/14 48/93/48 50/105/50 16/106/16
f 3/107/3 37/108/37 35/109/35 1/110/1
f 28/96/28 62/95/62 64/111/64 30/112/30
f 17/113/17 51/114/51 49/98/49 15/97/15
f 2/115/2 36/116/36 38/117/38 4/118/4
f 31/119/31 65/120/65 63/104/63 29/103/29
f 16/106/16 50/105/50 52/121/52 18/122/18
f 5/123/5 39/124/39 37/108/37 3/107/3
f 30/112/30 64/111/64 66/125/66 32/126/32
f 19/127/19 53/128/53 51/114/51 17/113/17
f 4/118/4 38/117/38 40/129/40 6/130/6
f 33/131/33 67/132/67 65/120/65 31/119/31
f 18/122/18 52/121/52 54/133/54 20/134/20
f 7/135/7 41/136/41 39/124/39 5/123/5
f 32/126/32 66/125/66 68/137/68 34/138/34
f 21/139/21 55/140/55 53/128/53 19/127/19
f 6/130/6 40/129/40 42/141/42 8/142/8
f 20/134/20 54/133/54 56/143/56 22/144/22
f 9/76/9 43/75/43 41/136/41 7/135/7
f 23/80/23 57/79/57 55/140/55 21/139/21
f 34/145/34 68/146/68 67/147/67 33/148/33
f 8/142/8 42/141/42 44/82/44 10/81/10
f 22/144/22 56/143/56 58/86/58 24/85/24
