# Blender 4.4.1
# www.blender.org
o Cube
v -0.396168 -0.911220 0.279833
v -0.278117 -0.955733 0.278117
v -0.279833 -0.911220 0.396168
v -0.405945 -0.835453 0.405945
v -0.222153 -0.349128 0.766275
v -0.222572 -0.207672 0.812069
v -0.352645 -0.216699 0.759313
v -0.359875 -0.364371 0.703688
v -0.789341 -0.365709 0.225411
v -0.703688 -0.364371 0.359875
v -0.743562 -0.216378 0.355863
v -0.820221 -0.223214 0.225917
v -0.390737 0.401321 0.788076
v -0.266646 0.376458 0.843842
v -0.271019 0.497786 0.783197
v -0.400064 0.525554 0.692288
v -0.225974 0.791638 0.367011
v -0.227072 0.851853 0.227072
v -0.360062 0.780248 0.229014
v -0.367910 0.706718 0.382526
v -0.670255 0.382083 0.427329
v -0.595945 0.511822 0.426605
v -0.659493 0.487231 0.287476
v -0.729217 0.356079 0.285606
v -0.225411 -0.789341 -0.365709
v -0.227072 -0.851853 -0.227072
v -0.365709 -0.789341 -0.225411
v -0.370856 -0.719107 -0.370856
v -0.911220 -0.396168 -0.279833
v -0.955733 -0.278117 -0.278117
v -0.924013 -0.288369 -0.408722
v -0.859483 -0.410275 -0.418642
v -0.279833 -0.396168 -0.911220
v -0.418642 -0.410275 -0.859483
v -0.408722 -0.288369 -0.924013
v -0.278117 -0.278117 -0.955733
v -0.396168 0.911220 -0.279833
v -0.278117 0.955733 -0.278117
v -0.279833 0.911220 -0.396168
v -0.405945 0.835453 -0.405945
v -0.225411 0.365709 -0.789341
v -0.227072 0.227072 -0.851853
v -0.355115 0.219210 -0.775922
v -0.359875 0.364371 -0.703688
v -0.755815 0.376912 -0.224321
v -0.703688 0.364371 -0.359875
v -0.775922 0.219210 -0.355115
v -0.819624 0.233755 -0.222282
v 0.220350 -0.771820 0.351238
v 0.227072 -0.851853 0.227072
v 0.355314 -0.774086 0.230915
v 0.364976 -0.656795 0.379438
v 0.814668 -0.262500 0.356781
v 0.859673 -0.130772 0.350990
v 0.801361 -0.124870 0.468207
v 0.740799 -0.261132 0.481797
v 0.230628 -0.289092 0.749656
v 0.375042 -0.279076 0.704757
v 0.371395 -0.142256 0.760247
v 0.229925 -0.154164 0.801352
v 0.396168 0.911220 0.279833
v 0.278117 0.955733 0.278117
v 0.279833 0.911220 0.396168
v 0.405945 0.835453 0.405945
v 0.225393 0.379259 0.773102
v 0.218241 0.234934 0.812710
v 0.349266 0.216361 0.753281
v 0.359875 0.364371 0.703688
v 0.789341 0.365709 0.225411
v 0.703688 0.364371 0.359875
v 0.764595 0.220208 0.371065
v 0.842476 0.224076 0.239949
v 0.396168 -0.911220 -0.279833
v 0.278117 -0.955733 -0.278117
v 0.279833 -0.911220 -0.396168
v 0.405945 -0.835453 -0.405945
v 0.225411 -0.365709 -0.789341
v 0.227072 -0.227072 -0.851853
v 0.355115 -0.219210 -0.775922
v 0.359875 -0.364371 -0.703688
v 0.774109 -0.348870 -0.221555
v 0.703688 -0.364371 -0.359875
v 0.775922 -0.219210 -0.355115
v 0.837189 -0.209668 -0.224959
v 0.225411 0.789341 -0.365709
v 0.227072 0.851853 -0.227072
v 0.365709 0.789341 -0.225411
v 0.370856 0.719107 -0.370856
v 0.911220 0.396168 -0.279833
v 0.955733 0.278117 -0.278117
v 0.924013 0.288369 -0.408722
v 0.859483 0.410275 -0.418642
v 0.279833 0.396168 -0.911220
v 0.418642 0.410275 -0.859483
v 0.408722 0.288369 -0.924013
v 0.278117 0.278117 -0.955733
vn -0.5736 -0.8066 0.1427
vn -0.1390 -0.9763 0.1661
vn -0.0771 -0.7760 0.6260
vn -0.5551 -0.5753 0.6007
vn -0.0933 -0.4449 0.8907
vn -0.1576 -0.1935 0.9684
vn -0.5516 -0.1600 0.8186
vn -0.5036 -0.3533 0.7884
vn -0.8511 -0.4365 0.2918
vn -0.7638 -0.3236 0.5585
vn -0.8155 -0.0832 0.5728
vn -0.9359 -0.0457 0.3494
vn -0.5703 0.2243 0.7902
vn -0.1503 0.1830 0.9715
vn -0.1569 0.5950 0.7883
vn -0.5258 0.6323 0.5689
vn -0.2542 0.8265 0.5023
vn -0.2665 0.9335 0.2399
vn -0.5757 0.7803 0.2444
vn -0.4884 0.7881 0.3747
vn -0.8371 0.2367 0.4932
vn -0.7111 0.5927 0.3782
vn -0.8017 0.5683 0.1855
vn -0.9234 0.2897 0.2517
vn -0.2189 -0.8304 -0.5124
vn -0.2457 -0.9377 -0.2457
vn -0.5124 -0.8304 -0.2189
vn -0.4029 -0.8218 -0.4029
vn -0.8300 -0.5545 -0.0604
vn -0.9984 -0.0475 -0.0309
vn -0.8725 -0.0479 -0.4862
vn -0.6760 -0.5890 -0.4429
vn -0.0677 -0.5783 -0.8130
vn -0.4429 -0.5890 -0.6760
vn -0.5092 -0.0545 -0.8589
vn -0.1107 -0.1276 -0.9856
vn -0.6061 0.7892 -0.0987
vn -0.1529 0.9781 -0.1415
vn -0.1427 0.8066 -0.5736
vn -0.5968 0.5735 -0.5612
vn -0.2784 0.5050 -0.8170
vn -0.2751 0.2502 -0.9283
vn -0.5602 0.3074 -0.7692
vn -0.5492 0.3926 -0.7377
vn -0.8610 0.4951 -0.1162
vn -0.7682 0.4005 -0.4995
vn -0.8056 0.3229 -0.4967
vn -0.9430 0.3220 -0.0835
vn 0.3095 -0.7195 0.6217
vn 0.2819 -0.9117 0.2989
vn 0.5824 -0.7417 0.3328
vn 0.4636 -0.6604 0.5907
vn 0.8296 -0.4880 0.2714
vn 0.9508 -0.1296 0.2813
vn 0.7597 -0.0403 0.6490
vn 0.6296 -0.4520 0.6319
vn 0.2125 -0.4715 0.8559
vn 0.4050 -0.4495 0.7962
vn 0.4573 -0.1019 0.8834
vn 0.1905 -0.1778 0.9655
vn 0.5736 0.8066 0.1427
vn 0.1440 0.9795 0.1408
vn 0.1357 0.8057 0.5765
vn 0.5764 0.5690 0.5864
vn 0.2363 0.4484 0.8620
vn 0.2381 0.1286 0.9627
vn 0.5147 0.1630 0.8418
vn 0.5338 0.3463 0.7714
vn 0.8227 0.4975 0.2750
vn 0.7415 0.3777 0.5545
vn 0.7543 0.2537 0.6055
vn 0.9312 0.1882 0.3121
vn 0.6130 -0.7845 -0.0937
vn 0.1597 -0.9772 -0.1402
vn 0.1427 -0.8066 -0.5736
vn 0.5968 -0.5735 -0.5611
vn 0.2784 -0.5050 -0.8170
vn 0.2751 -0.2502 -0.9283
vn 0.5602 -0.3074 -0.7692
vn 0.5492 -0.3926 -0.7377
vn 0.8611 -0.4912 -0.1315
vn 0.7634 -0.4045 -0.5037
vn 0.7943 -0.3241 -0.5139
vn 0.9442 -0.2936 -0.1494
vn 0.2189 0.8304 -0.5124
vn 0.2457 0.9377 -0.2457
vn 0.5124 0.8304 -0.2189
vn 0.4029 0.8218 -0.4029
vn 0.8167 0.5733 -0.0661
vn 0.9932 0.0925 -0.0703
vn 0.8678 0.0501 -0.4943
vn 0.6760 0.5890 -0.4429
vn 0.0677 0.5783 -0.8130
vn 0.4429 0.5890 -0.6760
vn 0.5092 0.0545 -0.8589
vn 0.1107 0.1276 -0.9856
vt 0.115710 0.039263
vt 0.175748 0.256532
vt 0.107911 0.332001
vt 0.014267 0.230242
vt 0.230354 0.572815
vt 0.260836 0.496203
vt 0.318587 0.605504
vt 0.268293 0.707124
vt 0.536676 0.431567
vt 0.579829 0.532976
vt 0.525220 0.727717
vt 0.464008 0.570245
vt 0.243089 0.285300
vt 0.221370 0.354322
vt 0.206302 0.286524
vt 0.169073 0.480490
vt 0.119296 0.558307
vt 0.118363 0.403476
vt 0.592488 0.497292
vt 0.546978 0.409576
vt 0.587072 0.314452
vt 0.632197 0.396083
vt 0.260723 0.463411
vt 0.230205 0.387304
vt 0.260700 0.288667
vt 0.313720 0.359094
vt 0.098076 0.584075
vt -0.000000 0.673847
vt -0.000000 0.288065
vt 0.095788 0.378333
vt 0.180573 0.496714
vt 0.210670 0.572469
vt 0.171944 0.702262
vt 0.125464 0.602564
vt 0.574679 0.282059
vt 0.536135 0.389210
vt 0.462977 0.256545
vt 0.526644 0.071495
vt 0.521527 0.411242
vt 0.456876 0.512378
vt 0.457423 0.313168
vt 0.257355 0.750424
vt 0.293957 1.000000
vt 0.146009 0.954472
vt 0.181766 0.744449
vt 0.657630 0.390124
vt 0.714935 0.274923
vt 0.725906 0.469243
vt 0.396143 0.234428
vt 0.329476 0.327381
vt 0.271357 0.259267
vt 0.320139 0.029781
vt 0.220516 0.548290
vt 0.188540 0.480607
vt 0.220415 0.411861
vt 0.252790 0.479820
vt 0.014628 0.732999
vt 0.108853 0.633949
vt 0.163021 0.732514
vt 0.115694 0.922586
vt 0.594910 0.573393
vt 0.652274 0.725660
vt 0.548640 0.742168
vt 0.586700 0.228679
vt 0.549613 0.056322
vt 0.624111 0.075234
vt 0.220286 0.603182
vt 0.251535 0.715536
vt 0.187855 0.711169
vt 0.343692 0.371470
vt 0.410402 0.306203
vt 0.429538 0.595818
vt 0.349064 0.577662
vt 0.272498 0.479259
vt 0.322392 0.398653
vt 0.324858 0.558592
vt 0.326937 0.957933
vt 0.277637 0.739048
vt 0.338004 0.634955
vt 0.420522 0.669224
vt 0.290440 -0.000000
vt 0.252817 0.250730
vt 0.198759 0.245985
vt 0.147510 0.015318
vt 0.211088 0.386678
vt 0.180645 0.464395
vt 0.126200 0.364134
vt 0.187700 0.293587
vt 0.641812 0.373079
vt 0.598309 0.281059
vt 0.648144 0.097186
vt 0.706153 0.223211
vt 0.643741 0.414870
vt 0.726284 0.180676
vt 0.739867 0.238137
vt 0.722445 0.527688
vt 0.754470 0.482654
vt 0.747272 0.549722
vt 0.607220 0.528518
vt 0.674098 0.702573
vt 0.691436 0.738520
vt 0.667948 0.772220
vt 0.536693 0.795675
vt 0.510525 0.770401
vt 0.511762 0.023719
vt 0.536328 0.000000
vt 0.634866 0.016024
vt 0.661677 0.044680
vt 0.440929 0.606389
vt 0.429538 0.543650
vt 0.429538 0.281836
vt 0.439692 0.217595
s 1
f 12/1/12 24/2/24 48/3/48 30/4/30
f 87/5/87 61/6/61 69/7/69 89/8/89
f 75/9/75 25/10/25 33/11/33 77/12/77
f 16/13/16 20/14/20 22/15/22
f 40/16/40 44/17/44 46/18/46
f 26/19/26 74/20/74 50/21/50 2/22/2
f 63/23/63 17/24/17 15/25/15 65/26/65
f 43/27/43 35/28/35 31/29/31 47/30/47
f 39/31/39 85/32/85 93/33/93 41/34/41
f 51/35/51 73/36/73 81/37/81 53/38/53
f 76/39/76 80/40/80 82/41/82
f 91/42/91 83/43/83 79/44/79 95/45/95
f 4/46/4 8/47/8 10/48/10
f 60/49/60 66/50/66 14/51/14 6/52/6
f 86/53/86 38/54/38 18/55/18 62/56/62
f 36/57/36 42/58/42 96/59/96 78/60/78
f 28/61/28 32/62/32 34/63/34
f 52/64/52 56/65/56 58/66/58
f 88/67/88 92/68/92 94/69/94
f 67/70/67 59/71/59 55/72/55 71/73/71
f 64/74/64 68/75/68 70/76/70
f 84/77/84 90/78/90 72/79/72 54/80/54
f 7/81/7 13/82/13 21/83/21 11/84/11
f 19/85/19 37/86/37 45/87/45 23/88/23
f 3/89/3 49/90/49 57/91/57 5/92/5
f 1/93/1 2/22/2 3/89/3 4/46/4
f 5/92/5 6/94/6 7/95/7 8/47/8
f 9/96/9 10/48/10 11/97/11 12/98/12
f 13/82/13 14/51/14 15/25/15 16/13/16
f 17/24/17 18/55/18 19/85/19 20/14/20
f 21/83/21 22/15/22 23/88/23 24/2/24
f 25/10/25 26/19/26 27/99/27 28/61/28
f 29/100/29 30/101/30 31/102/31 32/62/32
f 33/11/33 34/63/34 35/103/35 36/104/36
f 37/86/37 38/54/38 39/31/39 40/16/40
f 41/34/41 42/58/42 43/27/43 44/17/44
f 45/87/45 46/18/46 47/30/47 48/3/48
f 49/90/49 50/21/50 51/35/51 52/64/52
f 53/38/53 54/105/54 55/106/55 56/65/56
f 57/91/57 58/66/58 59/107/59 60/108/60
f 61/6/61 62/56/62 63/23/63 64/74/64
f 65/26/65 66/50/66 67/70/67 68/75/68
f 69/7/69 70/76/70 71/73/71 72/79/72
f 73/36/73 74/20/74 75/9/75 76/39/76
f 77/12/77 78/109/78 79/110/79 80/40/80
f 81/37/81 82/41/82 83/111/83 84/112/84
f 85/32/85 86/53/86 87/5/87 88/67/88
f 89/8/89 90/78/90 91/42/91 92/68/92
f 93/33/93 94/69/94 95/45/95 96/59/96
f 9/96/9 1/93/1 4/46/4 10/48/10
f 3/89/3 5/92/5 8/47/8 4/46/4
f 7/95/7 11/97/11 10/48/10 8/47/8
f 21/83/21 13/82/13 16/13/16 22/15/22
f 15/25/15 17/24/17 20/14/20 16/13/16
f 19/85/19 23/88/23 22/15/22 20/14/20
f 33/11/33 25/10/25 28/61/28 34/63/34
f 27/99/27 29/100/29 32/62/32 28/61/28
f 31/102/31 35/103/35 34/63/34 32/62/32
f 45/87/45 37/86/37 40/16/40 46/18/46
f 39/31/39 41/34/41 44/17/44 40/16/40
f 43/27/43 47/30/47 46/18/46 44/17/44
f 57/91/57 49/90/49 52/64/52 58/66/58
f 51/35/51 53/38/53 56/65/56 52/64/52
f 55/106/55 59/107/59 58/66/58 56/65/56
f 69/7/69 61/6/61 64/74/64 70/76/70
f 63/23/63 65/26/65 68/75/68 64/74/64
f 67/70/67 71/73/71 70/76/70 68/75/68
f 81/37/81 73/36/73 76/39/76 82/41/82
f 75/9/75 77/12/77 80/40/80 76/39/76
f 79/110/79 83/111/83 82/41/82 80/40/80
f 93/33/93 85/32/85 88/67/88 94/69/94
f 87/5/87 89/8/89 92/68/92 88/67/88
f 91/42/91 95/45/95 94/69/94 92/68/92
f 26/19/26 2/22/2 1/93/1 27/99/27
f 12/98/12 30/101/30 29/100/29 9/96/9
f 6/52/6 14/51/14 13/82/13 7/81/7
f 24/2/24 12/1/12 11/84/11 21/83/21
f 18/55/18 38/54/38 37/86/37 19/85/19
f 48/3/48 24/2/24 23/88/23 45/87/45
f 42/58/42 36/57/36 35/28/35 43/27/43
f 30/4/30 48/3/48 47/30/47 31/29/31
f 74/20/74 26/19/26 25/10/25 75/9/75
f 36/104/36 78/109/78 77/12/77 33/11/33
f 38/54/38 86/53/86 85/32/85 39/31/39
f 96/59/96 42/58/42 41/34/41 93/33/93
f 90/78/90 84/77/84 83/43/83 91/42/91
f 78/60/78 96/59/96 95/45/95 79/44/79
f 50/21/50 74/20/74 73/36/73 51/35/51
f 84/112/84 54/105/54 53/38/53 81/37/81
f 86/53/86 62/56/62 61/6/61 87/5/87
f 72/79/72 90/78/90 89/8/89 69/7/69
f 66/50/66 60/49/60 59/71/59 67/70/67
f 54/80/54 72/79/72 71/73/71 55/72/55
f 2/22/2 50/21/50 49/90/49 3/89/3
f 60/108/60 6/94/6 5/92/5 57/91/57
f 62/56/62 18/55/18 17/24/17 63/23/63
f 14/51/14 66/50/66 65/26/65 15/25/15
f 27/99/27 1/93/1 9/96/9 29/100/29
