# Blender 4.5.3 LTS
# www.blender.org
o islandBottom
v -0.008535 2.592633 0.011921
v -0.017291 5.039280 -2.316220
v -1.198088 5.118954 -2.075150
v -2.141430 4.998548 -1.230973
v -2.396176 4.902527 -0.000000
v -2.075150 5.080147 1.198088
v -1.198088 5.178047 2.075150
v 1.198088 5.368030 -2.075150
v 2.075150 5.078303 -1.198088
v 2.396176 5.133182 -0.000000
v 1.886360 5.061473 1.042073
v 1.198088 5.146075 2.075150
v 0.000000 5.080147 2.396176
v 0.000000 6.028267 -2.504622
v 1.248724 6.092489 -2.162853
v 2.169030 6.007025 -1.252290
v 2.504912 6.076940 -0.000000
v 2.168869 5.936291 1.252197
v 1.252464 6.091490 2.169331
v 0.000000 6.008841 2.504550
v -1.252495 6.127767 2.169384
v -2.168974 6.008531 1.252257
v -2.504244 5.813482 -0.000000
v -2.169062 6.048482 -1.252308
v -1.252431 6.060608 -2.169275
v -0.549620 4.213586 -0.935977
v -0.962008 4.064145 -0.000000
v 0.481004 4.251033 -0.833123
v 0.962008 4.156747 -0.000000
v 0.481004 4.161924 0.833123
v -1.147584 4.984832 2.127280
v 0.000000 4.142217 -0.962008
v -0.901739 4.212047 -0.583858
v -0.833123 4.135456 0.481004
v 0.833123 4.134715 -0.481004
v 0.833123 4.109868 0.481004
v -0.028521 4.118033 1.021795
v -0.738797 4.474066 -1.295988
v -1.443011 4.417710 -0.000000
v 0.775820 4.582699 -1.342101
v 1.443011 4.556613 -0.000000
v 0.721506 4.564378 1.249684
v -0.721506 4.583632 1.249684
v -0.894884 3.990142 0.587978
v -0.069774 2.388769 0.120853
v -0.542765 4.029446 0.940097
v -0.061761 3.990142 1.051681
v -0.780908 4.414368 1.362958
v -0.057042 4.886931 2.388269
v 1.917994 4.796187 0.373199
v 0.990886 4.097152 0.488833
v 1.600774 4.505488 0.298585
v -1.008593 4.862207 -1.939886
v -0.034583 4.087905 -1.054614
v -2.217200 4.669384 -0.302723
v -1.242687 4.007215 -0.546774
v -1.575572 4.184567 -0.065771
v 0.589631 4.020347 -1.017955
v 0.100608 2.543482 -0.110986
v 0.941751 3.904028 -0.665836
v -0.091896 2.495205 -0.078115
v -0.922991 4.076294 -0.571192
v -0.570872 4.077833 -0.923311
vn 0.0135 -0.1594 -0.9871
vn -0.4590 -0.4240 -0.7807
vn -0.4758 -0.1112 -0.8725
vn 0.8382 -0.2424 0.4885
vn 0.8752 -0.4834 0.0181
vn 0.9833 -0.1795 0.0285
vn 0.8554 -0.1210 -0.5036
vn 0.7324 -0.5186 -0.4412
vn -0.8508 -0.0729 -0.5205
vn -0.7452 -0.4402 -0.5009
vn -0.9954 -0.0942 0.0151
vn -0.8860 -0.4385 0.1507
vn -0.7254 -0.4981 0.4751
vn -0.8429 -0.1155 0.5256
vn -0.0038 -0.1153 0.9933
vn -0.6085 -0.2690 0.7465
vn 0.1658 -0.2933 0.9415
vn 0.4714 -0.4945 0.7302
vn 0.5172 -0.1834 0.8360
vn 0.4322 -0.4926 0.7553
vn -0.7757 -0.5420 0.3234
vn 0.5296 -0.2907 0.7969
vn -0.8667 -0.4929 0.0768
vn -0.7950 -0.6062 0.0240
vn 0.4195 -0.8954 -0.1493
vn -0.5551 -0.7071 -0.4380
vn -0.4080 -0.8094 0.4225
vn -0.2751 -0.5351 -0.7987
vn 0.1467 -0.2031 -0.9681
vn -0.9643 -0.2613 0.0420
vn 0.2141 -0.7723 -0.5980
vn -0.2989 -0.8011 -0.5185
vn -0.3627 -0.4186 -0.8326
vn -0.9696 -0.2446 -0.0113
vn 0.4330 -0.5837 0.6868
vn 0.3538 -0.7767 0.5211
vn 0.5707 -0.7210 0.3931
vn 0.8089 -0.5877 -0.0150
vn 0.5670 -0.8037 -0.1802
vn 0.8809 -0.4732 -0.0132
vn -0.2678 -0.9283 0.2579
vn 0.9458 -0.3084 -0.1015
vn 0.4420 -0.4264 -0.7892
vn 0.0386 -0.5210 -0.8527
vn 0.3093 -0.7306 -0.6087
vn 0.7144 -0.5308 0.4559
vn 0.6338 -0.7642 0.1194
vn -0.8735 -0.4632 0.1498
vn 0.4308 -0.4896 0.7581
vn -0.7756 -0.5420 0.3234
vn 0.2607 -0.9648 0.0340
vn -0.7424 -0.6655 0.0775
vn -0.8735 -0.4632 0.1499
vn -0.3965 -0.5789 0.7125
vn 0.0815 -0.9867 -0.1408
vn 0.3790 -0.4597 0.8031
vn -0.7756 -0.5421 0.3234
vn -0.7544 -0.3659 0.5449
vn 0.5506 -0.8336 -0.0436
vn 0.2613 -0.9256 0.2737
vn -0.5009 -0.7363 -0.4550
vn 0.1692 -0.9654 -0.1986
vn -0.3037 -0.8652 0.3990
vn -0.2824 -0.4212 -0.8619
vn -0.4967 -0.1145 0.8603
vn 0.4834 -0.1474 -0.8629
vn 0.2917 -0.8973 0.3315
vt 0.062969 0.442376
vt 0.168624 0.516637
vt 0.097973 0.551877
vt 0.849420 0.643808
vt 0.855857 0.513441
vt 0.927887 0.551318
vt 0.963715 0.437257
vt 0.886971 0.420626
vt 0.162502 0.650197
vt 0.228236 0.592912
vt 0.264077 0.710122
vt 0.303943 0.644159
vt 0.390433 0.696088
vt 0.366738 0.773200
vt 0.645551 0.759487
vt 0.524420 0.705943
vt 0.624092 0.683503
vt 0.718445 0.654482
vt 0.757593 0.725174
vt 0.594068 0.535816
vt 0.516882 0.580500
vt 0.575675 0.525566
vt 0.433535 0.547077
vt 0.384039 0.519646
vt 0.487940 0.339281
vt 0.332779 0.492563
vt 0.357758 0.570526
vt 0.302988 0.447393
vt 0.284830 0.396415
vt 0.251208 0.473819
vt 0.273234 0.346877
vt 0.452407 0.538862
vt 0.644625 0.516811
vt 0.674077 0.569216
vt 0.685840 0.481384
vt 0.544378 0.329374
vt 0.721521 0.439519
vt 0.774541 0.466719
vt 0.740767 0.390139
vt 0.568090 0.318576
vt 0.731170 0.361995
vt 0.111787 0.323674
vt 0.145649 0.427161
vt 0.810536 0.328784
vt 0.914585 0.316463
vt 0.790544 0.580104
vt 0.800296 0.518998
vt 0.529266 0.590345
vt 0.590541 0.547325
vt 0.539447 0.600964
vt 0.214650 0.335292
vt 0.278039 0.403119
vt 0.297837 0.612916
vt 0.488610 0.615666
vt 0.496493 0.719084
vt 0.503946 0.549172
vt 0.505532 0.606429
vt 0.525634 0.531182
vt 0.520518 0.323632
vt 0.615569 0.672911
vt 0.513195 0.709906
vt 0.527844 0.684907
vt 0.769140 0.497105
vt 0.699955 0.486337
vt 0.188931 0.499248
vt 0.320088 0.526429
vt 0.338411 0.565555
vt 0.749049 0.316463
vt 0.277280 0.316463
vt 0.468399 0.322651
vt 0.535857 0.788452
vt 0.513195 0.334067
vt 0.046419 0.327528
vt 0.508198 0.615695
vt 0.981484 0.319789
vt 0.482521 0.806407
s 1
f 14/1/1 3/2/2 25/3/3
f 18/4/4 10/5/5 17/6/6
f 16/7/7 10/5/5 9/8/8
f 24/9/9 3/2/2 4/10/10
f 23/11/11 4/10/10 5/12/12
f 23/11/11 6/13/13 22/14/14
f 20/15/15 7/16/16 13/17/17
f 20/15/15 12/18/18 19/19/19
f 37/20/20 48/21/21 47/22/22
f 34/23/23 27/24/24 1/25/25
f 33/26/26 27/24/24 39/27/27
f 33/26/26 26/28/28 63/28/29 62/26/30
f 32/29/31 26/28/28 38/30/32
f 32/29/31 28/31/33 1/25/25
f 1/25/25 44/32/34 34/23/23
f 37/20/20 30/33/35 42/34/36
f 36/35/37 30/33/35 1/36/25
f 36/35/37 29/37/38 41/38/39
f 35/39/40 29/37/38 1/36/25
f 35/39/40 59/40/41 60/41/42
f 14/1/1 8/42/43 2/43/44
f 9/8/8 40/44/45 8/45/43
f 9/8/8 41/38/39 35/39/40
f 10/5/5 11/46/46 50/47/47
f 11/46/46 42/34/36 36/35/37
f 13/17/17 42/34/36 12/18/18
f 43/48/48 37/49/49 48/50/50
f 2/43/44 40/51/45 32/29/31
f 32/29/31 38/30/32 54/52/51
f 4/10/10 38/30/32 33/26/26
f 5/12/12 4/10/10 55/53/52
f 6/13/13 39/27/27 34/23/23
f 6/13/13 43/54/53 7/55/16
f 44/32/34 46/56/54 48/57/21
f 47/22/22 46/58/54 45/59/55
f 1/36/25 47/22/22 45/59/55
f 43/54/53 44/32/34 48/57/21
f 49/60/56 48/50/57 37/49/20
f 43/54/53 31/61/58 7/55/16
f 13/17/17 31/62/58 49/60/56
f 37/20/20 13/17/17 49/60/56
f 11/46/46 52/63/59 50/47/47
f 11/46/46 36/35/37 51/64/60
f 41/38/39 50/47/47 52/63/59
f 41/38/39 51/64/60 36/35/37
f 8/45/43 16/7/7 9/8/8
f 2/43/44 38/30/32 53/65/61
f 38/30/32 3/2/2 53/65/61
f 2/43/44 32/29/31 54/52/51
f 3/2/2 2/43/44 53/65/61
f 55/53/52 56/66/62 57/67/63
f 39/27/27 55/53/52 57/67/63
f 4/10/10 33/26/26 56/66/62
f 39/27/27 56/66/62 33/26/26
f 60/41/42 58/68/64 40/44/45
f 28/31/33 40/51/45 58/69/64
f 40/44/45 35/39/40 60/41/42
f 28/31/33 59/70/41 1/25/25
f 7/55/16 22/14/14 6/13/13
f 12/18/18 18/4/4 19/19/19
f 14/1/1 2/43/44 3/2/2
f 18/4/4 11/46/46 10/5/5
f 16/7/7 17/6/6 10/5/5
f 24/9/9 25/3/3 3/2/2
f 23/11/11 24/9/9 4/10/10
f 23/11/11 5/12/12 6/13/13
f 20/15/15 21/71/65 7/16/16
f 20/15/15 13/17/17 12/18/18
f 34/23/23 39/27/27 27/24/24
f 33/26/26 1/25/25 27/24/24
f 33/26/26 38/30/32 26/28/28
f 32/29/31 1/25/25 26/28/28
f 32/29/31 40/51/45 28/31/33
f 1/25/25 45/72/55 44/32/34
f 37/20/20 1/36/25 30/33/35
f 36/35/37 42/34/36 30/33/35
f 36/35/37 1/36/25 29/37/38
f 35/39/40 41/38/39 29/37/38
f 35/39/40 1/36/25 59/40/41
f 14/1/1 15/73/66 8/42/43
f 9/8/8 35/39/40 40/44/45
f 9/8/8 10/5/5 41/38/39
f 11/46/46 12/18/18 42/34/36
f 13/17/17 37/20/20 42/34/36
f 2/43/44 8/42/43 40/51/45
f 4/10/10 3/2/2 38/30/32
f 6/13/13 5/12/12 39/27/27
f 6/13/13 34/23/23 43/54/53
f 44/32/34 45/72/55 46/56/54
f 47/22/22 48/21/21 46/58/54
f 1/36/25 37/20/20 47/22/22
f 43/54/53 34/23/23 44/32/34
f 49/60/56 31/62/58 48/50/57
f 43/54/53 48/74/57 31/61/58
f 13/17/17 7/16/16 31/62/58
f 11/46/46 51/64/60 52/63/59
f 41/38/39 10/5/5 50/47/47
f 41/38/39 52/63/59 51/64/60
f 8/45/43 15/75/66 16/7/7
f 2/43/44 54/52/51 38/30/32
f 55/53/52 4/10/10 56/66/62
f 39/27/27 5/12/12 55/53/52
f 39/27/27 57/67/63 56/66/62
f 60/41/42 59/40/41 58/68/64
f 28/31/33 58/69/64 59/70/41
f 7/55/16 21/76/65 22/14/14
f 12/18/18 11/46/46 18/4/4
f 62/26/30 63/28/29 61/25/67
f 26/28/28 1/25/25 61/25/67 63/28/29
f 1/25/25 33/26/26 62/26/30 61/25/67
