# Blender 4.4.1
# www.blender.org
o islandBottom
v 0.000000 2.534083 0.000000
v -0.017291 5.039280 -2.316219
v -1.198088 5.118954 -2.075150
v -2.141430 4.998548 -1.230973
v -2.396176 4.902527 -0.000000
v -2.075150 5.080147 1.198088
v -1.198088 5.178047 2.075150
v 1.198088 5.368030 -2.075150
v 2.075150 5.078303 -1.198088
v 2.396176 5.133182 -0.000000
v 1.886360 5.061473 1.042073
v 1.198088 5.146075 2.075150
v -0.000000 5.080147 2.396176
v -0.000000 6.028267 -2.504622
v 1.248724 6.092489 -2.162853
v 2.169030 6.007025 -1.252290
v 2.504912 6.076940 -0.000000
v 2.168869 5.936291 1.252197
v 1.252464 6.091490 2.169331
v -0.000000 6.008841 2.504551
v -1.252495 6.127767 2.169384
v -2.168974 6.008531 1.252258
v -2.504244 5.813482 -0.000000
v -2.169062 6.048482 -1.252308
v -1.252431 6.060608 -2.169274
v -0.481004 4.151035 -0.833123
v -0.962008 4.064145 -0.000000
v 0.481004 4.251033 -0.833123
v 0.962008 4.156747 -0.000000
v 0.481004 4.161924 0.833123
v -1.147584 4.984832 2.127280
v 0.000000 4.142217 -0.962008
v -0.833123 4.149496 -0.481004
v -0.833123 4.135456 0.481004
v 0.833123 4.134715 -0.481004
v 0.833123 4.109868 0.481004
v -0.028521 4.118033 1.021795
v -0.738797 4.474066 -1.295988
v -1.443011 4.417710 -0.000000
v 0.775820 4.582699 -1.342101
v 1.443011 4.556613 -0.000000
v 0.721506 4.564378 1.249684
v -0.721506 4.583632 1.249684
v -0.894884 3.990142 0.587978
v -0.061761 2.388769 0.106974
v -0.542765 4.029446 0.940097
v -0.061761 3.990142 1.051681
v -0.780908 4.414368 1.362958
v -0.057042 4.886931 2.388270
v 1.917994 4.796187 0.373199
v 0.990886 4.097152 0.488833
v 1.600774 4.505488 0.298585
v -1.008593 4.862207 -1.939886
v -0.034583 4.087905 -1.054614
v -2.217200 4.669384 -0.302723
v -1.242687 4.007215 -0.546774
v -1.575572 4.184567 -0.065771
v 0.589631 4.020347 -1.017955
v 0.108628 2.605097 -0.184832
v 0.941751 3.904028 -0.665836
vn 0.1983 -0.9251 -0.3238
vn 0.0386 -0.5210 -0.8527
vn -0.4590 -0.4241 -0.7807
vn -0.7444 -0.4417 -0.5007
vn -0.8860 -0.4385 0.1507
vn -0.7254 -0.4981 0.4751
vn -0.6085 -0.2690 0.7465
vn 0.4420 -0.4264 -0.7892
vn 0.7324 -0.5186 -0.4412
vn 0.8752 -0.4833 0.0181
vn 0.7144 -0.5308 0.4560
vn 0.4715 -0.4945 0.7302
vn 0.1658 -0.2933 0.9415
vn 0.0135 -0.1594 -0.9871
vn 0.4834 -0.1474 -0.8629
vn 0.8554 -0.1209 -0.5037
vn 0.9833 -0.1795 0.0285
vn 0.8382 -0.2424 0.4885
vn 0.5172 -0.1834 0.8360
vn -0.0038 -0.1152 0.9933
vn -0.4967 -0.1146 0.8603
vn -0.8429 -0.1156 0.5255
vn -0.9954 -0.0942 0.0151
vn -0.8508 -0.0729 -0.5204
vn -0.4758 -0.1112 -0.8725
vn -0.4003 -0.6096 -0.6843
vn -0.7938 -0.6081 -0.0081
vn -0.3619 -0.4114 -0.8365
vn 0.8140 -0.5807 -0.0145
vn 0.4347 -0.5790 0.6898
vn -0.7545 -0.3659 0.5449
vn 0.1716 -0.7831 -0.5978
vn -0.4470 -0.7834 -0.4318
vn -0.8684 -0.4896 0.0786
vn 0.8796 -0.4754 -0.0185
vn 0.5757 -0.7150 0.3967
vn 0.4308 -0.4895 0.7581
vn -0.2994 -0.8053 -0.5118
vn -0.4034 -0.8107 0.4244
vn 0.3093 -0.7306 -0.6088
vn 0.5670 -0.8037 -0.1802
vn 0.3539 -0.7767 0.5211
vn -0.8735 -0.4632 0.1499
vn -0.9694 -0.2452 -0.0081
vn 0.0550 -0.9941 -0.0939
vn -0.3947 -0.5813 0.7115
vn 0.5250 -0.2911 0.7998
vn -0.7756 -0.5420 0.3234
vn 0.3790 -0.4598 0.8031
vn 0.6338 -0.7642 0.1194
vn 0.2614 -0.9256 0.2737
vn 0.5506 -0.8336 -0.0436
vn -0.5008 -0.7363 -0.4550
vn 0.2607 -0.9648 0.0340
vn -0.7424 -0.6655 0.0775
vn 0.0986 -0.9535 -0.2848
vn -0.3037 -0.8652 0.3989
vn -0.2771 -0.4139 -0.8671
vn -0.1464 -0.9835 -0.1068
vn 0.9456 -0.3132 -0.0886
vt 0.097973 0.551877
vt 0.062969 0.442376
vt 0.145649 0.427161
vt 0.168624 0.516637
vt 0.927887 0.551318
vt 0.849420 0.643808
vt 0.790544 0.580104
vt 0.855857 0.513441
vt 0.963715 0.437257
vt 0.886971 0.420626
vt 0.162502 0.650197
vt 0.228236 0.592912
vt 0.264077 0.710122
vt 0.303943 0.644159
vt 0.366738 0.773200
vt 0.390433 0.696088
vt 0.645551 0.759487
vt 0.535857 0.788452
vt 0.524420 0.705943
vt 0.624092 0.683503
vt 0.757593 0.725174
vt 0.718445 0.654482
vt 0.594068 0.535816
vt 0.529266 0.590345
vt 0.516882 0.580500
vt 0.575675 0.525566
vt 0.433535 0.547077
vt 0.357758 0.570526
vt 0.384039 0.519646
vt 0.487940 0.339281
vt 0.332779 0.492563
vt 0.251208 0.473819
vt 0.302988 0.447393
vt 0.284830 0.396415
vt 0.214650 0.335292
vt 0.273234 0.346877
vt 0.513195 0.334067
vt 0.452407 0.538862
vt 0.674077 0.569216
vt 0.544378 0.329374
vt 0.644625 0.516811
vt 0.685840 0.481384
vt 0.774541 0.466719
vt 0.721521 0.439519
vt 0.740767 0.390139
vt 0.568090 0.318576
vt 0.731170 0.361995
vt 0.046419 0.327528
vt 0.111787 0.323674
vt 0.914585 0.316463
vt 0.810536 0.328784
vt 0.800296 0.518998
vt 0.590541 0.547325
vt 0.539447 0.600964
vt 0.278039 0.403119
vt 0.297837 0.612916
vt 0.496493 0.719084
vt 0.488610 0.615666
vt 0.505532 0.606429
vt 0.503946 0.549172
vt 0.525634 0.531182
vt 0.520518 0.323632
vt 0.615569 0.672911
vt 0.527844 0.684907
vt 0.508198 0.615695
vt 0.513195 0.709906
vt 0.699955 0.486337
vt 0.769140 0.497105
vt 0.981484 0.319789
vt 0.188931 0.499248
vt 0.320088 0.526429
vt 0.338411 0.565555
vt 0.749049 0.316463
vt 0.277280 0.316463
vt 0.468399 0.322651
vt 0.482521 0.806407
s 1
f 25/1/25 14/2/14 2/3/2 3/4/3
f 17/5/17 18/6/18 11/7/11 10/8/10
f 16/9/16 17/5/17 10/8/10 9/10/9
f 24/11/24 25/1/25 3/4/3 4/12/4
f 23/13/23 24/11/24 4/12/4 5/14/5
f 22/15/22 23/13/23 5/14/5 6/16/6
f 20/17/20 21/18/21 7/19/7 13/20/13
f 19/21/19 20/17/20 13/20/13 12/22/12
f 37/23/37 43/24/43 48/25/48 47/26/47
f 34/27/34 39/28/39 27/29/27 1/30/1
f 39/28/39 33/31/33 1/30/1 27/29/27
f 33/31/33 38/32/38 26/33/26 1/30/1
f 38/32/38 32/34/32 1/30/1 26/33/26
f 32/34/32 40/35/40 28/36/28 1/30/1
f 34/27/34 1/30/1 45/37/45 44/38/44
f 42/39/42 37/23/37 1/40/1 30/41/30
f 36/42/36 42/39/42 30/41/30 1/40/1
f 41/43/41 36/42/36 1/40/1 29/44/29
f 35/45/35 41/43/41 29/44/29 1/40/1
f 35/45/35 1/40/1 59/46/59 60/47/60
f 14/2/14 15/48/15 8/49/8 2/3/2
f 8/50/8 9/10/9 35/45/35 40/51/40
f 9/10/9 10/8/10 41/43/41 35/45/35
f 10/8/10 11/7/11 50/52/50
f 11/7/11 12/22/12 42/39/42 36/42/36
f 12/22/12 13/20/13 37/23/37 42/39/42
f 43/24/43 37/53/37 48/54/48
f 2/3/2 8/49/8 40/35/40 32/34/32
f 32/34/32 38/32/38 54/55/54
f 4/12/4 3/4/3 38/32/38 33/31/33
f 5/14/5 4/12/4 55/56/55
f 6/16/6 5/14/5 39/28/39 34/27/34
f 7/57/7 6/16/6 34/27/34 43/58/43
f 48/59/48 44/38/44 45/37/45 46/60/46
f 47/26/47 48/25/48 46/61/46 45/62/45
f 1/40/1 37/23/37 47/26/47 45/62/45
f 43/58/43 34/27/34 44/38/44 48/59/48
f 49/63/49 31/64/31 48/54/48 37/53/37
f 7/57/7 43/58/43 48/65/48 31/66/31
f 13/20/13 7/19/7 31/64/31 49/63/49
f 37/23/37 13/20/13 49/63/49
f 50/52/50 11/7/11 51/67/51 52/68/52
f 11/7/11 36/42/36 51/67/51
f 41/43/41 10/8/10 50/52/50 52/68/52
f 36/42/36 41/43/41 52/68/52 51/67/51
f 8/50/8 15/69/15 16/9/16 9/10/9
f 53/70/53 2/3/2 54/55/54 38/32/38
f 38/32/38 3/4/3 53/70/53
f 2/3/2 32/34/32 54/55/54
f 3/4/3 2/3/2 53/70/53
f 55/56/55 4/12/4 56/71/56 57/72/57
f 39/28/39 5/14/5 55/56/55 57/72/57
f 4/12/4 33/31/33 56/71/56
f 33/31/33 39/28/39 57/72/57 56/71/56
f 40/51/40 60/47/60 59/46/59 58/73/58
f 28/36/28 40/35/40 58/74/58
f 40/51/40 35/45/35 60/47/60
f 1/30/1 28/36/28 58/74/58 59/75/59
f 6/16/6 7/57/7 21/76/21 22/15/22
f 12/22/12 11/7/11 18/6/18 19/21/19
