# Blender 4.5.3 LTS
# www.blender.org
o Cube
v -0.104067 -1.048263 0.279833
v 0.036765 -1.051230 0.200512
v 0.024252 -1.139711 0.414764
v -0.113844 -0.972496 0.405945
v -0.216130 -0.349128 0.766275
v -0.271414 -0.002030 0.880906
v -0.310570 0.031868 0.740015
v -0.340733 -0.364371 0.703688
v -0.724500 -0.370373 0.228745
v -0.571094 -0.330828 0.344706
v -0.580365 -0.062833 0.355863
v -0.603583 -0.061772 0.225917
v -0.360039 0.550728 0.754366
v -0.252037 0.496068 0.781576
v -0.215238 0.628260 0.920417
v -0.359430 0.707517 0.759492
v -0.209582 1.134000 0.367011
v -0.219852 1.356598 0.227072
v -0.332596 1.122610 0.229014
v -0.332905 1.049080 0.382526
v -0.624928 0.574308 0.419839
v -0.560075 0.704046 0.419115
v -0.549246 0.579225 0.242339
v -0.819357 0.395587 0.247613
v -0.261261 -0.842345 -0.361522
v -0.258286 -0.890473 -0.227027
v -0.409508 -0.838339 -0.225404
v -0.410041 -0.780268 -0.365489
v -0.736309 -0.315900 -0.279568
v -0.669144 -0.022942 -0.340946
v -0.577995 -0.114396 -0.340355
v -0.703070 -0.348509 -0.413306
v -0.267123 -0.448325 -0.845912
v -0.387215 -0.466572 -0.800038
v -0.228893 -0.116650 -0.726934
v -0.230008 -0.153051 -0.874954
v -0.273383 1.651688 -0.091558
v -0.155332 1.696201 -0.089842
v -0.133200 1.722124 -0.205402
v -0.283160 1.575921 -0.217670
v -0.301495 0.520403 -0.786533
v -0.195397 0.363244 -0.771074
v -0.264900 0.340452 -0.699993
v -0.253800 0.540047 -0.524165
v -0.681911 0.798781 -0.154479
v -0.671252 0.528951 -0.335182
v -0.494459 0.260323 -0.351574
v -0.516965 0.636746 -0.147731
v 0.216670 -0.771820 0.351238
v 0.195695 -0.962222 0.150542
v 0.341554 -0.774086 0.230915
v 0.337481 -0.656795 0.379438
v 0.711930 -0.314384 0.417489
v 0.705893 -0.077207 0.312942
v 0.662054 -0.124870 0.468207
v 0.612674 -0.261132 0.481797
v 0.165106 -0.285568 0.672953
v 0.397784 -0.324986 0.736252
v 0.308987 -0.144131 0.726528
v 0.210988 -0.154164 0.801352
v 0.601030 1.274369 0.035846
v 0.381569 1.178116 0.019714
v 0.418256 1.161625 0.122235
v 0.649151 1.044164 0.116921
v 0.210837 0.512865 0.664654
v 0.117524 0.375556 0.900534
v 0.334442 0.341335 0.652969
v 0.354581 0.509734 0.703688
v 0.826351 0.268021 0.225411
v 0.751382 0.266683 0.359875
v 0.801671 0.122520 0.371065
v 0.870384 0.126388 0.239949
v 0.396168 -1.278359 -0.141900
v 0.285264 -1.394947 -0.171023
v 0.279833 -1.278359 -0.258235
v 0.405945 -1.202592 -0.268012
v 0.204872 -0.365709 -0.713606
v 0.127612 -0.095793 -0.636327
v 0.315716 -0.219210 -0.698850
v 0.311913 -0.364371 -0.633396
v 0.601686 -0.518385 -0.127478
v 0.458890 -0.364371 -0.327632
v 0.438782 -0.105486 -0.323913
v 0.570389 -0.209668 -0.209769
v 0.220977 0.934704 -0.355926
v 0.227072 1.159600 -0.227072
v 0.347966 0.934704 -0.222893
v 0.346069 0.864470 -0.356912
v 0.896230 0.533314 -0.251960
v 0.714778 0.322532 -0.299783
v 0.690310 0.332784 -0.421649
v 0.688995 0.548577 -0.381520
v 0.277985 0.541531 -0.833974
v 0.493134 0.589050 -0.865913
v 0.399443 0.433732 -0.846787
v 0.168111 0.387937 -0.948402
v -0.426351 1.130301 -0.268429
v -0.409738 1.034651 -0.475092
v -0.419404 0.591988 -0.469492
v -0.187132 1.254059 -0.518061
v 0.043889 1.328414 -0.280664
v -0.339981 1.231773 -0.070423
v -0.278271 1.613805 -0.154614
v -0.208180 1.649023 -0.211536
v -0.419905 0.490801 -0.677202
v -0.567096 0.775804 -0.226905
v -0.040259 0.727554 -0.571229
v -0.501045 1.224391 -0.184779
v -0.292327 1.048162 -0.502102
vn -0.9934 -0.0205 0.1133
vn -0.7159 0.0204 -0.6980
vn -0.9862 0.0341 0.1621
vn 0.4770 0.8547 0.2048
vn 0.8944 0.0677 -0.4420
vn 0.6059 0.6163 -0.5031
vn -0.2631 -0.7806 -0.5670
vn 0.2751 -0.1925 -0.9419
vn 0.0961 -0.6337 -0.7675
vn -0.6518 0.3791 0.6569
vn -0.7014 0.6053 0.3763
vn -0.8637 0.4638 0.1972
vn -0.6589 0.4669 -0.5898
vn -0.7857 0.2020 -0.5847
vn -0.8094 0.2831 -0.5146
vn -0.4223 -0.8853 -0.1947
vn 0.0984 -0.9946 -0.0341
vn 0.3440 -0.8105 0.4741
vn -0.1106 0.6859 0.7193
vn 0.3341 0.4063 0.8505
vn 0.1146 0.7175 0.6871
vn -0.8140 -0.1035 -0.5716
vn -0.5353 0.1556 -0.8302
vn -0.6988 0.1400 -0.7015
vn 0.4283 0.5872 -0.6869
vn 0.2711 0.5417 -0.7956
vn 0.4938 0.3596 -0.7917
vn 0.6306 -0.6001 0.4921
vn 0.9657 -0.1692 -0.1968
vn 0.8374 -0.2526 0.4847
vn 0.6848 -0.4250 -0.5920
vn 0.7340 -0.2466 -0.6328
vn 0.8881 0.0152 -0.4593
vn 0.7578 -0.2411 -0.6064
vn 0.5209 -0.2088 -0.8277
vn 0.8154 -0.2948 -0.4982
vn -0.6847 -0.5561 0.4710
vn -0.6233 -0.2850 0.7282
vn -0.7096 -0.2161 0.6707
vn 0.2299 0.1274 0.9648
vn -0.5668 -0.1596 0.8082
vn 0.4120 -0.3470 0.8425
vn 0.6685 0.6361 -0.3855
vn 0.1028 0.9331 0.3445
vn -0.1004 0.7207 0.6860
vn -0.2910 -0.1297 -0.9479
vn -0.0324 -0.0405 -0.9987
vn -0.5963 0.0228 -0.8025
vn -0.5565 -0.7330 -0.3911
vn -0.9028 -0.0366 -0.4285
vn -0.5599 -0.2205 -0.7987
vn 0.4183 -0.6373 0.6473
vn 0.5480 -0.2595 0.7952
vn 0.3548 -0.2641 0.8969
vn 0.4800 0.7406 -0.4703
vn 0.6717 0.3915 -0.6289
vn 0.4824 0.3222 -0.8145
vn 0.5486 -0.0031 0.8361
vn 0.7440 -0.0506 0.6663
vn 0.8010 -0.0475 0.5967
vn 0.6747 0.4532 0.5826
vn 0.3765 0.2194 0.9001
vn 0.7640 0.2406 0.5987
vn 0.7933 -0.2236 -0.5663
vn 0.9878 -0.1217 0.0974
vn 0.9434 -0.3310 0.0183
vn -0.7096 -0.0762 0.7005
vn -0.8397 -0.0537 0.5403
vn -0.8555 -0.0451 0.5159
vn -0.8164 0.4702 0.3352
vn -0.9735 0.1677 -0.1553
vn -0.9104 0.4122 -0.0349
vn 0.5345 -0.5281 0.6599
vn -0.1153 -0.3725 0.9209
vn 0.0447 -0.8999 0.4338
vn -0.5410 -0.8410 -0.0072
vn -0.9197 -0.1446 0.3650
vn -0.0661 0.2827 0.9569
vn -0.8954 0.3250 0.3044
vn -0.6268 -0.7691 -0.1253
vn -0.9867 -0.0745 -0.1442
vn -0.1827 -0.2560 -0.9493
vn -0.9223 0.1355 -0.3620
vn -0.8755 0.4759 -0.0841
vn -0.5028 0.5927 -0.6292
vn -0.9411 -0.3382 -0.0018
vn -0.5427 0.1180 -0.8316
vn -0.9968 -0.0396 0.0695
vn -0.9222 0.0795 -0.3784
vn -0.9762 -0.1747 -0.1287
vn 0.1535 -0.5404 0.8273
vn 0.4971 -0.0467 0.8665
vn 0.9585 0.2497 0.1375
vn 0.7605 -0.6354 0.1342
vn 0.4793 -0.2350 -0.8456
vn 0.0300 0.5474 -0.8363
vn 0.0172 0.1192 -0.9927
vn -0.8507 0.5108 -0.1244
vn -0.5915 0.3705 -0.7162
vn -0.2102 0.4823 -0.8504
vn -0.9538 -0.1952 -0.2284
vn -0.3162 -0.0108 0.9486
vn -0.6065 0.7253 0.3258
vn 0.4028 0.8657 -0.2971
vn 0.8552 -0.4461 -0.2639
vn 0.1558 0.9748 -0.1595
vn 0.1375 -0.9272 -0.3484
vn -0.7304 0.3086 0.6093
vn -0.4961 0.0175 -0.8681
vt 1.025759 0.673397
vt 0.898884 0.501992
vt 1.023691 0.476599
vt 0.452178 0.699091
vt 0.498825 0.470145
vt 0.511908 0.710457
vt 0.890636 0.211154
vt 0.721663 0.253363
vt 0.869759 0.074403
vt 0.185909 0.692717
vt 0.220358 0.854595
vt 0.114319 0.769178
vt 0.560901 0.918926
vt 0.734412 0.847029
vt 0.738031 0.919184
vt 0.920301 0.196407
vt 0.910060 0.068644
vt 1.061452 0.083205
vt 0.275726 0.853985
vt 0.280060 0.566564
vt 0.431147 0.727671
vt 0.758735 0.581735
vt 0.894922 0.450213
vt 0.863850 0.613415
vt 0.556911 0.737541
vt 0.666563 0.714916
vt 0.540580 0.836908
vt 0.175392 0.077420
vt 0.511976 0.089683
vt 0.337478 0.214293
vt 0.818694 0.054858
vt 0.696215 0.224304
vt 0.616521 0.136426
vt 0.589191 0.213622
vt 0.632108 0.502253
vt 0.544914 0.422265
vt 0.070518 0.183705
vt 0.113882 0.358426
vt 0.039875 0.384226
vt 0.242418 0.523732
vt 0.158185 0.458902
vt 0.223531 0.342120
vt 0.515196 0.780154
vt 0.485637 0.899112
vt 0.333182 0.897636
vt 0.739484 0.573290
vt 0.713819 0.322174
vt 0.777061 0.401069
vt 0.899456 0.254223
vt 0.898398 0.406084
vt 0.822300 0.343994
vt 0.204036 0.127748
vt 0.313961 0.233724
vt 0.245647 0.271924
vt 0.545153 0.683403
vt 0.530801 0.501570
vt 0.613712 0.534553
vt 0.289824 0.482421
vt 0.333982 0.272350
vt 0.379608 0.345168
vt 0.437617 0.649492
vt 0.299303 0.537922
vt 0.382559 0.396071
vt 0.533025 0.174185
vt 0.408108 0.338414
vt 0.371256 0.266618
vt 0.173942 0.650308
vt 0.051035 0.473659
vt 0.145200 0.470610
vt 1.241672 0.908105
vt 0.916556 0.838221
vt 1.066943 0.768233
vt 0.144893 0.123712
vt 0.137602 0.347465
vt 0.081474 0.150631
vt 0.043911 0.163132
vt 0.009761 0.402506
vt 0.023691 0.476599
vt 0.207386 0.634617
vt 0.241672 0.908105
vt 0.091805 0.725061
vt 0.066943 0.768233
vt 0.025759 0.673397
vt 0.926818 0.239342
vt 0.921018 0.417705
vt 0.802100 0.332024
vt 0.786099 0.397689
vt 0.528928 0.923807
vt 0.537093 0.903545
vt 0.778636 0.657503
vt 0.746479 0.638900
vt 0.907727 0.826563
vt 0.873131 0.846284
vt 0.876602 0.729685
vt 0.204543 0.288063
vt 0.243734 0.322993
vt 0.411820 0.387248
vt 0.895406 0.042467
vt 0.683807 0.277075
vt 0.642057 0.554553
vt 0.675234 0.518028
vt 0.780779 0.946745
vt 0.694978 0.834581
vt 0.642776 0.838558
vt 0.747591 0.699202
vt 1.043911 0.163132
vt 1.009761 0.402506
vt 0.189928 0.619294
vt 0.495423 0.925580
vt 0.521390 0.888174
vt 0.520297 0.411747
vt 1.175392 0.077420
vt 0.451968 0.742950
vt 0.061452 0.083205
vt 0.041799 0.124258
vt 1.041799 0.124258
vt 0.534325 0.967489
vt 0.793421 0.741722
s 1
f 24/1/1 30/2/2 12/3/3
f 61/4/4 89/5/5 87/6/6
f 25/7/7 77/8/8 75/9/9
f 16/10/10 20/11/11 22/12/12
f 40/13/13 98/14/14 97/15/15
f 26/16/16 74/17/17 50/18/18
f 17/19/19 65/20/20 63/21/21
f 43/22/22 31/23/23 47/24/24
f 85/25/25 107/26/26 101/27/27
f 51/28/28 81/29/29 53/30/30
f 76/31/31 80/32/32 82/33/33
f 83/34/34 95/35/35 91/36/36
f 4/37/37 8/38/38 10/39/39
f 66/40/40 6/41/41 60/42/42
f 86/43/43 38/44/44 18/45/45
f 42/46/46 78/47/47 36/48/48
f 28/49/49 32/50/50 34/51/51
f 52/52/52 56/53/53 58/54/54
f 88/55/55 92/56/56 94/57/57
f 67/58/58 55/59/59 71/60/60
f 64/61/61 68/62/62 70/63/63
f 84/64/64 72/65/65 54/66/66
f 13/67/67 11/68/68 7/69/69
f 19/70/70 45/71/71 23/72/72
f 49/73/73 5/74/74 3/75/75
f 1/76/76 3/75/75 4/37/37
f 5/74/74 7/69/69 8/38/38
f 9/77/77 11/68/68 12/78/3
f 13/67/67 15/79/78 16/10/10
f 17/19/19 19/80/70 20/11/11
f 21/81/79 23/82/72 24/83/1
f 25/7/7 27/84/80 28/49/49
f 29/85/81 31/23/23 32/50/50
f 33/86/82 35/87/83 36/48/48
f 103/88/84 104/89/85 40/13/13
f 43/22/22 105/90/86 41/91/87
f 48/92/88 106/93/89 46/94/90
f 49/73/73 51/28/28 52/52/52
f 53/30/30 55/59/59 56/53/53
f 57/95/91 59/96/92 60/42/42
f 61/4/4 63/21/21 64/61/61
f 65/20/20 67/58/58 68/62/62
f 69/97/93 71/60/60 72/65/65
f 73/98/94 75/9/9 76/31/31
f 77/8/8 79/99/95 80/32/32
f 81/29/29 83/34/34 84/64/64
f 85/25/25 87/6/6 88/55/55
f 89/5/5 91/36/36 92/56/56
f 93/100/96 95/35/35 96/101/97
f 9/77/77 4/37/37 10/39/39
f 5/74/74 4/37/37 3/75/75
f 11/68/68 8/38/38 7/69/69
f 13/67/67 22/12/12 21/81/79
f 17/19/19 16/10/10 15/79/78
f 23/82/72 20/11/11 19/80/70
f 25/7/7 34/51/51 33/86/82
f 29/85/81 28/49/49 27/84/80
f 31/23/23 34/51/51 32/50/50
f 45/71/71 108/102/98 106/93/89
f 41/91/87 109/103/99 100/104/100
f 47/24/24 44/105/101 43/22/22
f 57/95/91 52/52/52 58/54/54
f 53/30/30 52/52/52 51/28/28
f 59/96/92 56/53/53 55/59/59
f 69/97/93 64/61/61 70/63/63
f 63/21/21 68/62/62 64/61/61
f 67/58/58 70/63/63 68/62/62
f 81/29/29 76/31/31 82/33/33
f 77/8/8 76/31/31 75/9/9
f 83/34/34 80/32/32 79/99/95
f 93/100/96 88/55/55 94/57/57
f 89/5/5 88/55/55 87/6/6
f 91/36/36 94/57/57 92/56/56
f 26/16/16 1/106/76 27/84/80
f 12/3/3 29/85/81 9/107/77
f 14/108/102 7/69/69 6/41/41
f 24/83/1 11/68/68 21/81/79
f 18/45/45 37/109/103 19/80/70
f 48/92/88 23/72/72 45/71/71
f 36/48/48 43/22/22 42/46/46
f 30/2/2 47/24/24 31/23/23
f 26/16/16 75/9/9 74/17/17
f 36/48/48 77/8/8 33/86/82
f 86/43/43 39/110/104 38/44/44
f 42/46/46 93/100/96 96/101/97
f 84/64/64 91/36/36 90/111/105
f 96/101/97 79/99/95 78/47/47
f 50/18/18 73/98/94 51/112/28
f 84/64/64 53/30/30 81/29/29
f 62/113/106 87/6/6 86/43/43
f 90/111/105 69/97/93 72/65/65
f 60/42/42 67/58/58 66/40/40
f 54/66/66 71/60/60 55/59/59
f 50/114/18 3/75/75 2/115/107
f 60/42/42 5/74/74 57/95/91
f 18/45/45 63/21/21 62/113/106
f 14/108/102 65/20/20 15/79/78
f 27/84/80 9/107/77 29/85/81
f 50/18/18 2/116/107 26/16/16
f 18/45/45 62/113/106 86/43/43
f 24/1/1 48/92/88 30/2/2
f 61/4/4 69/97/93 89/5/5
f 25/7/7 33/86/82 77/8/8
f 17/19/19 15/79/78 65/20/20
f 43/22/22 35/87/83 31/23/23
f 93/100/96 107/26/26 85/25/25
f 51/112/28 73/98/94 81/29/29
f 83/34/34 79/99/95 95/35/35
f 66/40/40 14/108/102 6/41/41
f 42/46/46 96/101/97 78/47/47
f 67/58/58 59/96/92 55/59/59
f 84/64/64 90/111/105 72/65/65
f 13/67/67 21/81/79 11/68/68
f 19/80/70 102/117/108 45/71/71
f 49/73/73 57/95/91 5/74/74
f 1/76/76 2/115/107 3/75/75
f 5/74/74 6/41/41 7/69/69
f 9/77/77 10/39/39 11/68/68
f 13/67/67 14/108/102 15/79/78
f 17/19/19 18/45/45 19/80/70
f 21/81/79 22/12/12 23/82/72
f 25/7/7 26/16/16 27/84/80
f 29/85/81 30/2/2 31/23/23
f 33/86/82 34/51/51 35/87/83
f 37/109/103 38/44/44 39/110/104
f 41/91/87 42/46/46 43/22/22
f 46/94/90 47/24/24 48/92/88
f 49/73/73 50/114/18 51/28/28
f 53/30/30 54/66/66 55/59/59
f 57/95/91 58/54/54 59/96/92
f 61/4/4 62/113/106 63/21/21
f 65/20/20 66/40/40 67/58/58
f 69/97/93 70/63/63 71/60/60
f 73/98/94 74/17/17 75/9/9
f 77/8/8 78/47/47 79/99/95
f 81/29/29 82/33/33 83/34/34
f 85/25/25 86/43/43 87/6/6
f 89/5/5 90/111/105 91/36/36
f 93/100/96 94/57/57 95/35/35
f 9/77/77 1/76/76 4/37/37
f 5/74/74 8/38/38 4/37/37
f 11/68/68 10/39/39 8/38/38
f 13/67/67 16/10/10 22/12/12
f 17/19/19 20/11/11 16/10/10
f 23/82/72 22/12/12 20/11/11
f 25/7/7 28/49/49 34/51/51
f 29/85/81 32/50/50 28/49/49
f 31/23/23 35/87/83 34/51/51
f 45/71/71 102/117/108 108/102/98
f 41/91/87 105/90/86 109/103/99
f 47/24/24 99/118/109 44/105/101
f 57/95/91 49/73/73 52/52/52
f 53/30/30 56/53/53 52/52/52
f 59/96/92 58/54/54 56/53/53
f 69/97/93 61/4/4 64/61/61
f 63/21/21 65/20/20 68/62/62
f 67/58/58 71/60/60 70/63/63
f 81/29/29 73/98/94 76/31/31
f 77/8/8 80/32/32 76/31/31
f 83/34/34 82/33/33 80/32/32
f 93/100/96 85/25/25 88/55/55
f 89/5/5 92/56/56 88/55/55
f 91/36/36 95/35/35 94/57/57
f 26/16/16 2/116/107 1/106/76
f 12/3/3 30/2/2 29/85/81
f 14/108/102 13/67/67 7/69/69
f 24/83/1 12/78/3 11/68/68
f 18/45/45 38/44/44 37/109/103
f 48/92/88 24/1/1 23/72/72
f 36/48/48 35/87/83 43/22/22
f 30/2/2 48/92/88 47/24/24
f 26/16/16 25/7/7 75/9/9
f 36/48/48 78/47/47 77/8/8
f 86/43/43 101/27/27 39/110/104
f 42/46/46 41/91/87 93/100/96
f 84/64/64 83/34/34 91/36/36
f 96/101/97 95/35/35 79/99/95
f 50/18/18 74/17/17 73/98/94
f 84/64/64 54/66/66 53/30/30
f 62/113/106 61/4/4 87/6/6
f 90/111/105 89/5/5 69/97/93
f 60/42/42 59/96/92 67/58/58
f 54/66/66 72/65/65 71/60/60
f 50/114/18 49/73/73 3/75/75
f 60/42/42 6/41/41 5/74/74
f 18/45/45 17/19/19 63/21/21
f 14/108/102 66/40/40 65/20/20
f 27/84/80 1/106/76 9/107/77
f 109/103/99 98/14/14 40/13/13
f 109/103/99 105/90/86 98/14/14
f 105/90/86 44/105/101 98/14/14
f 108/102/98 103/88/84 40/13/13
f 108/102/98 102/117/108 103/88/84
f 102/117/108 37/109/103 103/88/84
f 100/104/100 104/89/85 39/110/104
f 100/104/100 109/103/99 104/89/85
f 109/103/99 40/13/13 104/89/85
f 106/93/89 97/15/15 46/94/90
f 106/93/89 108/102/98 97/15/15
f 108/102/98 40/13/13 97/15/15
f 37/109/103 104/89/85 103/88/84
f 101/27/27 100/104/100 39/110/104
f 101/27/27 107/26/26 100/104/100
f 107/26/26 41/91/87 100/104/100
f 97/15/15 99/118/109 46/94/90
f 97/15/15 98/14/14 99/118/109
f 98/14/14 44/105/101 99/118/109
f 43/22/22 44/105/101 105/90/86
f 48/92/88 45/71/71 106/93/89
f 93/100/96 41/91/87 107/26/26
f 19/80/70 37/109/103 102/117/108
f 47/24/24 46/94/90 99/118/109
f 86/43/43 85/25/25 101/27/27
f 37/109/103 39/110/104 104/89/85
