# Blender 4.4.1
# www.blender.org
o Cube
v 0.600752 -0.000000 0.000000
v -0.000000 -0.000000 -0.576081
v -0.000000 1.305127 0.000000
v -0.000000 -0.797641 0.000000
v -0.000000 -0.000000 0.569920
v -0.589519 -0.000000 0.000000
vn 0.6595 0.3036 -0.6877
vn 0.6137 -0.4622 -0.6400
vn 0.6561 0.3020 0.6916
vn 0.6110 -0.4602 0.6441
vn -0.6665 0.3010 -0.6820
vn -0.6210 -0.4589 -0.6354
vn -0.6631 0.2995 0.6859
vn -0.6183 -0.4569 0.6395
vt 0.439294 1.000000
vt 0.220802 0.502175
vt 0.439683 -0.000000
vt 0.617813 0.408591
vt 0.440800 0.809992
vt 0.439683 -0.000000
vt -0.000000 0.011001
vt 0.795815 0.011920
vt 0.001021 1.000000
vt 0.795815 0.813073
s 0
f 2/1/1 3/2/1 1/3/1
f 4/4/2 2/5/2 1/6/2
f 1/3/3 3/2/3 5/7/3
f 1/6/4 5/8/4 4/4/4
f 2/1/5 6/9/5 3/2/5
f 6/10/6 2/5/6 4/4/6
f 6/9/7 5/7/7 3/2/7
f 4/4/8 5/8/8 6/10/8
