# Blender 4.5.3 LTS
# www.blender.org
o Cylinder
v 0.000000 -0.034316 -3.696661
v 1.848329 -0.156291 -3.201401
v 3.201401 -0.034316 -1.848329
v 3.696661 -0.156290 0.000000
v 3.201401 -0.034315 1.848329
v 1.848329 -0.156290 3.201401
v 0.000000 -0.034315 3.696661
v -1.848329 -0.156290 3.201401
v -3.201401 -0.034315 1.848329
v -3.696661 -0.156290 0.000000
v -3.201401 -0.034316 -1.848329
v -1.848329 -0.156291 -3.201401
v 0.000000 5.353734 -2.785033
v -1.392516 5.379262 -2.411911
v -2.411910 5.374805 -1.392517
v -2.785033 5.127713 -0.000000
v -2.411910 5.334157 1.392516
v -1.392516 5.447946 2.411910
v 1.392516 5.668759 -2.411911
v 2.411910 5.332014 -1.392517
v 2.785033 5.395800 -0.000000
v 2.411910 5.260082 1.392516
v 1.392516 5.410784 2.411910
v 0.000000 5.334157 2.785033
v 0.000000 6.028267 -2.504622
v 1.248724 6.092489 -2.162853
v 2.169030 6.007025 -1.252290
v 2.504912 6.076940 -0.000000
v 2.168869 5.936291 1.252197
v 1.252464 6.091490 2.169331
v 0.000000 6.008841 2.504550
v -1.252495 6.127767 2.169384
v -2.168974 6.008531 1.252257
v -2.504244 5.813482 -0.000000
v -2.169062 6.048482 -1.252308
v -1.252431 6.060608 -2.169275
v 0.000000 -0.602149 -2.864565
v 1.432281 -0.696668 -2.480785
v 2.480785 -0.602149 -1.432281
v 2.864565 -0.696668 0.000000
v 2.480785 -0.602149 1.432281
v 1.432281 -0.696667 2.480785
v 0.000000 -0.602148 2.864565
v -1.432281 -0.696667 2.480785
v -2.480785 -0.602149 1.432281
v -2.864565 -0.696668 0.000000
v -2.480785 -0.602149 -1.432281
v -1.432281 -0.696668 -2.480785
v -0.000000 -1.204252 -0.000000
vn 0.8024 0.3782 0.4616
vn 0.4661 0.3850 0.7966
vn 0.4855 0.2770 0.8292
vn 0.8361 0.2627 0.4816
vn -0.4605 0.3827 -0.8010
vn -0.0287 0.4178 -0.9081
vn -0.0152 0.2769 -0.9608
vn -0.4799 0.2710 -0.8344
vn 0.9231 0.3845 0.0053
vn 0.9611 0.2762 0.0057
vn 0.8008 0.4167 -0.4303
vn 0.8396 0.2750 -0.4685
vn -0.8083 0.3847 -0.4457
vn -0.8416 0.2781 -0.4631
vn -0.9266 0.3760 0.0040
vn -0.9658 0.2591 0.0026
vn -0.8124 0.3827 0.4399
vn -0.8447 0.2737 0.4600
vn -0.4614 0.3854 0.7991
vn -0.4805 0.2767 0.8322
vn 0.0034 0.3798 0.9251
vn 0.0025 0.2649 0.9643
vn -0.8152 -0.3453 0.4650
vn -0.4602 -0.3909 0.7971
vn -0.9215 -0.3883 0.0006
vn -0.8146 -0.3455 -0.4659
vn -0.4601 -0.3904 -0.7974
vn -0.0043 -0.3466 -0.9380
vn 0.4741 0.3284 -0.8169
vn 0.4601 -0.3927 -0.7963
vn 0.0006 -0.3460 0.9382
vn 0.4612 -0.3904 0.7968
vn 0.8129 -0.3452 0.4691
vn 0.9207 -0.3903 0.0010
vn 0.8144 -0.3465 -0.4656
vn 0.4443 0.4662 -0.7651
vn 0.3662 -0.9062 -0.2114
vn 0.1963 -0.9197 -0.3401
vn -0.1963 -0.9197 -0.3400
vn -0.3661 -0.9062 -0.2114
vn -0.1963 -0.9197 0.3400
vn -0.0000 -0.9063 0.4227
vn 0.1963 -0.9197 0.3400
vn 0.3661 -0.9063 0.2114
vn -0.3660 -0.9063 0.2113
vn 0.3925 -0.9197 -0.0000
vn -0.3925 -0.9197 -0.0000
vn -0.0000 -0.9063 -0.4227
vn 0.2289 -0.9695 -0.0876
vt 0.166689 0.949409
vt 0.083367 0.973379
vt 0.083367 0.827351
vt 0.166690 0.807325
vt 0.583277 0.968611
vt 0.499960 0.963614
vt 0.499960 0.819771
vt 0.583277 0.823163
vt 0.250009 0.971133
vt 0.250010 0.825360
vt 0.333327 0.960334
vt 0.333327 0.816884
vt 0.666597 0.966737
vt 0.666597 0.822571
vt 0.749919 0.930439
vt 0.749919 0.789734
vt 0.833243 0.960566
vt 0.833243 0.817169
vt 0.916569 0.978983
vt 0.916569 0.832290
vt 0.999895 0.960615
vt 0.999895 0.817169
vt 0.000042 0.960615
vt 0.000042 0.817169
vt 0.833238 0.020838
vt 0.916569 0.014705
vt 0.749910 0.014705
vt 0.666587 0.020838
vt 0.583269 0.014705
vt 0.499955 0.020838
vt 0.416644 0.861635
vt 0.416644 0.014705
vt 0.999899 0.020838
vt 0.000047 0.020838
vt 0.083375 0.014705
vt 0.166699 0.020838
vt 0.250018 0.014705
vt 0.333333 0.020838
vt 0.416644 0.973535
vt 0.416543 0.014570
vt 0.333228 0.020644
vt 0.333228 -0.037032
vt 0.416543 -0.069574
vt 0.666489 0.020644
vt 0.583174 0.014570
vt 0.583174 -0.069574
vt 0.666489 -0.037032
vt 0.999763 0.020644
vt 0.916447 0.014570
vt 0.916447 -0.069574
vt 0.999763 -0.037031
vt 0.166597 0.020644
vt 0.083281 0.014570
vt 0.083281 -0.069574
vt 0.166597 -0.037032
vt 0.833132 0.020644
vt 0.833132 -0.037032
vt 0.249912 0.014570
vt 0.249912 -0.069574
vt 0.749805 0.014570
vt 0.749805 -0.069574
vt 0.499859 0.020644
vt 0.499859 -0.037032
vt -0.000034 0.020644
vt -0.000034 -0.037031
vt 0.749817 0.014570
vt 0.749817 -0.069574
vt 0.696074 0.685240
vt 0.737349 0.660185
vt 0.737349 0.847198
vt 0.778623 0.685240
vt 0.808838 0.753691
vt 0.665859 0.940704
vt 0.654800 0.847198
vt 0.808838 0.940704
vt 0.778623 1.009156
vt 0.665859 0.753691
vt 0.819897 0.847198
vt 0.737349 1.034211
vt 0.696074 1.009156
s 1
f 29/1/1 30/2/2 23/3/3 22/4/4
f 36/5/5 25/6/6 13/7/7 14/8/8
f 28/9/9 29/1/1 22/4/4 21/10/10
f 27/11/11 28/9/9 21/10/10 20/12/12
f 35/13/13 36/5/5 14/8/8 15/14/14
f 34/15/15 35/13/13 15/14/14 16/16/16
f 33/17/17 34/15/15 16/16/16 17/18/18
f 32/19/19 33/17/17 17/18/18 18/20/20
f 31/21/21 32/19/19 18/20/20 24/22/22
f 30/2/2 31/23/21 24/24/22 23/3/3
f 18/20/20 17/18/18 9/25/23 8/26/24
f 17/18/18 16/16/16 10/27/25 9/25/23
f 16/16/16 15/14/14 11/28/26 10/27/25
f 15/14/14 14/8/8 12/29/27 11/28/26
f 14/8/8 13/7/7 1/30/28 12/29/27
f 13/7/7 19/31/29 2/32/30 1/30/28
f 24/22/22 18/20/20 8/26/24 7/33/31
f 23/3/3 24/24/22 7/34/31 6/35/32
f 22/4/4 23/3/3 6/35/32 5/36/33
f 21/10/10 22/4/4 5/36/33 4/37/34
f 20/12/12 21/10/10 4/37/34 3/38/35
f 19/31/29 20/12/12 3/38/35 2/32/30
f 26/39/36 27/11/11 20/12/12 19/31/29
f 25/6/6 26/39/36 19/31/29 13/7/7
f 2/40/30 3/41/35 39/42/37 38/43/38
f 11/44/26 12/45/27 48/46/39 47/47/40
f 7/48/31 8/49/24 44/50/41 43/51/42
f 5/52/33 6/53/32 42/54/43 41/55/44
f 8/49/24 9/56/23 45/57/45 44/50/41
f 3/41/35 4/58/34 40/59/46 39/42/37
f 10/60/25 11/44/26 47/47/40 46/61/47
f 1/62/28 2/40/30 38/43/38 37/63/48
f 12/45/27 1/62/28 37/63/48 48/46/39
f 6/53/32 7/64/31 43/65/42 42/54/43
f 4/58/34 5/52/33 41/55/44 40/59/46
f 9/56/23 10/66/25 46/67/47 45/57/45
f 48/68/39 37/69/48 49/70/49
f 38/71/38 39/72/37 49/70/49
f 45/73/45 46/74/47 49/70/49
f 41/75/44 42/76/43 49/70/49
f 37/69/48 38/71/38 49/70/49
f 46/74/47 47/77/40 49/70/49
f 40/78/46 41/75/44 49/70/49
f 43/79/42 44/80/41 49/70/49
f 47/77/40 48/68/39 49/70/49
f 39/72/37 40/78/46 49/70/49
f 44/80/41 45/73/45 49/70/49
f 42/76/43 43/79/42 49/70/49
