# Blender 4.5.3 LTS
# www.blender.org
o Cylinder
v 0.000000 -0.075451 -1.203299
v 0.601649 -0.115155 -1.042087
v 1.042087 -0.075451 -0.601649
v 1.203299 -0.115155 0.000000
v 1.042087 -0.075451 0.601649
v 0.601649 -0.115155 1.042087
v 0.000000 -0.075451 1.203299
v -0.601649 -0.115155 1.042087
v -1.042087 -0.075451 0.601649
v -1.203299 -0.115155 0.000000
v -1.042087 -0.075451 -0.601649
v -0.601649 -0.115155 -1.042087
v 0.000000 5.096990 -2.396177
v -1.198088 5.118954 -2.075150
v -2.075150 5.115119 -1.198088
v -2.396176 4.902527 -0.000000
v -2.075150 5.080147 1.198088
v -1.198088 5.178047 2.075150
v 1.198088 5.368030 -2.075150
v 2.075150 5.078303 -1.198088
v 2.396176 5.133182 -0.000000
v 2.075150 5.016414 1.198088
v 1.198088 5.146075 2.075150
v 0.000000 5.080147 2.396176
v 0.000000 6.028267 -2.504622
v 1.248724 6.092489 -2.162853
v 2.169030 6.007025 -1.252290
v 2.504912 6.076940 -0.000000
v 2.168869 5.936291 1.252197
v 1.252464 6.091490 2.169331
v 0.000000 6.008841 2.504550
v -1.252495 6.127767 2.169384
v -2.168974 6.008531 1.252257
v -2.504244 5.813482 -0.000000
v -2.169062 6.048482 -1.252308
v -1.252431 6.060608 -2.169275
v -0.000000 -0.477383 -0.870864
v 0.435432 -0.506118 -0.754190
v 0.754190 -0.477383 -0.435432
v 0.870864 -0.506118 -0.000000
v 0.754190 -0.477383 0.435432
v 0.435432 -0.506118 0.754190
v -0.000000 -0.477383 0.870864
v -0.435432 -0.506118 0.754190
v -0.754190 -0.477383 0.435432
v -0.870864 -0.506118 -0.000000
v -0.754190 -0.477383 -0.435432
v -0.435432 -0.506118 -0.754190
v -0.000000 -0.717595 -0.000000
vn 0.8594 -0.1159 0.4979
vn 0.4899 -0.1150 0.8642
vn 0.4903 -0.1653 0.8558
vn 0.8527 -0.1728 0.4931
vn -0.4986 -0.1151 -0.8592
vn 0.0102 -0.1208 -0.9926
vn 0.0111 -0.1735 -0.9848
vn -0.4937 -0.1676 -0.8533
vn 0.9933 -0.1152 -0.0076
vn 0.9861 -0.1659 -0.0032
vn 0.8554 -0.1209 -0.5037
vn 0.8475 -0.1745 -0.5013
vn -0.8466 -0.1154 -0.5196
vn -0.8485 -0.1658 -0.5026
vn -0.9931 -0.1173 -0.0041
vn -0.9841 -0.1776 -0.0018
vn -0.8429 -0.1156 0.5255
vn -0.8466 -0.1679 0.5050
vn -0.4967 -0.1146 0.8603
vn -0.4932 -0.1645 0.8542
vn -0.0038 -0.1152 0.9933
vn -0.0016 -0.1702 0.9854
vn -0.7807 -0.4213 0.4615
vn -0.4491 -0.4398 0.7778
vn -0.8960 -0.4441 -0.0011
vn -0.7819 -0.4209 -0.4599
vn -0.4493 -0.4406 -0.7772
vn 0.0081 -0.4203 -0.9074
vn 0.4924 -0.1635 -0.8549
vn 0.4492 -0.4369 -0.7793
vn -0.0011 -0.4209 0.9071
vn 0.4472 -0.4404 0.7785
vn 0.7849 -0.4220 0.4537
vn 0.8977 -0.4406 -0.0019
vn 0.7819 -0.4206 -0.4602
vn 0.4941 -0.1251 -0.8604
vn 0.5052 -0.8123 -0.2917
vn 0.2774 -0.8320 -0.4805
vn -0.2773 -0.8321 -0.4804
vn -0.5051 -0.8123 -0.2916
vn -0.2773 -0.8321 0.4804
vn -0.0000 -0.8123 0.5832
vn 0.2773 -0.8321 0.4804
vn 0.5051 -0.8123 0.2916
vn -0.5050 -0.8124 0.2916
vn 0.5546 -0.8321 -0.0000
vn -0.5546 -0.8321 -0.0000
vn -0.0000 -0.8123 -0.5832
vn 0.2368 -0.9673 -0.0906
vt 0.166689 0.949409
vt 0.083367 0.973379
vt 0.083367 0.827351
vt 0.166690 0.807325
vt 0.583277 0.968611
vt 0.499960 0.963614
vt 0.499960 0.819771
vt 0.583277 0.823163
vt 0.250009 0.971133
vt 0.250010 0.825360
vt 0.333327 0.960334
vt 0.333327 0.816884
vt 0.666597 0.966737
vt 0.666597 0.822571
vt 0.749919 0.930439
vt 0.749919 0.789734
vt 0.833243 0.960566
vt 0.833243 0.817169
vt 0.916569 0.978983
vt 0.916569 0.832290
vt 0.999895 0.960615
vt 0.999895 0.817169
vt 0.000042 0.960615
vt 0.000042 0.817169
vt 0.833238 0.020838
vt 0.916569 0.014705
vt 0.749910 0.014705
vt 0.666587 0.020838
vt 0.583269 0.014705
vt 0.499955 0.020838
vt 0.416644 0.861635
vt 0.416644 0.014705
vt 0.999899 0.020838
vt 0.000047 0.020838
vt 0.083375 0.014705
vt 0.166699 0.020838
vt 0.250018 0.014705
vt 0.333333 0.020838
vt 0.416644 0.973535
vt 0.416543 0.014570
vt 0.333228 0.020644
vt 0.333228 -0.037032
vt 0.416543 -0.069574
vt 0.666489 0.020644
vt 0.583174 0.014570
vt 0.583174 -0.069574
vt 0.666489 -0.037032
vt 0.999763 0.020644
vt 0.916447 0.014570
vt 0.916447 -0.069574
vt 0.999763 -0.037031
vt 0.166597 0.020644
vt 0.083281 0.014570
vt 0.083281 -0.069574
vt 0.166597 -0.037032
vt 0.833132 0.020644
vt 0.833132 -0.037032
vt 0.249912 0.014570
vt 0.249912 -0.069574
vt 0.749805 0.014570
vt 0.749805 -0.069574
vt 0.499859 0.020644
vt 0.499859 -0.037032
vt -0.000034 0.020644
vt -0.000034 -0.037031
vt 0.749817 0.014570
vt 0.749817 -0.069574
vt 0.696074 0.685240
vt 0.737349 0.660185
vt 0.737349 0.847198
vt 0.778623 0.685240
vt 0.808838 0.753691
vt 0.665859 0.940704
vt 0.654800 0.847198
vt 0.808838 0.940704
vt 0.778623 1.009156
vt 0.665859 0.753691
vt 0.819897 0.847198
vt 0.737349 1.034211
vt 0.696074 1.009156
s 1
f 29/1/1 30/2/2 23/3/3 22/4/4
f 36/5/5 25/6/6 13/7/7 14/8/8
f 28/9/9 29/1/1 22/4/4 21/10/10
f 27/11/11 28/9/9 21/10/10 20/12/12
f 35/13/13 36/5/5 14/8/8 15/14/14
f 34/15/15 35/13/13 15/14/14 16/16/16
f 33/17/17 34/15/15 16/16/16 17/18/18
f 32/19/19 33/17/17 17/18/18 18/20/20
f 31/21/21 32/19/19 18/20/20 24/22/22
f 30/2/2 31/23/21 24/24/22 23/3/3
f 18/20/20 17/18/18 9/25/23 8/26/24
f 17/18/18 16/16/16 10/27/25 9/25/23
f 16/16/16 15/14/14 11/28/26 10/27/25
f 15/14/14 14/8/8 12/29/27 11/28/26
f 14/8/8 13/7/7 1/30/28 12/29/27
f 13/7/7 19/31/29 2/32/30 1/30/28
f 24/22/22 18/20/20 8/26/24 7/33/31
f 23/3/3 24/24/22 7/34/31 6/35/32
f 22/4/4 23/3/3 6/35/32 5/36/33
f 21/10/10 22/4/4 5/36/33 4/37/34
f 20/12/12 21/10/10 4/37/34 3/38/35
f 19/31/29 20/12/12 3/38/35 2/32/30
f 26/39/36 27/11/11 20/12/12 19/31/29
f 25/6/6 26/39/36 19/31/29 13/7/7
f 2/40/30 3/41/35 39/42/37 38/43/38
f 11/44/26 12/45/27 48/46/39 47/47/40
f 7/48/31 8/49/24 44/50/41 43/51/42
f 5/52/33 6/53/32 42/54/43 41/55/44
f 8/49/24 9/56/23 45/57/45 44/50/41
f 3/41/35 4/58/34 40/59/46 39/42/37
f 10/60/25 11/44/26 47/47/40 46/61/47
f 1/62/28 2/40/30 38/43/38 37/63/48
f 12/45/27 1/62/28 37/63/48 48/46/39
f 6/53/32 7/64/31 43/65/42 42/54/43
f 4/58/34 5/52/33 41/55/44 40/59/46
f 9/56/23 10/66/25 46/67/47 45/57/45
f 48/68/39 37/69/48 49/70/49
f 38/71/38 39/72/37 49/70/49
f 45/73/45 46/74/47 49/70/49
f 41/75/44 42/76/43 49/70/49
f 37/69/48 38/71/38 49/70/49
f 46/74/47 47/77/40 49/70/49
f 40/78/46 41/75/44 49/70/49
f 43/79/42 44/80/41 49/70/49
f 47/77/40 48/68/39 49/70/49
f 39/72/37 40/78/46 49/70/49
f 44/80/41 45/73/45 49/70/49
f 42/76/43 43/79/42 49/70/49
