# Blender 4.4.1
# www.blender.org
o Cylinder
v -0.000000 -0.075451 -1.203299
v 0.601649 -0.115155 -1.042087
v 1.042087 -0.075451 -0.601649
v 1.203299 -0.115155 -0.000000
v 1.042087 -0.075451 0.601649
v 0.601649 -0.115155 1.042087
v -0.000000 -0.075451 1.203299
v -0.601649 -0.115155 1.042087
v -1.042087 -0.075451 0.601649
v -1.203299 -0.115155 -0.000000
v -1.042087 -0.075451 -0.601649
v -0.601649 -0.115155 -1.042087
v -0.000000 5.096990 -2.396176
v -1.198088 5.118954 -2.075150
v -2.075150 5.115119 -1.198088
v -2.075150 5.080147 1.198088
v -1.198088 5.178047 2.075150
v 1.198088 5.368030 -2.075150
v 2.075150 5.078303 -1.198088
v 2.075150 5.016414 1.198088
v 1.198088 5.146075 2.075150
v -0.000000 5.080147 2.396176
v -0.000000 6.028267 -2.504622
v 1.248724 6.092489 -2.162853
v 2.169030 6.007025 -1.252290
v 2.504912 6.076940 -0.000000
v 2.168869 5.936291 1.252197
v 1.252464 6.091490 2.169331
v -0.000000 6.008841 2.504551
v -1.252495 6.127767 2.169384
v -2.168974 6.008531 1.252258
v -2.504244 5.813482 -0.000000
v -2.169062 6.048482 -1.252308
v -1.252431 6.060608 -2.169274
v -2.410245 5.021117 0.000000
v -1.640168 2.909329 0.946951
v -1.823769 4.233333 1.179001
v -1.511025 3.256616 1.179001
v -1.566785 3.744975 1.276142
v -2.061918 4.647344 0.902369
v -1.817603 2.468833 -0.000000
v -1.692629 2.565973 0.488358
v -2.253208 4.923976 0.488358
v -2.250024 4.923976 -0.488358
v -1.633567 2.842606 -0.902369
v -2.056957 4.647344 -0.902369
v -1.696837 2.565973 -0.488358
v -1.819504 4.233333 -1.179001
v -1.535522 3.199679 -1.140957
v -1.570063 3.744975 -1.276142
v 1.533799 3.256616 1.179001
v 1.845351 4.233333 1.179001
v 1.587854 3.744975 1.276142
v 1.644199 2.842606 0.902369
v 2.062225 4.647344 0.902369
v 2.366358 5.018481 0.013249
v 2.227888 4.923976 0.488358
v 1.681711 2.565973 0.488358
v 1.790605 2.468833 0.000000
v 1.686913 2.565973 -0.488358
v 2.053357 4.647344 -0.902369
v 2.222856 4.923976 -0.488358
v 1.637487 2.842606 -0.902369
v 1.497438 3.256616 -1.179001
v 1.550294 3.744975 -1.276142
v 1.818529 4.233333 -1.179001
vn 0.8606 -0.1189 0.4951
vn 0.4893 -0.1648 0.8564
vn 0.8539 -0.1779 0.4891
vn 0.0109 -0.1195 -0.9928
vn -0.4937 -0.1675 -0.8534
vn -0.4986 -0.1147 -0.8592
vn 0.9906 -0.1367 0.0037
vn 0.9920 -0.1262 -0.0063
vn 0.8451 -0.1793 -0.5036
vn 0.8552 -0.1199 -0.5042
vn -0.8466 -0.1152 -0.5197
vn -0.8469 -0.1698 -0.5038
vn -0.9928 -0.1196 -0.0021
vn -0.9925 -0.1218 0.0039
vn -0.9509 -0.1389 0.2767
vn -0.8434 -0.1173 0.5243
vn -0.4936 -0.1640 0.8541
vn -0.4967 -0.1138 0.8604
vn -0.0038 -0.1153 0.9933
vn -0.0015 -0.1708 0.9853
vn 0.4899 -0.1143 0.8643
vn -0.4871 -0.2258 0.8436
vn -0.6842 -0.2134 0.6973
vn -0.8427 -0.2270 0.4882
vn -0.7682 -0.2199 0.6012
vn -0.9360 -0.2187 0.2759
vn -0.8458 -0.1726 0.5048
vn -0.9118 -0.2503 0.3256
vn -0.7232 -0.2294 0.6515
vn -0.9104 -0.2457 -0.3327
vn -0.9433 -0.1777 -0.2803
vn -0.8422 -0.2236 -0.4907
vn -0.9735 -0.2285 0.0031
vn -0.9337 -0.2193 -0.2830
vn -0.7995 -0.2270 -0.5561
vn -0.6996 -0.2174 -0.6807
vn -0.4880 -0.2219 -0.8442
vn -0.0014 -0.2230 -0.9748
vn 0.0153 -0.1710 -0.9851
vn 0.4889 -0.2222 -0.8436
vn 0.0021 -0.2229 0.9748
vn 0.4869 -0.2224 0.8446
vn 0.6745 -0.2151 0.7063
vn 0.7266 -0.2290 0.6478
vn 0.9299 -0.2493 0.2705
vn 0.9475 -0.2195 0.2325
vn 0.9455 -0.2186 0.2412
vn 0.8447 -0.2212 0.4874
vn 0.9743 -0.2253 0.0039
vn 0.9521 -0.1903 -0.2395
vn 0.9207 -0.2514 -0.2986
vn 0.8446 -0.2205 -0.4879
vn 0.7866 -0.2207 -0.5767
vn 0.9424 -0.2192 -0.2526
vn 0.4927 -0.1652 -0.8544
vn 0.7061 -0.2296 -0.6699
vn 0.6541 -0.2150 -0.7252
vn 0.4930 -0.1384 -0.8589
vn -0.0000 0.1951 0.9808
vn -0.0000 0.5556 0.8315
vn -0.0000 0.8315 0.5556
vn -0.0000 0.9808 0.1951
vn -0.0000 0.9808 -0.1951
vn -0.0000 0.8315 -0.5556
vn -0.0000 0.5556 -0.8315
vn -0.0000 0.1951 -0.9808
vn -0.0000 -0.1951 -0.9808
vn -0.0000 -0.8315 -0.5556
vn -0.0000 -0.9808 -0.1951
vn -0.0011 -0.9809 0.1947
vn -0.0000 -0.8315 0.5556
vn -0.0000 -0.5556 0.8315
vn -0.0000 -0.1951 0.9808
vn -0.0000 -0.5556 -0.8315
vn -0.6780 -0.2171 0.7023
vn -0.9729 -0.2313 -0.0000
vn -0.7323 -0.2262 -0.6424
vn -0.6901 -0.2150 -0.6910
vn 0.6873 -0.2181 0.6929
vn 0.8078 -0.2307 0.5425
vn 0.9751 -0.2216 -0.0000
vn 0.6764 -0.2094 -0.7062
vn 0.0076 0.2411 0.9705
vn 0.0081 0.8000 -0.5999
vn -0.0000 -0.9827 0.1851
vt 0.166415 0.408253
vt 0.083116 0.358157
vt 0.166416 0.349938
vt 0.499594 0.414083
vt 0.582888 0.356438
vt 0.582888 0.416134
vt 0.249713 0.357340
vt 0.249712 0.417169
vt 0.333007 0.353861
vt 0.333007 0.412737
vt 0.666185 0.415365
vt 0.666185 0.356195
vt 0.749484 0.400467
vt 0.749484 0.350236
vt 0.749484 0.350236
vt 0.773234 0.345928
vt 0.832785 0.412832
vt 0.916088 0.360184
vt 0.916088 0.420391
vt 0.999391 0.412852
vt 0.999391 0.353978
vt -0.000186 0.412852
vt 0.083116 0.418091
vt 0.916088 0.024625
vt 0.855395 0.238350
vt 0.832780 0.027142
vt 0.829514 0.212123
vt 0.794372 0.194553
vt 0.832785 0.353978
vt 0.814619 0.326532
vt 0.832784 0.306674
vt 0.684170 0.326545
vt 0.715232 0.344079
vt 0.666175 0.027142
vt 0.723061 0.192123
vt 0.704654 0.194637
vt 0.666180 0.216093
vt 0.643926 0.238408
vt 0.582880 0.024625
vt 0.499589 0.027142
vt 0.499594 0.355046
vt 0.416301 0.024625
vt 0.999395 0.027142
vt -0.000181 0.027142
vt 0.083124 0.024625
vt 0.141494 0.269389
vt 0.166417 0.306158
vt 0.184799 0.326533
vt 0.215201 0.344072
vt 0.204942 0.194526
vt 0.166425 0.027142
vt 0.249717 0.188435
vt 0.284327 0.344081
vt 0.314944 0.326553
vt 0.333013 0.027142
vt 0.307791 0.201176
vt 0.294459 0.194645
vt 0.416301 0.372228
vt 0.341772 0.300282
vt 0.360025 0.269284
vt 0.416301 0.418155
vt 1.000000 0.647003
vt 0.937500 0.848233
vt 1.000000 0.851700
vt 0.875000 0.642837
vt 0.928905 0.649269
vt 0.812500 0.860663
vt 0.875000 0.857420
vt 0.750000 0.867465
vt 0.812500 0.638686
vt 0.750000 0.630764
vt 0.687500 0.638963
vt 0.625000 0.857860
vt 0.687500 0.860321
vt 0.562500 0.650876
vt 0.614927 0.642404
vt 0.500000 0.854164
vt 0.500000 0.647218
vt 0.437500 0.630360
vt 0.312500 0.896151
vt 0.375000 0.614737
vt 0.312500 0.602188
vt 0.293717 0.598814
vt 0.251696 0.905234
vt 0.187500 0.602397
vt 0.250000 0.905520
vt 0.209673 0.598348
vt 0.125000 0.615062
vt 0.187500 0.895821
vt 0.125000 0.884701
vt 0.062500 0.630639
vt 0.092032 0.878980
vt 0.000000 0.851700
vt 0.062500 0.869297
vt 0.422309 0.623677
vt 0.375000 0.885283
vt 0.437500 0.871056
vt -0.000186 0.353978
vt 0.832783 0.216360
vt 0.841230 0.300289
vt 0.858738 0.269313
vt 0.749479 0.188435
vt 0.749475 0.024625
vt 0.783670 0.344077
vt 0.727576 0.346262
vt 0.666183 0.306952
vt 0.640531 0.269358
vt 0.145000 0.238456
vt 0.166420 0.216857
vt 0.249721 0.024625
vt 0.333008 0.306659
vt 0.249713 0.350236
vt 0.356544 0.238318
vt 0.333010 0.216374
vt 0.937500 0.650604
vt 0.885106 0.857613
vt 0.711498 0.862773
vt 0.625000 0.642596
vt 0.570645 0.851966
vt 0.562500 0.850618
vt 0.250000 0.591886
vt 0.000000 0.647003
s 1
f 27/1/1 21/2/2 20/3/3
f 23/4/4 14/5/5 34/6/6
f 27/1/1 56/7/7 26/8/8
f 26/8/8 19/9/9 25/10/10
f 33/11/11 14/5/5 15/12/12
f 32/13/13 15/12/12 35/14/14
f 32/13/13 35/15/14 43/16/15
f 31/17/16 17/18/17 30/19/18
f 29/20/19 17/18/17 22/21/20
f 29/22/19 21/2/2 28/23/21
f 8/24/22 17/18/17 38/25/23
f 9/26/24 36/27/25 42/28/26
f 16/29/27 40/30/28 37/31/29
f 15/12/12 46/32/30 44/33/31
f 11/34/32 41/35/33 47/36/34
f 45/37/35 49/38/36 12/39/37
f 14/5/5 1/40/38 12/39/37
f 13/41/39 2/42/40 1/40/38
f 22/21/20 8/24/22 7/43/41
f 21/2/2 7/44/41 6/45/42
f 53/46/43 52/47/44 21/2/2
f 20/3/3 55/48/45 57/49/46
f 58/50/47 5/51/48 59/52/49
f 19/9/9 62/53/50 61/54/51
f 3/55/52 63/56/53 60/57/54
f 18/58/55 66/59/56 65/60/57
f 25/10/10 18/58/55 24/61/58
f 23/4/4 18/58/55 13/41/39
s 0
f 50/62/59 64/63/59 65/64/59
f 45/65/60 64/63/60 49/66/60
f 45/65/61 60/67/61 63/68/61
f 59/69/62 47/70/62 41/71/62
f 42/72/63 59/69/63 41/71/63
f 42/72/64 54/73/64 58/74/64
f 38/75/65 54/73/65 36/76/65
f 53/77/66 38/75/66 39/78/66
f 37/79/67 53/77/67 39/78/67
f 57/80/68 40/81/68 43/82/68
f 43/83/69 56/84/69 57/80/69
f 44/85/70 56/86/70 35/87/70
f 46/88/71 62/89/71 44/85/71
f 61/90/72 48/91/72 66/92/72
f 48/91/73 65/93/73 66/94/73
f 37/95/74 55/96/74 52/97/74
s 1
f 27/1/1 28/23/21 21/2/2
f 23/4/4 13/41/39 14/5/5
f 27/1/1 20/3/3 56/7/7
f 26/8/8 56/7/7 19/9/9
f 33/11/11 34/6/6 14/5/5
f 32/13/13 33/11/11 15/12/12
f 16/29/27 31/17/16 43/16/15
f 31/17/16 32/13/13 43/16/15
f 31/17/16 16/29/27 17/18/17
f 29/20/19 30/19/18 17/18/17
f 29/22/19 22/98/20 21/2/2
f 36/99/25 9/26/24 8/24/22
f 17/18/17 16/29/27 37/100/29
f 17/18/17 37/100/29 39/101/75
f 38/25/23 36/99/25 8/24/22
f 17/18/17 39/101/75 38/25/23
f 42/28/26 41/102/33 9/26/24
f 41/102/33 10/103/76 9/26/24
f 16/29/27 43/104/15 40/30/28
f 44/33/31 35/105/14 15/12/12
f 15/12/12 48/106/77 46/32/30
f 47/36/34 45/37/35 11/34/32
f 11/34/32 10/103/76 41/35/33
f 50/107/78 48/106/77 14/5/5
f 48/106/77 15/12/12 14/5/5
f 14/5/5 12/39/37 49/38/36
f 12/39/37 11/34/32 45/37/35
f 14/5/5 49/38/36 50/107/78
f 14/5/5 13/41/39 1/40/38
f 13/41/39 18/58/55 2/42/40
f 22/21/20 17/18/17 8/24/22
f 21/2/2 22/98/20 7/44/41
f 52/47/44 20/3/3 21/2/2
f 21/2/2 6/45/42 51/108/79
f 6/45/42 5/51/48 54/109/80
f 21/2/2 51/108/79 53/46/43
f 54/109/80 51/108/79 6/45/42
f 57/49/46 56/7/7 20/3/3
f 20/3/3 52/47/44 55/48/45
f 54/109/80 5/51/48 58/50/47
f 5/51/48 4/110/81 59/52/49
f 61/54/51 66/111/56 19/9/9
f 19/9/9 56/112/7 62/53/50
f 60/57/54 59/52/49 3/55/52
f 59/52/49 4/110/81 3/55/52
f 64/113/82 63/114/53 2/42/40
f 63/114/53 3/55/52 2/42/40
f 2/42/40 18/58/55 64/113/82
f 64/113/82 18/58/55 65/60/57
f 18/58/55 19/9/9 66/59/56
f 25/10/10 19/9/9 18/58/55
f 23/4/4 24/61/58 18/58/55
s 0
f 50/62/83 49/115/83 64/63/83
f 45/65/60 63/116/60 64/63/60
f 45/65/61 47/70/61 60/67/61
f 59/69/62 60/67/62 47/70/62
f 42/72/63 58/117/63 59/69/63
f 42/72/84 36/118/84 54/73/84
f 38/75/65 51/119/65 54/73/65
f 53/77/66 51/120/66 38/75/66
f 37/79/67 52/97/67 53/77/67
f 57/80/68 55/96/68 40/81/68
f 43/83/69 35/121/69 56/84/69
f 44/85/85 62/89/85 56/86/85
f 46/88/71 61/90/71 62/89/71
f 61/90/72 46/88/72 48/91/72
f 48/91/73 50/122/73 65/93/73
f 37/95/74 40/81/74 55/96/74
