# Blender 4.5.3 LTS
# www.blender.org
o Cylinder
v 0.000000 6.256513 -0.000000
v 0.000000 -0.075451 -1.203299
v 0.601649 -0.115155 -1.042087
v 1.042087 -0.075451 -0.601649
v 1.203299 -0.115155 0.000000
v 1.042087 -0.075451 0.601649
v 0.601649 -0.115155 1.042087
v 0.000000 -0.075451 1.203299
v -0.601649 -0.115155 1.042087
v -1.042087 -0.075451 0.601649
v -1.203299 -0.115155 0.000000
v -1.042087 -0.075451 -0.601649
v -0.601649 -0.115155 -1.042087
v 0.000000 5.096990 -2.396177
v -1.198088 5.118954 -2.075150
v -2.075150 5.115119 -1.198088
v -2.396176 4.902527 -0.000000
v -2.075150 5.080147 1.198088
v -1.198088 5.178047 2.075150
v 1.198088 5.368030 -2.075150
v 2.075150 5.078303 -1.198088
v 2.396176 5.133182 -0.000000
v 2.075150 5.016414 1.198088
v 1.198088 5.146075 2.075150
v 0.000000 5.080147 2.396176
v 0.000000 6.028267 -2.504622
v 0.000000 6.325292 -2.222142
v 1.111071 6.381540 -1.924433
v 1.248724 6.092489 -2.162853
v 1.924427 6.306392 -1.111069
v 2.169030 6.007025 -1.252290
v 2.222131 6.368538 -0.000000
v 2.504912 6.076940 -0.000000
v 1.924419 6.243799 1.111063
v 2.168869 5.936291 1.252197
v 1.111067 6.381578 1.924425
v 1.252464 6.091490 2.169331
v 0.000000 6.308257 2.222142
v 0.000000 6.008841 2.504550
v -1.111072 6.413915 1.924433
v -1.252495 6.127767 2.169384
v -1.924424 6.308257 1.111067
v -2.168974 6.008531 1.252257
v -2.222124 6.135258 -0.000000
v -2.504244 5.813482 -0.000000
v -1.924419 6.343627 -1.111064
v -2.169062 6.048482 -1.252308
v -1.111068 6.354149 -1.924428
v -1.252431 6.060608 -2.169275
vn 0.8358 0.2642 0.4812
vn 0.4802 0.3233 0.8154
vn 0.4903 -0.1653 0.8558
vn 0.8527 -0.1728 0.4931
vn 0.2143 0.9092 -0.3571
vn -0.0095 0.8978 -0.4403
vn -0.0107 0.9999 0.0011
vn -0.4745 0.3042 -0.8260
vn 0.0018 0.2853 -0.9584
vn 0.0111 -0.1735 -0.9848
vn -0.4937 -0.1676 -0.8533
vn 0.9475 0.3198 0.0079
vn 0.9861 -0.1659 -0.0032
vn 0.8301 0.2784 -0.4832
vn 0.8475 -0.1745 -0.5013
vn -0.8346 0.3172 -0.4503
vn -0.8485 -0.1658 -0.5026
vn -0.9701 0.2426 0.0028
vn -0.9841 -0.1776 -0.0018
vn -0.8415 0.3010 0.4487
vn -0.8466 -0.1679 0.5050
vn -0.4726 0.3267 0.8185
vn -0.4932 -0.1645 0.8542
vn 0.0032 0.2784 0.9605
vn -0.0016 -0.1702 0.9854
vn -0.8355 -0.2249 0.5013
vn -0.4875 -0.2222 0.8444
vn -0.9733 -0.2296 -0.0020
vn -0.8374 -0.2243 -0.4984
vn -0.4883 -0.2235 -0.8436
vn 0.0143 -0.2217 -0.9750
vn 0.4924 -0.1635 -0.8549
vn 0.4871 -0.2171 -0.8459
vn -0.0019 -0.2232 0.9748
vn 0.4841 -0.2235 0.8460
vn 0.8434 -0.2253 0.4878
vn 0.9746 -0.2239 -0.0036
vn 0.8376 -0.2221 -0.4991
vn 0.3899 0.8941 -0.2205
vn 0.4145 0.9097 0.0231
vn 0.4092 0.8828 0.2306
vn 0.2255 0.9118 0.3432
vn 0.0123 0.8939 0.4482
vn -0.2006 0.9161 0.3473
vn -0.2068 0.9050 -0.3718
vn 0.4775 0.3094 -0.8224
vn -0.4042 0.9037 -0.1411
vn -0.5044 0.8634 0.0132
vn -0.4288 0.8942 0.1286
vt 0.166415 0.408253
vt 0.083116 0.418091
vt 0.083116 0.358157
vt 0.166416 0.349938
vt 0.611512 0.909765
vt 0.499721 0.939720
vt 0.499721 0.716137
vt 0.582888 0.416134
vt 0.499594 0.414083
vt 0.499594 0.355046
vt 0.582888 0.356438
vt 0.249712 0.417169
vt 0.249713 0.357340
vt 0.333007 0.412737
vt 0.333007 0.353861
vt 0.666185 0.415365
vt 0.666185 0.356195
vt 0.749484 0.400467
vt 0.749484 0.342718
vt 0.832785 0.412832
vt 0.832785 0.353978
vt 0.916088 0.420391
vt 0.916088 0.360184
vt 0.999391 0.412852
vt 0.999391 0.353978
vt -0.000186 0.412852
vt -0.000186 0.353978
vt 0.832780 0.027142
vt 0.916088 0.024625
vt 0.749475 0.024625
vt 0.666175 0.027142
vt 0.582880 0.024625
vt 0.499589 0.027142
vt 0.416301 0.372228
vt 0.416301 0.024625
vt 0.999395 0.027142
vt -0.000181 0.027142
vt 0.083124 0.024625
vt 0.166425 0.027142
vt 0.249721 0.024625
vt 0.333013 0.027142
vt 0.693348 0.827928
vt 0.723302 0.716137
vt 0.693347 0.604347
vt 0.611512 0.522510
vt 0.499721 0.492555
vt 0.387930 0.522509
vt 0.387930 0.909765
vt 0.416301 0.418155
vt 0.306094 0.827928
vt 0.276140 0.716137
vt 0.306094 0.604347
vt 0.625362 0.933754
vt 0.499721 0.968142
vt 0.717959 0.842137
vt 0.751754 0.716137
vt 0.717943 0.590147
vt 0.625738 0.497869
vt 0.499721 0.464140
vt 0.373700 0.497863
vt 0.281488 0.590141
vt 0.247755 0.716137
vt 0.281479 0.842139
vt 0.373707 0.934400
s 1
f 35/1/1 37/2/2 24/3/3 23/4/4
f 28/5/5 27/6/6 1/7/7
f 49/8/8 26/9/9 14/10/10 15/11/11
f 33/12/12 35/1/1 23/4/4 22/13/13
f 31/14/14 33/12/12 22/13/13 21/15/15
f 47/16/16 49/8/8 15/11/11 16/17/17
f 45/18/18 47/16/16 16/17/17 17/19/19
f 43/20/20 45/18/18 17/19/19 18/21/21
f 41/22/22 43/20/20 18/21/21 19/23/23
f 39/24/24 41/22/22 19/23/23 25/25/25
f 37/2/2 39/26/24 25/27/25 24/3/3
f 19/23/23 18/21/21 10/28/26 9/29/27
f 18/21/21 17/19/19 11/30/28 10/28/26
f 17/19/19 16/17/17 12/31/29 11/30/28
f 16/17/17 15/11/11 13/32/30 12/31/29
f 15/11/11 14/10/10 2/33/31 13/32/30
f 14/10/10 20/34/32 3/35/33 2/33/31
f 25/25/25 19/23/23 9/29/27 8/36/34
f 24/3/3 25/27/25 8/37/34 7/38/35
f 23/4/4 24/3/3 7/38/35 6/39/36
f 22/13/13 23/4/4 6/39/36 5/40/37
f 21/15/15 22/13/13 5/40/37 4/41/38
f 20/34/32 21/15/15 4/41/38 3/35/33
f 30/42/39 28/5/5 1/7/7
f 32/43/40 30/42/39 1/7/7
f 34/44/41 32/43/40 1/7/7
f 36/45/42 34/44/41 1/7/7
f 38/46/43 36/45/42 1/7/7
f 40/47/44 38/46/43 1/7/7
f 27/6/6 48/48/45 1/7/7
f 29/49/46 31/14/14 21/15/15 20/34/32
f 48/48/45 46/50/47 1/7/7
f 46/50/47 44/51/48 1/7/7
f 44/51/48 42/52/49 1/7/7
f 42/52/49 40/47/44 1/7/7
f 29/53/46 26/54/9 27/6/6 28/5/5
f 31/55/14 29/53/46 28/5/5 30/42/39
f 33/56/12 31/55/14 30/42/39 32/43/40
f 35/57/1 33/56/12 32/43/40 34/44/41
f 37/58/2 35/57/1 34/44/41 36/45/42
f 39/59/24 37/58/2 36/45/42 38/46/43
f 41/60/22 39/59/24 38/46/43 40/47/44
f 43/61/20 41/60/22 40/47/44 42/52/49
f 45/62/18 43/61/20 42/52/49 44/51/48
f 47/63/16 45/62/18 44/51/48 46/50/47
f 49/64/8 47/63/16 46/50/47 48/48/45
f 26/54/9 49/64/8 48/48/45 27/6/6
f 26/9/9 29/49/46 20/34/32 14/10/10
